G04 #@! TF.GenerationSoftware,KiCad,Pcbnew,5.0.0-fee4fd1~66~ubuntu16.04.1*
G04 #@! TF.CreationDate,2018-11-06T10:27:56-05:00*
G04 #@! TF.ProjectId,circuit,636972637569742E6B696361645F7063,rev?*
G04 #@! TF.SameCoordinates,Original*
G04 #@! TF.FileFunction,Copper,L1,Top,Signal*
G04 #@! TF.FilePolarity,Positive*
%FSLAX46Y46*%
G04 Gerber Fmt 4.6, Leading zero omitted, Abs format (unit mm)*
G04 Created by KiCad (PCBNEW 5.0.0-fee4fd1~66~ubuntu16.04.1) date Tue Nov  6 10:27:56 2018*
%MOMM*%
%LPD*%
G01*
G04 APERTURE LIST*
G04 #@! TA.AperFunction,SMDPad,CuDef*
%ADD10R,1.701800X0.939800*%
G04 #@! TD*
G04 #@! TA.AperFunction,SMDPad,CuDef*
%ADD11R,7.721600X6.654800*%
G04 #@! TD*
G04 #@! TA.AperFunction,SMDPad,CuDef*
%ADD12R,1.250000X1.000000*%
G04 #@! TD*
G04 #@! TA.AperFunction,SMDPad,CuDef*
%ADD13R,1.000000X1.250000*%
G04 #@! TD*
G04 #@! TA.AperFunction,SMDPad,CuDef*
%ADD14R,1.200000X1.200000*%
G04 #@! TD*
G04 #@! TA.AperFunction,ComponentPad*
%ADD15R,1.400000X1.400000*%
G04 #@! TD*
G04 #@! TA.AperFunction,ComponentPad*
%ADD16C,1.400000*%
G04 #@! TD*
G04 #@! TA.AperFunction,SMDPad,CuDef*
%ADD17R,1.300000X0.700000*%
G04 #@! TD*
G04 #@! TA.AperFunction,SMDPad,CuDef*
%ADD18R,0.700000X1.300000*%
G04 #@! TD*
G04 #@! TA.AperFunction,SMDPad,CuDef*
%ADD19R,0.600000X1.500000*%
G04 #@! TD*
G04 #@! TA.AperFunction,SMDPad,CuDef*
%ADD20R,1.016000X0.254000*%
G04 #@! TD*
G04 #@! TA.AperFunction,SMDPad,CuDef*
%ADD21R,0.254000X1.016000*%
G04 #@! TD*
G04 #@! TA.AperFunction,SMDPad,CuDef*
%ADD22R,1.750000X0.550000*%
G04 #@! TD*
G04 #@! TA.AperFunction,SMDPad,CuDef*
%ADD23R,0.450000X1.500000*%
G04 #@! TD*
G04 #@! TA.AperFunction,SMDPad,CuDef*
%ADD24R,1.600000X0.300000*%
G04 #@! TD*
G04 #@! TA.AperFunction,SMDPad,CuDef*
%ADD25R,2.400000X3.280001*%
G04 #@! TD*
G04 #@! TA.AperFunction,ComponentPad*
%ADD26C,1.300000*%
G04 #@! TD*
G04 #@! TA.AperFunction,SMDPad,CuDef*
%ADD27R,1.200000X1.400000*%
G04 #@! TD*
G04 #@! TA.AperFunction,SMDPad,CuDef*
%ADD28R,0.800000X0.900000*%
G04 #@! TD*
G04 #@! TA.AperFunction,ViaPad*
%ADD29C,0.800000*%
G04 #@! TD*
G04 #@! TA.AperFunction,Conductor*
%ADD30C,0.254000*%
G04 #@! TD*
G04 #@! TA.AperFunction,Conductor*
%ADD31C,0.381000*%
G04 #@! TD*
G04 #@! TA.AperFunction,Conductor*
%ADD32C,0.508000*%
G04 #@! TD*
G04 #@! TA.AperFunction,Conductor*
%ADD33C,0.250000*%
G04 #@! TD*
G04 APERTURE END LIST*
D10*
G04 #@! TO.P,U5,1*
G04 #@! TO.N,/battery+*
X158000700Y-83276001D03*
G04 #@! TO.P,U5,2*
G04 #@! TO.N,VCC*
X158000700Y-78775999D03*
D11*
G04 #@! TO.P,U5,3*
G04 #@! TO.N,GND*
X151892000Y-81026000D03*
G04 #@! TD*
D12*
G04 #@! TO.P,C1,1*
G04 #@! TO.N,GND*
X135280400Y-92271600D03*
G04 #@! TO.P,C1,2*
G04 #@! TO.N,VCC*
X135280400Y-90271600D03*
G04 #@! TD*
G04 #@! TO.P,C2,2*
G04 #@! TO.N,GND*
X169151300Y-105241600D03*
G04 #@! TO.P,C2,1*
G04 #@! TO.N,Net-(C2-Pad1)*
X169151300Y-103241600D03*
G04 #@! TD*
G04 #@! TO.P,C3,1*
G04 #@! TO.N,Net-(C3-Pad1)*
X174929800Y-105305100D03*
G04 #@! TO.P,C3,2*
G04 #@! TO.N,GND*
X174929800Y-103305100D03*
G04 #@! TD*
G04 #@! TO.P,C4,2*
G04 #@! TO.N,Net-(C4-Pad2)*
X166014400Y-89093800D03*
G04 #@! TO.P,C4,1*
G04 #@! TO.N,GND*
X166014400Y-91093800D03*
G04 #@! TD*
G04 #@! TO.P,C5,1*
G04 #@! TO.N,Net-(C5-Pad1)*
X189852300Y-75955400D03*
G04 #@! TO.P,C5,2*
G04 #@! TO.N,/battery+*
X189852300Y-73955400D03*
G04 #@! TD*
D13*
G04 #@! TO.P,C7,2*
G04 #@! TO.N,GND*
X167243000Y-103378000D03*
G04 #@! TO.P,C7,1*
G04 #@! TO.N,VCC*
X165243000Y-103378000D03*
G04 #@! TD*
D14*
G04 #@! TO.P,D1,2*
G04 #@! TO.N,/battery+*
X189814200Y-78089400D03*
G04 #@! TO.P,D1,1*
G04 #@! TO.N,Net-(D1-Pad1)*
X189814200Y-80289400D03*
G04 #@! TD*
G04 #@! TO.P,D2,1*
G04 #@! TO.N,Net-(D2-Pad1)*
X186296300Y-98188600D03*
G04 #@! TO.P,D2,2*
G04 #@! TO.N,/p_led*
X186296300Y-100388600D03*
G04 #@! TD*
D15*
G04 #@! TO.P,J1,1*
G04 #@! TO.N,/red_8*
X134239000Y-64516000D03*
D16*
G04 #@! TO.P,J1,2*
G04 #@! TO.N,/red_7*
X136779000Y-64516000D03*
G04 #@! TO.P,J1,3*
G04 #@! TO.N,/red_6*
X134239000Y-67056000D03*
G04 #@! TO.P,J1,4*
G04 #@! TO.N,/red_5*
X136779000Y-67056000D03*
G04 #@! TO.P,J1,5*
G04 #@! TO.N,/blue_8*
X134239000Y-69596000D03*
G04 #@! TO.P,J1,6*
G04 #@! TO.N,/blue_7*
X136779000Y-69596000D03*
G04 #@! TO.P,J1,9*
G04 #@! TO.N,/red_4*
X134239000Y-74676000D03*
G04 #@! TO.P,J1,7*
G04 #@! TO.N,/blue_6*
X134239000Y-72136000D03*
G04 #@! TO.P,J1,13*
G04 #@! TO.N,/blue_4*
X134239000Y-79756000D03*
G04 #@! TO.P,J1,17*
G04 #@! TO.N,VCC*
X134239000Y-84836000D03*
G04 #@! TO.P,J1,11*
G04 #@! TO.N,/red_2*
X134239000Y-77216000D03*
G04 #@! TO.P,J1,15*
G04 #@! TO.N,/blue_2*
X134239000Y-82296000D03*
G04 #@! TO.P,J1,19*
G04 #@! TO.N,Net-(J1-Pad19)*
X134239000Y-87376000D03*
G04 #@! TO.P,J1,14*
G04 #@! TO.N,/blue_3*
X136779000Y-79756000D03*
G04 #@! TO.P,J1,12*
G04 #@! TO.N,/red_1*
X136779000Y-77216000D03*
G04 #@! TO.P,J1,8*
G04 #@! TO.N,/blue_5*
X136779000Y-72136000D03*
G04 #@! TO.P,J1,18*
G04 #@! TO.N,VCC*
X136779000Y-84836000D03*
G04 #@! TO.P,J1,10*
G04 #@! TO.N,/red_3*
X136779000Y-74676000D03*
G04 #@! TO.P,J1,20*
G04 #@! TO.N,GND*
X136779000Y-87376000D03*
G04 #@! TO.P,J1,16*
G04 #@! TO.N,/blue_1*
X136779000Y-82296000D03*
G04 #@! TD*
D15*
G04 #@! TO.P,J2,1*
G04 #@! TO.N,/motorA+*
X182524400Y-64287400D03*
D16*
G04 #@! TO.P,J2,2*
G04 #@! TO.N,/motorA-*
X182524400Y-61747400D03*
G04 #@! TO.P,J2,3*
G04 #@! TO.N,/motorB+*
X185064400Y-64287400D03*
G04 #@! TO.P,J2,4*
G04 #@! TO.N,/motorB-*
X185064400Y-61747400D03*
G04 #@! TO.P,J2,5*
G04 #@! TO.N,Net-(F1-Pad2)*
X187604400Y-64287400D03*
G04 #@! TO.P,J2,6*
G04 #@! TO.N,GND*
X187604400Y-61747400D03*
G04 #@! TD*
G04 #@! TO.P,P1,6*
G04 #@! TO.N,GND*
X188620400Y-89433400D03*
G04 #@! TO.P,P1,5*
G04 #@! TO.N,/RESET*
X186080400Y-89433400D03*
G04 #@! TO.P,P1,4*
G04 #@! TO.N,/MOSI*
X188620400Y-86893400D03*
G04 #@! TO.P,P1,3*
G04 #@! TO.N,/SCK*
X186080400Y-86893400D03*
G04 #@! TO.P,P1,2*
G04 #@! TO.N,VCC*
X188620400Y-84353400D03*
D15*
G04 #@! TO.P,P1,1*
G04 #@! TO.N,/MISO*
X186080400Y-84353400D03*
G04 #@! TD*
D17*
G04 #@! TO.P,R1,1*
G04 #@! TO.N,/SDA*
X152895300Y-91094600D03*
G04 #@! TO.P,R1,2*
G04 #@! TO.N,/3.3V*
X152895300Y-89194600D03*
G04 #@! TD*
G04 #@! TO.P,R2,1*
G04 #@! TO.N,/SCL*
X150418800Y-91094600D03*
G04 #@! TO.P,R2,2*
G04 #@! TO.N,/3.3V*
X150418800Y-89194600D03*
G04 #@! TD*
G04 #@! TO.P,R3,1*
G04 #@! TO.N,/led_D1*
X133324600Y-92019200D03*
G04 #@! TO.P,R3,2*
G04 #@! TO.N,Net-(J1-Pad19)*
X133324600Y-90119200D03*
G04 #@! TD*
D18*
G04 #@! TO.P,R4,2*
G04 #@! TO.N,/red_inA*
X149159000Y-73152000D03*
G04 #@! TO.P,R4,1*
G04 #@! TO.N,Net-(R4-Pad1)*
X147259000Y-73152000D03*
G04 #@! TD*
G04 #@! TO.P,R5,1*
G04 #@! TO.N,Net-(R5-Pad1)*
X155763000Y-73152000D03*
G04 #@! TO.P,R5,2*
G04 #@! TO.N,/red_inB*
X153863000Y-73152000D03*
G04 #@! TD*
D17*
G04 #@! TO.P,R6,2*
G04 #@! TO.N,Net-(R10-Pad2)*
X175098235Y-64273395D03*
G04 #@! TO.P,R6,1*
G04 #@! TO.N,GND*
X175098235Y-62373395D03*
G04 #@! TD*
D18*
G04 #@! TO.P,R7,2*
G04 #@! TO.N,Net-(R4-Pad1)*
X147259000Y-75057000D03*
G04 #@! TO.P,R7,1*
G04 #@! TO.N,Net-(R7-Pad1)*
X149159000Y-75057000D03*
G04 #@! TD*
D17*
G04 #@! TO.P,R8,1*
G04 #@! TO.N,GND*
X175583587Y-75364614D03*
G04 #@! TO.P,R8,2*
G04 #@! TO.N,Net-(R11-Pad2)*
X175583587Y-77264614D03*
G04 #@! TD*
G04 #@! TO.P,R9,1*
G04 #@! TO.N,Net-(R9-Pad1)*
X157543500Y-71440000D03*
G04 #@! TO.P,R9,2*
G04 #@! TO.N,Net-(R5-Pad1)*
X157543500Y-73340000D03*
G04 #@! TD*
G04 #@! TO.P,R10,2*
G04 #@! TO.N,Net-(R10-Pad2)*
X175098235Y-65802395D03*
G04 #@! TO.P,R10,1*
G04 #@! TO.N,Net-(R10-Pad1)*
X175098235Y-67702395D03*
G04 #@! TD*
G04 #@! TO.P,R11,2*
G04 #@! TO.N,Net-(R11-Pad2)*
X175583587Y-78857114D03*
G04 #@! TO.P,R11,1*
G04 #@! TO.N,Net-(R11-Pad1)*
X175583587Y-80757114D03*
G04 #@! TD*
G04 #@! TO.P,R12,1*
G04 #@! TO.N,/red_outA*
X163245800Y-91094600D03*
G04 #@! TO.P,R12,2*
G04 #@! TO.N,Net-(R10-Pad1)*
X163245800Y-89194600D03*
G04 #@! TD*
G04 #@! TO.P,R13,2*
G04 #@! TO.N,Net-(R11-Pad1)*
X158165800Y-89194600D03*
G04 #@! TO.P,R13,1*
G04 #@! TO.N,/red_outB*
X158165800Y-91094600D03*
G04 #@! TD*
D18*
G04 #@! TO.P,R14,1*
G04 #@! TO.N,GND*
X186055000Y-80238600D03*
G04 #@! TO.P,R14,2*
G04 #@! TO.N,Net-(D1-Pad1)*
X187955000Y-80238600D03*
G04 #@! TD*
D17*
G04 #@! TO.P,R15,2*
G04 #@! TO.N,Net-(D2-Pad1)*
X186296300Y-96365100D03*
G04 #@! TO.P,R15,1*
G04 #@! TO.N,GND*
X186296300Y-94465100D03*
G04 #@! TD*
D18*
G04 #@! TO.P,R16,2*
G04 #@! TO.N,/blue_inB*
X149286000Y-63754000D03*
G04 #@! TO.P,R16,1*
G04 #@! TO.N,Net-(R16-Pad1)*
X147386000Y-63754000D03*
G04 #@! TD*
G04 #@! TO.P,R17,1*
G04 #@! TO.N,Net-(R17-Pad1)*
X156398000Y-63754000D03*
G04 #@! TO.P,R17,2*
G04 #@! TO.N,/blue_inA*
X154498000Y-63754000D03*
G04 #@! TD*
D17*
G04 #@! TO.P,R18,1*
G04 #@! TO.N,GND*
X163709087Y-74094614D03*
G04 #@! TO.P,R18,2*
G04 #@! TO.N,Net-(R18-Pad2)*
X163709087Y-75994614D03*
G04 #@! TD*
D18*
G04 #@! TO.P,R19,2*
G04 #@! TO.N,Net-(R16-Pad1)*
X147447000Y-61722000D03*
G04 #@! TO.P,R19,1*
G04 #@! TO.N,Net-(R19-Pad1)*
X149347000Y-61722000D03*
G04 #@! TD*
D17*
G04 #@! TO.P,R20,2*
G04 #@! TO.N,Net-(R20-Pad2)*
X163033235Y-62992000D03*
G04 #@! TO.P,R20,1*
G04 #@! TO.N,GND*
X163033235Y-61092000D03*
G04 #@! TD*
G04 #@! TO.P,R21,2*
G04 #@! TO.N,Net-(R17-Pad1)*
X157607000Y-65344000D03*
G04 #@! TO.P,R21,1*
G04 #@! TO.N,Net-(R21-Pad1)*
X157607000Y-67244000D03*
G04 #@! TD*
G04 #@! TO.P,R22,1*
G04 #@! TO.N,Net-(R22-Pad1)*
X163709087Y-79550614D03*
G04 #@! TO.P,R22,2*
G04 #@! TO.N,Net-(R18-Pad2)*
X163709087Y-77650614D03*
G04 #@! TD*
G04 #@! TO.P,R23,1*
G04 #@! TO.N,Net-(R23-Pad1)*
X163033235Y-66368895D03*
G04 #@! TO.P,R23,2*
G04 #@! TO.N,Net-(R20-Pad2)*
X163033235Y-64468895D03*
G04 #@! TD*
G04 #@! TO.P,R24,1*
G04 #@! TO.N,/blue_outB*
X155625800Y-91094600D03*
G04 #@! TO.P,R24,2*
G04 #@! TO.N,Net-(R22-Pad1)*
X155625800Y-89194600D03*
G04 #@! TD*
G04 #@! TO.P,R25,1*
G04 #@! TO.N,/blue_outA*
X160705800Y-91094600D03*
G04 #@! TO.P,R25,2*
G04 #@! TO.N,Net-(R23-Pad1)*
X160705800Y-89194600D03*
G04 #@! TD*
D18*
G04 #@! TO.P,R26,2*
G04 #@! TO.N,Net-(R26-Pad2)*
X183631800Y-68732400D03*
G04 #@! TO.P,R26,1*
G04 #@! TO.N,VCC*
X185531800Y-68732400D03*
G04 #@! TD*
D17*
G04 #@! TO.P,R27,2*
G04 #@! TO.N,/RESET*
X148005800Y-101254600D03*
G04 #@! TO.P,R27,1*
G04 #@! TO.N,VCC*
X148005800Y-99354600D03*
G04 #@! TD*
G04 #@! TO.P,R28,2*
G04 #@! TO.N,VCC*
X169519600Y-89143800D03*
G04 #@! TO.P,R28,1*
G04 #@! TO.N,Net-(C4-Pad2)*
X169519600Y-91043800D03*
G04 #@! TD*
D19*
G04 #@! TO.P,U1,14*
G04 #@! TO.N,Net-(R16-Pad1)*
X148082000Y-65753000D03*
G04 #@! TO.P,U1,13*
G04 #@! TO.N,/blue_inB*
X149352000Y-65753000D03*
G04 #@! TO.P,U1,12*
G04 #@! TO.N,GND*
X150622000Y-65753000D03*
G04 #@! TO.P,U1,11*
X151892000Y-65753000D03*
G04 #@! TO.P,U1,10*
X153162000Y-65753000D03*
G04 #@! TO.P,U1,9*
G04 #@! TO.N,/blue_inA*
X154432000Y-65753000D03*
G04 #@! TO.P,U1,8*
G04 #@! TO.N,Net-(R17-Pad1)*
X155702000Y-65753000D03*
G04 #@! TO.P,U1,7*
G04 #@! TO.N,Net-(R5-Pad1)*
X155702000Y-71153000D03*
G04 #@! TO.P,U1,6*
G04 #@! TO.N,/red_inB*
X154432000Y-71153000D03*
G04 #@! TO.P,U1,5*
G04 #@! TO.N,GND*
X153162000Y-71153000D03*
G04 #@! TO.P,U1,4*
G04 #@! TO.N,VCC*
X151892000Y-71153000D03*
G04 #@! TO.P,U1,3*
G04 #@! TO.N,GND*
X150622000Y-71153000D03*
G04 #@! TO.P,U1,2*
G04 #@! TO.N,/red_inA*
X149352000Y-71153000D03*
G04 #@! TO.P,U1,1*
G04 #@! TO.N,Net-(R4-Pad1)*
X148082000Y-71153000D03*
G04 #@! TD*
D20*
G04 #@! TO.P,U2,1*
G04 #@! TO.N,/3.3V*
X143713200Y-100441001D03*
G04 #@! TO.P,U2,2*
G04 #@! TO.N,Net-(U2-Pad2)*
X143713200Y-99940999D03*
G04 #@! TO.P,U2,3*
G04 #@! TO.N,Net-(U2-Pad3)*
X143713200Y-99441000D03*
G04 #@! TO.P,U2,4*
G04 #@! TO.N,/SCL*
X143713200Y-98941001D03*
G04 #@! TO.P,U2,5*
G04 #@! TO.N,GND*
X143713200Y-98440999D03*
D21*
G04 #@! TO.P,U2,6*
G04 #@! TO.N,/SDA*
X142612999Y-97840800D03*
G04 #@! TO.P,U2,7*
G04 #@! TO.N,Net-(R29-Pad1)*
X142113000Y-97840800D03*
G04 #@! TO.P,U2,8*
G04 #@! TO.N,Net-(R30-Pad2)*
X141613001Y-97840800D03*
D20*
G04 #@! TO.P,U2,9*
G04 #@! TO.N,Net-(U2-Pad9)*
X140512800Y-98440999D03*
G04 #@! TO.P,U2,10*
G04 #@! TO.N,GND*
X140512800Y-98941001D03*
G04 #@! TO.P,U2,11*
G04 #@! TO.N,Net-(U2-Pad11)*
X140512800Y-99441000D03*
G04 #@! TO.P,U2,12*
G04 #@! TO.N,GND*
X140512800Y-99940999D03*
G04 #@! TO.P,U2,13*
G04 #@! TO.N,Net-(U2-Pad13)*
X140512800Y-100441001D03*
D21*
G04 #@! TO.P,U2,14*
G04 #@! TO.N,/3.3V*
X141613001Y-101041200D03*
G04 #@! TO.P,U2,15*
G04 #@! TO.N,Net-(U2-Pad15)*
X142113000Y-101041200D03*
G04 #@! TO.P,U2,16*
G04 #@! TO.N,Net-(U2-Pad16)*
X142612999Y-101041200D03*
G04 #@! TD*
D22*
G04 #@! TO.P,U3,1*
G04 #@! TO.N,Net-(R10-Pad1)*
X172892735Y-66942895D03*
G04 #@! TO.P,U3,2*
G04 #@! TO.N,Net-(R10-Pad2)*
X172892735Y-65672895D03*
G04 #@! TO.P,U3,3*
G04 #@! TO.N,Net-(R7-Pad1)*
X172892735Y-64402895D03*
G04 #@! TO.P,U3,4*
G04 #@! TO.N,GND*
X172892735Y-63132895D03*
G04 #@! TO.P,U3,5*
G04 #@! TO.N,Net-(R21-Pad1)*
X165492735Y-63132895D03*
G04 #@! TO.P,U3,6*
G04 #@! TO.N,Net-(R20-Pad2)*
X165492735Y-64402895D03*
G04 #@! TO.P,U3,7*
G04 #@! TO.N,Net-(R23-Pad1)*
X165492735Y-65672895D03*
G04 #@! TO.P,U3,8*
G04 #@! TO.N,VCC*
X165492735Y-66942895D03*
G04 #@! TD*
G04 #@! TO.P,U4,8*
G04 #@! TO.N,VCC*
X165978087Y-79997614D03*
G04 #@! TO.P,U4,7*
G04 #@! TO.N,Net-(R22-Pad1)*
X165978087Y-78727614D03*
G04 #@! TO.P,U4,6*
G04 #@! TO.N,Net-(R18-Pad2)*
X165978087Y-77457614D03*
G04 #@! TO.P,U4,5*
G04 #@! TO.N,Net-(R19-Pad1)*
X165978087Y-76187614D03*
G04 #@! TO.P,U4,4*
G04 #@! TO.N,GND*
X173378087Y-76187614D03*
G04 #@! TO.P,U4,3*
G04 #@! TO.N,Net-(R9-Pad1)*
X173378087Y-77457614D03*
G04 #@! TO.P,U4,2*
G04 #@! TO.N,Net-(R11-Pad2)*
X173378087Y-78727614D03*
G04 #@! TO.P,U4,1*
G04 #@! TO.N,Net-(R11-Pad1)*
X173378087Y-79997614D03*
G04 #@! TD*
D23*
G04 #@! TO.P,U7,16*
G04 #@! TO.N,VCC*
X139711000Y-75155000D03*
G04 #@! TO.P,U7,15*
G04 #@! TO.N,/red_3*
X140361000Y-75155000D03*
G04 #@! TO.P,U7,14*
G04 #@! TO.N,/red_2*
X141011000Y-75155000D03*
G04 #@! TO.P,U7,13*
G04 #@! TO.N,/red_inA*
X141661000Y-75155000D03*
G04 #@! TO.P,U7,12*
G04 #@! TO.N,/red_1*
X142311000Y-75155000D03*
G04 #@! TO.P,U7,11*
G04 #@! TO.N,/red_4*
X142961000Y-75155000D03*
G04 #@! TO.P,U7,10*
G04 #@! TO.N,/select_0A*
X143611000Y-75155000D03*
G04 #@! TO.P,U7,9*
G04 #@! TO.N,/select_1A*
X144261000Y-75155000D03*
G04 #@! TO.P,U7,8*
G04 #@! TO.N,GND*
X144261000Y-81055000D03*
G04 #@! TO.P,U7,7*
X143611000Y-81055000D03*
G04 #@! TO.P,U7,6*
X142961000Y-81055000D03*
G04 #@! TO.P,U7,5*
G04 #@! TO.N,/blue_2*
X142311000Y-81055000D03*
G04 #@! TO.P,U7,4*
G04 #@! TO.N,/blue_4*
X141661000Y-81055000D03*
G04 #@! TO.P,U7,3*
G04 #@! TO.N,/blue_inA*
X141011000Y-81055000D03*
G04 #@! TO.P,U7,2*
G04 #@! TO.N,/blue_3*
X140361000Y-81055000D03*
G04 #@! TO.P,U7,1*
G04 #@! TO.N,/blue_1*
X139711000Y-81055000D03*
G04 #@! TD*
G04 #@! TO.P,U8,1*
G04 #@! TO.N,/blue_5*
X139711000Y-69752000D03*
G04 #@! TO.P,U8,2*
G04 #@! TO.N,/blue_7*
X140361000Y-69752000D03*
G04 #@! TO.P,U8,3*
G04 #@! TO.N,/blue_inB*
X141011000Y-69752000D03*
G04 #@! TO.P,U8,4*
G04 #@! TO.N,/blue_8*
X141661000Y-69752000D03*
G04 #@! TO.P,U8,5*
G04 #@! TO.N,/blue_6*
X142311000Y-69752000D03*
G04 #@! TO.P,U8,6*
G04 #@! TO.N,GND*
X142961000Y-69752000D03*
G04 #@! TO.P,U8,7*
X143611000Y-69752000D03*
G04 #@! TO.P,U8,8*
X144261000Y-69752000D03*
G04 #@! TO.P,U8,9*
G04 #@! TO.N,/select_1B*
X144261000Y-63852000D03*
G04 #@! TO.P,U8,10*
G04 #@! TO.N,/select_0B*
X143611000Y-63852000D03*
G04 #@! TO.P,U8,11*
G04 #@! TO.N,/red_8*
X142961000Y-63852000D03*
G04 #@! TO.P,U8,12*
G04 #@! TO.N,/red_5*
X142311000Y-63852000D03*
G04 #@! TO.P,U8,13*
G04 #@! TO.N,/red_inB*
X141661000Y-63852000D03*
G04 #@! TO.P,U8,14*
G04 #@! TO.N,/red_6*
X141011000Y-63852000D03*
G04 #@! TO.P,U8,15*
G04 #@! TO.N,/red_7*
X140361000Y-63852000D03*
G04 #@! TO.P,U8,16*
G04 #@! TO.N,VCC*
X139711000Y-63852000D03*
G04 #@! TD*
D24*
G04 #@! TO.P,U9,1*
G04 #@! TO.N,Net-(R26-Pad2)*
X181908801Y-70745401D03*
G04 #@! TO.P,U9,2*
G04 #@! TO.N,GND*
X181908801Y-71395400D03*
G04 #@! TO.P,U9,3*
X181908801Y-72045398D03*
G04 #@! TO.P,U9,4*
G04 #@! TO.N,/motorA+*
X181908801Y-72695399D03*
G04 #@! TO.P,U9,5*
G04 #@! TO.N,GND*
X181908801Y-73345398D03*
G04 #@! TO.P,U9,6*
G04 #@! TO.N,/motorA-*
X181908801Y-73995399D03*
G04 #@! TO.P,U9,7*
G04 #@! TO.N,/motorB-*
X181908801Y-74645398D03*
G04 #@! TO.P,U9,8*
G04 #@! TO.N,GND*
X181908801Y-75295399D03*
G04 #@! TO.P,U9,9*
G04 #@! TO.N,/motorB+*
X181908801Y-75945398D03*
G04 #@! TO.P,U9,10*
G04 #@! TO.N,/motorA_PWM*
X181908801Y-76595399D03*
G04 #@! TO.P,U9,11*
G04 #@! TO.N,/motorB_PWM*
X181908801Y-77245398D03*
G04 #@! TO.P,U9,12*
G04 #@! TO.N,/motorB_DIR*
X181908801Y-77895399D03*
G04 #@! TO.P,U9,13*
G04 #@! TO.N,/motorA_DIR*
X187508799Y-77895399D03*
G04 #@! TO.P,U9,14*
G04 #@! TO.N,Net-(U9-Pad14)*
X187508799Y-77245400D03*
G04 #@! TO.P,U9,15*
G04 #@! TO.N,GND*
X187508799Y-76595399D03*
G04 #@! TO.P,U9,16*
G04 #@! TO.N,/issues*
X187508799Y-75945401D03*
G04 #@! TO.P,U9,17*
G04 #@! TO.N,Net-(C5-Pad1)*
X187508799Y-75295399D03*
G04 #@! TO.P,U9,18*
G04 #@! TO.N,/battery+*
X187508799Y-74645401D03*
G04 #@! TO.P,U9,19*
X187508799Y-73995402D03*
G04 #@! TO.P,U9,20*
G04 #@! TO.N,VCC*
X187508799Y-73345401D03*
G04 #@! TO.P,U9,21*
G04 #@! TO.N,GND*
X187508799Y-72695402D03*
G04 #@! TO.P,U9,22*
G04 #@! TO.N,VCC*
X187508799Y-72045401D03*
G04 #@! TO.P,U9,23*
X187508799Y-71395402D03*
G04 #@! TO.P,U9,24*
X187508799Y-70745401D03*
D25*
G04 #@! TO.P,U9,25*
G04 #@! TO.N,N/C*
X184708800Y-74320400D03*
G04 #@! TD*
D26*
G04 #@! TO.P,U10,1*
G04 #@! TO.N,/RESET*
X150545800Y-100939600D03*
G04 #@! TO.P,U10,28*
G04 #@! TO.N,/SCL*
X150545800Y-93319600D03*
G04 #@! TO.P,U10,2*
G04 #@! TO.N,/select_0A*
X153085800Y-100939600D03*
G04 #@! TO.P,U10,27*
G04 #@! TO.N,/SDA*
X153085800Y-93319600D03*
G04 #@! TO.P,U10,3*
G04 #@! TO.N,/select_1A*
X155625800Y-100939600D03*
G04 #@! TO.P,U10,26*
G04 #@! TO.N,/blue_outB*
X155625800Y-93319600D03*
G04 #@! TO.P,U10,4*
G04 #@! TO.N,/select_0B*
X158165800Y-100939600D03*
G04 #@! TO.P,U10,25*
G04 #@! TO.N,/red_outB*
X158165800Y-93319600D03*
G04 #@! TO.P,U10,5*
G04 #@! TO.N,/select_1B*
X160705800Y-100939600D03*
G04 #@! TO.P,U10,24*
G04 #@! TO.N,/blue_outA*
X160705800Y-93319600D03*
G04 #@! TO.P,U10,6*
G04 #@! TO.N,/motorA_DIR*
X163245800Y-100939600D03*
G04 #@! TO.P,U10,23*
G04 #@! TO.N,/red_outA*
X163245800Y-93319600D03*
G04 #@! TO.P,U10,7*
G04 #@! TO.N,VCC*
X165785800Y-100939600D03*
G04 #@! TO.P,U10,22*
G04 #@! TO.N,GND*
X165785800Y-93319600D03*
G04 #@! TO.P,U10,8*
X168325800Y-100939600D03*
G04 #@! TO.P,U10,21*
G04 #@! TO.N,Net-(U10-Pad21)*
X168325800Y-93319600D03*
G04 #@! TO.P,U10,9*
G04 #@! TO.N,Net-(C2-Pad1)*
X170865800Y-100939600D03*
G04 #@! TO.P,U10,20*
G04 #@! TO.N,Net-(C4-Pad2)*
X170865800Y-93319600D03*
G04 #@! TO.P,U10,10*
G04 #@! TO.N,Net-(C3-Pad1)*
X173405800Y-100939600D03*
G04 #@! TO.P,U10,19*
G04 #@! TO.N,/SCK*
X173405800Y-93319600D03*
G04 #@! TO.P,U10,11*
G04 #@! TO.N,/motorB_DIR*
X175945800Y-100939600D03*
G04 #@! TO.P,U10,18*
G04 #@! TO.N,/MISO*
X175945800Y-93319600D03*
G04 #@! TO.P,U10,12*
G04 #@! TO.N,/issues*
X178485800Y-100939600D03*
G04 #@! TO.P,U10,17*
G04 #@! TO.N,/MOSI*
X178485800Y-93319600D03*
G04 #@! TO.P,U10,13*
G04 #@! TO.N,/led_D1*
X181025800Y-100939600D03*
G04 #@! TO.P,U10,16*
G04 #@! TO.N,/motorB_PWM*
X181025800Y-93319600D03*
G04 #@! TO.P,U10,14*
G04 #@! TO.N,/p_led*
X183565800Y-100939600D03*
G04 #@! TO.P,U10,15*
G04 #@! TO.N,/motorA_PWM*
X183565800Y-93319600D03*
G04 #@! TD*
D27*
G04 #@! TO.P,Y1,1*
G04 #@! TO.N,Net-(C3-Pad1)*
X172808800Y-105405100D03*
G04 #@! TO.P,Y1,2*
G04 #@! TO.N,GND*
X172808800Y-103205100D03*
G04 #@! TO.P,Y1,3*
G04 #@! TO.N,Net-(C2-Pad1)*
X171208800Y-103205100D03*
G04 #@! TO.P,Y1,4*
G04 #@! TO.N,GND*
X171208800Y-105405100D03*
G04 #@! TD*
D28*
G04 #@! TO.P,U6,3*
G04 #@! TO.N,GND*
X141986000Y-90186000D03*
G04 #@! TO.P,U6,2*
G04 #@! TO.N,VCC*
X142936000Y-92186000D03*
G04 #@! TO.P,U6,1*
G04 #@! TO.N,/3.3V*
X141036000Y-92186000D03*
G04 #@! TD*
D12*
G04 #@! TO.P,C8,1*
G04 #@! TO.N,/3.3V*
X138201400Y-100720400D03*
G04 #@! TO.P,C8,2*
G04 #@! TO.N,GND*
X138201400Y-98720400D03*
G04 #@! TD*
D17*
G04 #@! TO.P,R29,2*
G04 #@! TO.N,GND*
X142113000Y-93995200D03*
G04 #@! TO.P,R29,1*
G04 #@! TO.N,Net-(R29-Pad1)*
X142113000Y-95895200D03*
G04 #@! TD*
D18*
G04 #@! TO.P,R30,1*
G04 #@! TO.N,/3.3V*
X138318200Y-96570800D03*
G04 #@! TO.P,R30,2*
G04 #@! TO.N,Net-(R30-Pad2)*
X140218200Y-96570800D03*
G04 #@! TD*
D17*
G04 #@! TO.P,C6,1*
G04 #@! TO.N,VCC*
X189852300Y-70385900D03*
G04 #@! TO.P,C6,2*
G04 #@! TO.N,GND*
X189852300Y-72285900D03*
G04 #@! TD*
D12*
G04 #@! TO.P,C9,2*
G04 #@! TO.N,GND*
X144780000Y-90170000D03*
G04 #@! TO.P,C9,1*
G04 #@! TO.N,VCC*
X144780000Y-92170000D03*
G04 #@! TD*
G04 #@! TO.P,C10,1*
G04 #@! TO.N,/3.3V*
X139192000Y-92170000D03*
G04 #@! TO.P,C10,2*
G04 #@! TO.N,GND*
X139192000Y-90170000D03*
G04 #@! TD*
D17*
G04 #@! TO.P,F1,1*
G04 #@! TO.N,/battery+*
X191008000Y-66228000D03*
G04 #@! TO.P,F1,2*
G04 #@! TO.N,Net-(F1-Pad2)*
X191008000Y-64328000D03*
G04 #@! TD*
D29*
G04 #@! TO.N,GND*
X183750000Y-71400000D03*
X174244000Y-60960000D03*
X144526000Y-97790000D03*
X176784000Y-103378000D03*
X151850000Y-73350000D03*
X143850000Y-71350000D03*
X143750000Y-83000000D03*
X142000000Y-88500000D03*
X144750000Y-88500000D03*
X190900000Y-71450000D03*
X136150000Y-93850000D03*
X173750000Y-75200000D03*
X164350000Y-61900000D03*
X139250000Y-97650000D03*
X184658000Y-79502000D03*
X162052000Y-75184000D03*
X152400000Y-63754000D03*
X151892000Y-76962000D03*
X147066000Y-78486000D03*
X151892000Y-85090000D03*
X156464000Y-81026000D03*
G04 #@! TO.N,VCC*
X184073800Y-70358000D03*
X135382000Y-75946000D03*
X138176000Y-74422000D03*
X138176000Y-93980000D03*
X144272000Y-93726000D03*
X151100000Y-69150000D03*
X151150000Y-63950000D03*
X151150000Y-62450000D03*
X165500000Y-68100000D03*
X167350000Y-70450000D03*
X168750000Y-75750000D03*
X168150000Y-77900000D03*
X165650000Y-81550000D03*
X166750000Y-83900000D03*
X172100000Y-95000000D03*
X169600000Y-98100000D03*
X140208000Y-61976000D03*
X157988000Y-77216000D03*
X157480000Y-60706000D03*
X151130000Y-60198000D03*
X144780000Y-61722000D03*
X159512000Y-81026000D03*
X163068000Y-81026000D03*
X177800000Y-73152000D03*
X188214000Y-82296000D03*
X183388000Y-81788000D03*
X181102801Y-79756000D03*
X179070000Y-79248000D03*
G04 #@! TO.N,/battery+*
X157226000Y-85344000D03*
X162306000Y-86360000D03*
X167894000Y-86360000D03*
X170942000Y-86360000D03*
X176530000Y-84836000D03*
X181102801Y-84074000D03*
X183642000Y-83312000D03*
X190754000Y-82804000D03*
G04 #@! TO.N,/blue_4*
X140850000Y-78750000D03*
X142820067Y-79270067D03*
G04 #@! TO.N,/RESET*
X155650000Y-97600000D03*
X181650000Y-95200000D03*
G04 #@! TO.N,/MOSI*
X181950000Y-91350000D03*
X183700000Y-89650000D03*
G04 #@! TO.N,/SCK*
X176573000Y-90200000D03*
G04 #@! TO.N,/MISO*
X179100000Y-91200000D03*
X181200000Y-89100000D03*
X183750000Y-86600000D03*
G04 #@! TO.N,/SDA*
X147802600Y-97282000D03*
X145542000Y-96977200D03*
G04 #@! TO.N,/3.3V*
X145271509Y-93694615D03*
X151450000Y-87900000D03*
G04 #@! TO.N,/red_inA*
X142748000Y-72644000D03*
X145034000Y-71882000D03*
G04 #@! TO.N,/red_inB*
X141224000Y-65786000D03*
X142748000Y-66548000D03*
G04 #@! TO.N,Net-(R7-Pad1)*
X149923000Y-74700000D03*
X151500000Y-74650000D03*
X161200000Y-72050000D03*
X162950000Y-70300000D03*
G04 #@! TO.N,Net-(R9-Pad1)*
X162750000Y-72700000D03*
X165200000Y-72700000D03*
G04 #@! TO.N,Net-(R10-Pad1)*
X163800000Y-71350000D03*
X161700000Y-73350000D03*
G04 #@! TO.N,Net-(R11-Pad1)*
X159650000Y-85450000D03*
X162000000Y-84500000D03*
G04 #@! TO.N,/blue_inB*
X141029391Y-68291000D03*
X144780000Y-66922933D03*
G04 #@! TO.N,/blue_inA*
X154050000Y-67550000D03*
X150650000Y-72900000D03*
G04 #@! TO.N,Net-(R19-Pad1)*
X158750000Y-62484000D03*
X160020000Y-63754000D03*
G04 #@! TO.N,Net-(R22-Pad1)*
X159756347Y-84318347D03*
X161798000Y-82296000D03*
G04 #@! TO.N,Net-(R23-Pad1)*
X162783234Y-68450000D03*
X160500000Y-73800000D03*
G04 #@! TO.N,/select_0A*
X149860000Y-97790000D03*
X146304000Y-93980000D03*
X144780000Y-78232000D03*
X143256000Y-76708000D03*
G04 #@! TO.N,/select_1A*
X150692051Y-97235299D03*
X147304003Y-93980000D03*
X145542000Y-77470000D03*
X144526000Y-73406000D03*
G04 #@! TO.N,/select_1B*
X144526000Y-65800000D03*
X139700000Y-84074000D03*
X145034000Y-86106000D03*
X147574000Y-87630000D03*
X148844000Y-92710000D03*
X152400000Y-96012000D03*
G04 #@! TO.N,/select_0B*
X151638000Y-96774000D03*
X148141315Y-93433270D03*
X147574000Y-88900000D03*
X145034000Y-87122000D03*
X138684000Y-84328000D03*
X143256000Y-65278000D03*
G04 #@! TO.N,/motorA_DIR*
X180800000Y-98600000D03*
X179400000Y-97800000D03*
G04 #@! TO.N,/issues*
X177300000Y-91450000D03*
X179000000Y-82350000D03*
X185166000Y-77216000D03*
G04 #@! TD*
D30*
G04 #@! TO.N,GND*
X171208800Y-105116498D02*
X171208800Y-105405100D01*
X172808800Y-103516498D02*
X171208800Y-105116498D01*
X172808800Y-103205100D02*
X172808800Y-103516498D01*
X183035802Y-73418399D02*
X182962801Y-73345398D01*
X183035802Y-75222398D02*
X183035802Y-73418399D01*
X182962801Y-75295399D02*
X183035802Y-75222398D01*
X182962801Y-73345398D02*
X181908801Y-73345398D01*
X181908801Y-75295399D02*
X182962801Y-75295399D01*
D31*
X181908801Y-72045398D02*
X181908801Y-71395400D01*
X183118299Y-73316900D02*
X183118299Y-72073896D01*
X183089801Y-72045398D02*
X181908801Y-72045398D01*
X183089801Y-73345398D02*
X183118299Y-73316900D01*
X183118299Y-72073896D02*
X183089801Y-72045398D01*
X181908801Y-73345398D02*
X183089801Y-73345398D01*
X189442798Y-72695402D02*
X187508799Y-72695402D01*
X189852300Y-72285900D02*
X189442798Y-72695402D01*
D30*
X175098235Y-62977395D02*
X175098235Y-62373395D01*
X174942735Y-63132895D02*
X175098235Y-62977395D01*
X172892735Y-63132895D02*
X174942735Y-63132895D01*
X172892735Y-62311265D02*
X174244000Y-60960000D01*
X172892735Y-63132895D02*
X172892735Y-62311265D01*
X175098235Y-61814235D02*
X174244000Y-60960000D01*
X175098235Y-62373395D02*
X175098235Y-61814235D01*
X139067000Y-90170000D02*
X136779000Y-87882000D01*
X136779000Y-87882000D02*
X136779000Y-87376000D01*
X139192000Y-90170000D02*
X139067000Y-90170000D01*
X142002000Y-90170000D02*
X141986000Y-90186000D01*
X144780000Y-90170000D02*
X142002000Y-90170000D01*
X139208000Y-90186000D02*
X139192000Y-90170000D01*
X141986000Y-90186000D02*
X139208000Y-90186000D01*
X141986000Y-93868200D02*
X142113000Y-93995200D01*
X141986000Y-90186000D02*
X141986000Y-93868200D01*
X138422001Y-98941001D02*
X140512800Y-98941001D01*
X138201400Y-98720400D02*
X138422001Y-98941001D01*
X139750800Y-99940999D02*
X140512800Y-99940999D01*
X138530201Y-98720400D02*
X139750800Y-99940999D01*
X138201400Y-98720400D02*
X138530201Y-98720400D01*
X143875001Y-98440999D02*
X144526000Y-97790000D01*
X143713200Y-98440999D02*
X143875001Y-98440999D01*
X167243000Y-102022400D02*
X168325800Y-100939600D01*
X167243000Y-103378000D02*
X167243000Y-102022400D01*
X168981600Y-105241600D02*
X169151300Y-105241600D01*
X167243000Y-103503000D02*
X168981600Y-105241600D01*
X167243000Y-103378000D02*
X167243000Y-103503000D01*
X176711100Y-103305100D02*
X176784000Y-103378000D01*
X174929800Y-103305100D02*
X176711100Y-103305100D01*
X188620400Y-90423349D02*
X188620400Y-89433400D01*
X188620400Y-92441000D02*
X188620400Y-90423349D01*
X186596300Y-94465100D02*
X188620400Y-92441000D01*
X186296300Y-94465100D02*
X186596300Y-94465100D01*
X169314800Y-105405100D02*
X169151300Y-105241600D01*
X171208800Y-105405100D02*
X169314800Y-105405100D01*
X151850000Y-72831000D02*
X151850000Y-73350000D01*
X150622000Y-71603000D02*
X151850000Y-72831000D01*
X150622000Y-71153000D02*
X150622000Y-71603000D01*
X151850000Y-72915000D02*
X151850000Y-73350000D01*
X153162000Y-71603000D02*
X151850000Y-72915000D01*
X153162000Y-71153000D02*
X153162000Y-71603000D01*
X142961000Y-70461000D02*
X143850000Y-71350000D01*
X142961000Y-69752000D02*
X142961000Y-70461000D01*
X143611000Y-71111000D02*
X143850000Y-71350000D01*
X143611000Y-69752000D02*
X143611000Y-71111000D01*
X144261000Y-70939000D02*
X143850000Y-71350000D01*
X144261000Y-69752000D02*
X144261000Y-70939000D01*
X142961000Y-82211000D02*
X143750000Y-83000000D01*
X142961000Y-81055000D02*
X142961000Y-82211000D01*
X143611000Y-82861000D02*
X143750000Y-83000000D01*
X143611000Y-81055000D02*
X143611000Y-82861000D01*
X144261000Y-82489000D02*
X143750000Y-83000000D01*
X144261000Y-81055000D02*
X144261000Y-82489000D01*
X141986000Y-88514000D02*
X142000000Y-88500000D01*
X141986000Y-90186000D02*
X141986000Y-88514000D01*
X144780000Y-88530000D02*
X144750000Y-88500000D01*
X144780000Y-90170000D02*
X144780000Y-88530000D01*
X183745400Y-71395400D02*
X183750000Y-71400000D01*
X181908801Y-71395400D02*
X183745400Y-71395400D01*
X189852300Y-72285900D02*
X190014100Y-72285900D01*
X190064100Y-72285900D02*
X190900000Y-71450000D01*
X189852300Y-72285900D02*
X190064100Y-72285900D01*
D32*
X175398235Y-62373395D02*
X175098235Y-62373395D01*
X187604400Y-60757451D02*
X187604400Y-61747400D01*
D30*
X135280400Y-92980400D02*
X136150000Y-93850000D01*
X135280400Y-92271600D02*
X135280400Y-92980400D01*
X173914614Y-75364614D02*
X173750000Y-75200000D01*
X175583587Y-75364614D02*
X173914614Y-75364614D01*
X173378087Y-75571913D02*
X173750000Y-75200000D01*
X173378087Y-76187614D02*
X173378087Y-75571913D01*
X163542000Y-61092000D02*
X164350000Y-61900000D01*
X163033235Y-61092000D02*
X163542000Y-61092000D01*
X165785800Y-91322400D02*
X166014400Y-91093800D01*
X165785800Y-93319600D02*
X165785800Y-91322400D01*
D33*
X138201400Y-98698600D02*
X139250000Y-97650000D01*
X138201400Y-98720400D02*
X138201400Y-98698600D01*
D30*
X186055000Y-79334600D02*
X186055000Y-80238600D01*
X186055000Y-76995198D02*
X186055000Y-79334600D01*
X186454799Y-76595399D02*
X186055000Y-76995198D01*
X187508799Y-76595399D02*
X186454799Y-76595399D01*
X185394600Y-80238600D02*
X184658000Y-79502000D01*
X186055000Y-80238600D02*
X185394600Y-80238600D01*
X163141386Y-74094614D02*
X162052000Y-75184000D01*
X163709087Y-74094614D02*
X163141386Y-74094614D01*
X150622000Y-65753000D02*
X151892000Y-65753000D01*
X153162000Y-65753000D02*
X151892000Y-65753000D01*
X151892000Y-64262000D02*
X152400000Y-63754000D01*
X151892000Y-65753000D02*
X151892000Y-64262000D01*
D32*
X151892000Y-81026000D02*
X151892000Y-76962000D01*
X149606000Y-81026000D02*
X147066000Y-78486000D01*
X151892000Y-81026000D02*
X149606000Y-81026000D01*
X151892000Y-81026000D02*
X151892000Y-85090000D01*
X151892000Y-81026000D02*
X156464000Y-81026000D01*
D31*
G04 #@! TO.N,VCC*
X185531800Y-68768402D02*
X187508799Y-70745401D01*
X185531800Y-68732400D02*
X185531800Y-68768402D01*
X187508799Y-70745401D02*
X187508799Y-71395402D01*
X187508799Y-71395402D02*
X187508799Y-72045401D01*
X189492799Y-70745401D02*
X189852300Y-70385900D01*
X187508799Y-70745401D02*
X189492799Y-70745401D01*
X185531800Y-68900000D02*
X184073800Y-70358000D01*
X185531800Y-68732400D02*
X185531800Y-68900000D01*
D30*
X134239000Y-83815962D02*
X133096000Y-82672962D01*
X134239000Y-84836000D02*
X134239000Y-83815962D01*
X133096000Y-82672962D02*
X133096000Y-76454000D01*
X133604000Y-75946000D02*
X135382000Y-75946000D01*
X133096000Y-76454000D02*
X133604000Y-75946000D01*
X138978000Y-74422000D02*
X139711000Y-75155000D01*
X138176000Y-74422000D02*
X138978000Y-74422000D01*
X144764000Y-92186000D02*
X144780000Y-92170000D01*
X142936000Y-92186000D02*
X144764000Y-92186000D01*
X135280400Y-89517600D02*
X135280400Y-90271600D01*
X138176000Y-93042200D02*
X138176000Y-93980000D01*
X135280400Y-90271600D02*
X135405400Y-90271600D01*
X144272000Y-92678000D02*
X144780000Y-92170000D01*
X144272000Y-93726000D02*
X144272000Y-92678000D01*
X151892000Y-69942000D02*
X151100000Y-69150000D01*
X151892000Y-71153000D02*
X151892000Y-69942000D01*
X151150000Y-63950000D02*
X151150000Y-62450000D01*
X186381798Y-71468403D02*
X186454799Y-71395402D01*
X186381798Y-73281798D02*
X186381798Y-71468403D01*
X186445401Y-73345401D02*
X186381798Y-73281798D01*
X186454799Y-71395402D02*
X187508799Y-71395402D01*
X187508799Y-73345401D02*
X186445401Y-73345401D01*
X164489000Y-103378000D02*
X165243000Y-103378000D01*
X165492735Y-68092735D02*
X165500000Y-68100000D01*
X165492735Y-66942895D02*
X165492735Y-68092735D01*
D32*
X167350000Y-74350000D02*
X168750000Y-75750000D01*
X167350000Y-70450000D02*
X167350000Y-74350000D01*
X166578087Y-79997614D02*
X165978087Y-79997614D01*
X165700000Y-81550000D02*
X165650000Y-81550000D01*
X169519600Y-86669600D02*
X169519600Y-89143800D01*
X166750000Y-83900000D02*
X169519600Y-86669600D01*
X169519600Y-90239799D02*
X170532801Y-90239799D01*
X170532801Y-90239799D02*
X172100000Y-91806998D01*
X169519600Y-89143800D02*
X169519600Y-90239799D01*
X172100000Y-91806998D02*
X172100000Y-95000000D01*
X168625400Y-98100000D02*
X165785800Y-100939600D01*
X169600000Y-98100000D02*
X168625400Y-98100000D01*
X165243000Y-101482400D02*
X165785800Y-100939600D01*
X165243000Y-103378000D02*
X165243000Y-101482400D01*
X147705800Y-99354600D02*
X148005800Y-99354600D01*
X146847800Y-100212600D02*
X147705800Y-99354600D01*
X146847800Y-101913802D02*
X146847800Y-100212600D01*
X165243000Y-103378000D02*
X148311998Y-103378000D01*
X138176000Y-93414315D02*
X138176000Y-93980000D01*
X138112999Y-93351314D02*
X138176000Y-93414315D01*
X138112999Y-91971199D02*
X138112999Y-93351314D01*
X136413400Y-90271600D02*
X138112999Y-91971199D01*
X135280400Y-90271600D02*
X136413400Y-90271600D01*
X138054800Y-102516002D02*
X147450000Y-102516002D01*
X136668389Y-101129591D02*
X138054800Y-102516002D01*
X136668389Y-96403409D02*
X136668389Y-101129591D01*
X138176000Y-94895798D02*
X136668389Y-96403409D01*
X138176000Y-93980000D02*
X138176000Y-94895798D01*
X148311998Y-103378000D02*
X147450000Y-102516002D01*
X147450000Y-102516002D02*
X146847800Y-101913802D01*
X135393001Y-89150999D02*
X135280400Y-89263600D01*
X135280400Y-89263600D02*
X135280400Y-90271600D01*
X134792921Y-86221999D02*
X135393001Y-86822079D01*
X134635050Y-86221999D02*
X134792921Y-86221999D01*
X134239000Y-85825949D02*
X134635050Y-86221999D01*
X134239000Y-84836000D02*
X134239000Y-85825949D01*
X135393001Y-87054077D02*
X135393001Y-87376000D01*
X136779000Y-85668078D02*
X135393001Y-87054077D01*
X136779000Y-84836000D02*
X136779000Y-85668078D01*
X135393001Y-86822079D02*
X135393001Y-87376000D01*
X135393001Y-87376000D02*
X135393001Y-89150999D01*
X139446000Y-63587000D02*
X139681999Y-63822999D01*
X139446000Y-62738000D02*
X139446000Y-63587000D01*
X140208000Y-61976000D02*
X139446000Y-62738000D01*
X158000700Y-77228700D02*
X157988000Y-77216000D01*
X158000700Y-78775999D02*
X158000700Y-77228700D01*
X157480000Y-60706000D02*
X156972000Y-60198000D01*
X156972000Y-60198000D02*
X151130000Y-60198000D01*
X146304000Y-60198000D02*
X144780000Y-61722000D01*
X151130000Y-60198000D02*
X146304000Y-60198000D01*
X158000700Y-79514700D02*
X159512000Y-81026000D01*
X158000700Y-78775999D02*
X158000700Y-79514700D01*
X165126000Y-81026000D02*
X165650000Y-81550000D01*
X163068000Y-81026000D02*
X165126000Y-81026000D01*
X171913685Y-73152000D02*
X177800000Y-73152000D01*
X169315685Y-75750000D02*
X171913685Y-73152000D01*
X168750000Y-75750000D02*
X169315685Y-75750000D01*
X188620400Y-82702400D02*
X188214000Y-82296000D01*
X188620400Y-84353400D02*
X188620400Y-82702400D01*
X183134801Y-81788000D02*
X181102801Y-79756000D01*
X183388000Y-81788000D02*
X183134801Y-81788000D01*
X179070000Y-79248000D02*
X177800000Y-77978000D01*
X177800000Y-77978000D02*
X177800000Y-73152000D01*
X168150000Y-79246000D02*
X167398386Y-79997614D01*
X167398386Y-79997614D02*
X165978087Y-79997614D01*
X168150000Y-77900000D02*
X168150000Y-79246000D01*
X165978087Y-80780614D02*
X165978087Y-79997614D01*
X165732701Y-81026000D02*
X165978087Y-80780614D01*
X165126000Y-81026000D02*
X165732701Y-81026000D01*
D30*
G04 #@! TO.N,Net-(C2-Pad1)*
X171208800Y-101282600D02*
X170865800Y-100939600D01*
X171208800Y-103205100D02*
X171208800Y-101282600D01*
X169187800Y-103205100D02*
X169151300Y-103241600D01*
X171208800Y-103205100D02*
X169187800Y-103205100D01*
G04 #@! TO.N,Net-(C3-Pad1)*
X173405800Y-101858838D02*
X173405800Y-100939600D01*
X173735801Y-104378099D02*
X173735801Y-102188839D01*
X172808800Y-105305100D02*
X173735801Y-104378099D01*
X173735801Y-102188839D02*
X173405800Y-101858838D01*
X172808800Y-105405100D02*
X172808800Y-105305100D01*
X174829800Y-105405100D02*
X174929800Y-105305100D01*
X172808800Y-105405100D02*
X174829800Y-105405100D01*
G04 #@! TO.N,Net-(C4-Pad2)*
X169219600Y-91043800D02*
X169519600Y-91043800D01*
X168615600Y-90139800D02*
X168615600Y-90439800D01*
X167569600Y-89093800D02*
X168615600Y-90139800D01*
X168615600Y-90439800D02*
X169219600Y-91043800D01*
X166014400Y-89093800D02*
X167569600Y-89093800D01*
X170865800Y-92400362D02*
X170865800Y-93319600D01*
X170865800Y-91486000D02*
X170865800Y-92400362D01*
X170423600Y-91043800D02*
X170865800Y-91486000D01*
X169519600Y-91043800D02*
X170423600Y-91043800D01*
D31*
G04 #@! TO.N,Net-(C5-Pad1)*
X189192299Y-75295399D02*
X187508799Y-75295399D01*
X189852300Y-75955400D02*
X189192299Y-75295399D01*
D32*
G04 #@! TO.N,/battery+*
X191770000Y-69900800D02*
X191770000Y-73279000D01*
X191093600Y-73955400D02*
X189852300Y-73955400D01*
X191770000Y-73279000D02*
X191093600Y-73955400D01*
X188198800Y-73955400D02*
X187508799Y-74645401D01*
X189852300Y-73955400D02*
X188198800Y-73955400D01*
D31*
X190858300Y-73955400D02*
X191135000Y-74232100D01*
X189852300Y-73955400D02*
X190858300Y-73955400D01*
X190795200Y-78089400D02*
X189814200Y-78089400D01*
X191135000Y-77749600D02*
X190795200Y-78089400D01*
X191135000Y-74232100D02*
X191135000Y-77749600D01*
D32*
X191008000Y-69138800D02*
X191770000Y-69900800D01*
X191008000Y-66228000D02*
X191008000Y-69138800D01*
X158000700Y-84569300D02*
X157226000Y-85344000D01*
X158000700Y-83276001D02*
X158000700Y-84569300D01*
X162306000Y-86360000D02*
X167894000Y-86360000D01*
X175006000Y-86360000D02*
X176530000Y-84836000D01*
X170942000Y-86360000D02*
X175006000Y-86360000D01*
X182880000Y-84074000D02*
X183642000Y-83312000D01*
X181102801Y-84074000D02*
X182880000Y-84074000D01*
X191153999Y-78321199D02*
X190922200Y-78089400D01*
X190922200Y-78089400D02*
X189814200Y-78089400D01*
X191153999Y-82404001D02*
X191153999Y-78321199D01*
X190754000Y-82804000D02*
X191153999Y-82404001D01*
D30*
G04 #@! TO.N,Net-(D1-Pad1)*
X189763400Y-80238600D02*
X189814200Y-80289400D01*
X187955000Y-80238600D02*
X189763400Y-80238600D01*
G04 #@! TO.N,Net-(D2-Pad1)*
X186296300Y-98188600D02*
X186296300Y-96365100D01*
G04 #@! TO.N,/p_led*
X185745300Y-100939600D02*
X186296300Y-100388600D01*
X183565800Y-100939600D02*
X185745300Y-100939600D01*
G04 #@! TO.N,/red_8*
X134239000Y-63562000D02*
X136714000Y-61087000D01*
X134239000Y-64516000D02*
X134239000Y-63562000D01*
X141200000Y-61087000D02*
X142961000Y-62848000D01*
X142961000Y-62848000D02*
X142961000Y-63852000D01*
X136714000Y-61087000D02*
X141200000Y-61087000D01*
G04 #@! TO.N,/red_7*
X137478999Y-65215999D02*
X140001001Y-65215999D01*
X140361000Y-64856000D02*
X140361000Y-63852000D01*
X140001001Y-65215999D02*
X140361000Y-64856000D01*
X136779000Y-64516000D02*
X137478999Y-65215999D01*
G04 #@! TO.N,/red_6*
X141011000Y-64856000D02*
X141011000Y-63852000D01*
X135624991Y-65670009D02*
X140196991Y-65670009D01*
X140196991Y-65670009D02*
X141011000Y-64856000D01*
X134239000Y-67056000D02*
X135624991Y-65670009D01*
G04 #@! TO.N,/red_5*
X142311000Y-64856000D02*
X142311000Y-63852000D01*
X142311000Y-65774962D02*
X142311000Y-64856000D01*
X141029962Y-67056000D02*
X142311000Y-65774962D01*
X136779000Y-67056000D02*
X141029962Y-67056000D01*
G04 #@! TO.N,/red_4*
X140699027Y-73617011D02*
X142399039Y-71916999D01*
X135297989Y-73617011D02*
X140699027Y-73617011D01*
X142399039Y-71916999D02*
X143290999Y-71916999D01*
X134239000Y-74676000D02*
X135297989Y-73617011D01*
X143475001Y-73636999D02*
X142961000Y-74151000D01*
X143475001Y-72101001D02*
X143475001Y-73636999D01*
X142961000Y-74151000D02*
X142961000Y-75155000D01*
X143290999Y-71916999D02*
X143475001Y-72101001D01*
G04 #@! TO.N,/red_3*
X136779000Y-75665949D02*
X136779000Y-74676000D01*
X136805051Y-75692000D02*
X136779000Y-75665949D01*
X137417028Y-75692000D02*
X136805051Y-75692000D01*
X140361000Y-75155000D02*
X140361000Y-76068602D01*
X139854074Y-76575528D02*
X138300556Y-76575528D01*
X140361000Y-76068602D02*
X139854074Y-76575528D01*
X138300556Y-76575528D02*
X137417028Y-75692000D01*
G04 #@! TO.N,/blue_8*
X141661000Y-68748000D02*
X141661000Y-69752000D01*
X141756392Y-68652608D02*
X141661000Y-68748000D01*
X141731999Y-67563999D02*
X141756392Y-67588392D01*
X140680430Y-67563999D02*
X141731999Y-67563999D01*
X135614011Y-68220989D02*
X140023440Y-68220989D01*
X141756392Y-67588392D02*
X141756392Y-68652608D01*
X140023440Y-68220989D02*
X140680430Y-67563999D01*
X134239000Y-69596000D02*
X135614011Y-68220989D01*
G04 #@! TO.N,/red_2*
X137271961Y-76188999D02*
X138112500Y-77029538D01*
X136255950Y-76188999D02*
X137271961Y-76188999D01*
X135228949Y-77216000D02*
X136255950Y-76188999D01*
X134239000Y-77216000D02*
X135228949Y-77216000D01*
X141011000Y-76159000D02*
X141011000Y-75155000D01*
X140140462Y-77029538D02*
X141011000Y-76159000D01*
X138112500Y-77029538D02*
X140140462Y-77029538D01*
G04 #@! TO.N,/blue_4*
X134239000Y-79756000D02*
X135259038Y-79756000D01*
X135259038Y-79756000D02*
X136286039Y-78728999D01*
X136286039Y-78728999D02*
X140828999Y-78728999D01*
X140828999Y-78728999D02*
X140850000Y-78750000D01*
X141563001Y-80957001D02*
X141661000Y-81055000D01*
X141872001Y-79977999D02*
X141563001Y-80286999D01*
X141563001Y-80286999D02*
X141563001Y-80957001D01*
X142112135Y-79977999D02*
X141872001Y-79977999D01*
X142820067Y-79270067D02*
X142112135Y-79977999D01*
G04 #@! TO.N,/blue_6*
X142311000Y-70756000D02*
X142311000Y-69752000D01*
X139903999Y-73163001D02*
X142311000Y-70756000D01*
X134276052Y-73163001D02*
X139903999Y-73163001D01*
X134239000Y-73125949D02*
X134276052Y-73163001D01*
X134239000Y-72136000D02*
X134239000Y-73125949D01*
G04 #@! TO.N,/blue_2*
X142311000Y-82059000D02*
X142311000Y-81055000D01*
X141046999Y-83323001D02*
X142311000Y-82059000D01*
X135266001Y-83323001D02*
X141046999Y-83323001D01*
X134239000Y-82296000D02*
X135266001Y-83323001D01*
G04 #@! TO.N,Net-(J1-Pad19)*
X133324600Y-88290400D02*
X134239000Y-87376000D01*
X133324600Y-90119200D02*
X133324600Y-88290400D01*
G04 #@! TO.N,/blue_3*
X140361000Y-80051000D02*
X140361000Y-81055000D01*
X140066000Y-79756000D02*
X140361000Y-80051000D01*
X136779000Y-79756000D02*
X140066000Y-79756000D01*
G04 #@! TO.N,/blue_5*
X139163000Y-69752000D02*
X139711000Y-69752000D01*
X136779000Y-72136000D02*
X139163000Y-69752000D01*
G04 #@! TO.N,/red_1*
X142311000Y-76159000D02*
X142311000Y-75155000D01*
X137478999Y-77915999D02*
X140554001Y-77915999D01*
X140554001Y-77915999D02*
X142311000Y-76159000D01*
X136779000Y-77216000D02*
X137478999Y-77915999D01*
G04 #@! TO.N,/blue_7*
X140361000Y-68748000D02*
X140361000Y-69752000D01*
X140287999Y-68674999D02*
X140361000Y-68748000D01*
X138689950Y-68674999D02*
X140287999Y-68674999D01*
X137768949Y-69596000D02*
X138689950Y-68674999D01*
X136779000Y-69596000D02*
X137768949Y-69596000D01*
G04 #@! TO.N,/blue_1*
X138020000Y-81055000D02*
X139711000Y-81055000D01*
X136779000Y-82296000D02*
X138020000Y-81055000D01*
D31*
G04 #@! TO.N,/motorA+*
X182524400Y-65368400D02*
X182524400Y-64287400D01*
X180718300Y-67174500D02*
X182524400Y-65368400D01*
X180718300Y-72685898D02*
X180718300Y-67174500D01*
X180727801Y-72695399D02*
X180718300Y-72685898D01*
X181908801Y-72695399D02*
X180727801Y-72695399D01*
G04 #@! TO.N,/motorA-*
X181824401Y-62447399D02*
X182524400Y-61747400D01*
X180087290Y-64184510D02*
X181824401Y-62447399D01*
X180087290Y-73354888D02*
X180087290Y-64184510D01*
X180727801Y-73995399D02*
X180087290Y-73354888D01*
X181908801Y-73995399D02*
X180727801Y-73995399D01*
G04 #@! TO.N,/motorB+*
X186204901Y-63146899D02*
X185764399Y-63587401D01*
X186204901Y-61199959D02*
X186204901Y-63146899D01*
X185030831Y-60025889D02*
X186204901Y-61199959D01*
X181739587Y-60025889D02*
X185030831Y-60025889D01*
X185764399Y-63587401D02*
X185064400Y-64287400D01*
X180905898Y-75945398D02*
X178875270Y-73914770D01*
X178875270Y-62890206D02*
X181739587Y-60025889D01*
X178875270Y-73914770D02*
X178875270Y-62890206D01*
X181908801Y-75945398D02*
X180905898Y-75945398D01*
G04 #@! TO.N,/motorB-*
X179506280Y-63151578D02*
X182000959Y-60656899D01*
X179506280Y-73595550D02*
X179506280Y-63151578D01*
X180556128Y-74645398D02*
X179506280Y-73595550D01*
X184364401Y-61047401D02*
X185064400Y-61747400D01*
X183973899Y-60656899D02*
X184364401Y-61047401D01*
X182000959Y-60656899D02*
X183973899Y-60656899D01*
X181908801Y-74645398D02*
X180556128Y-74645398D01*
D30*
G04 #@! TO.N,/RESET*
X148320800Y-100939600D02*
X148005800Y-101254600D01*
X150545800Y-100939600D02*
X148320800Y-100939600D01*
X156215685Y-97600000D02*
X157665685Y-96150000D01*
X155650000Y-97600000D02*
X156215685Y-97600000D01*
X157665685Y-96150000D02*
X167650000Y-96150000D01*
X180672938Y-95200000D02*
X181650000Y-95200000D01*
X179722938Y-96150000D02*
X180672938Y-95200000D01*
X167650000Y-96150000D02*
X179722938Y-96150000D01*
G04 #@! TO.N,/MOSI*
X182000000Y-91350000D02*
X183700000Y-89650000D01*
X181950000Y-91350000D02*
X182000000Y-91350000D01*
G04 #@! TO.N,/SCK*
X176525400Y-90200000D02*
X176573000Y-90200000D01*
X173405800Y-93319600D02*
X176525400Y-90200000D01*
G04 #@! TO.N,/MISO*
X176980400Y-93319600D02*
X179100000Y-91200000D01*
X175945800Y-93319600D02*
X176980400Y-93319600D01*
X183700000Y-86600000D02*
X183750000Y-86600000D01*
X181200000Y-89100000D02*
X183700000Y-86600000D01*
G04 #@! TO.N,/SDA*
X149123400Y-97282000D02*
X147802600Y-97282000D01*
X153085800Y-93319600D02*
X149123400Y-97282000D01*
X142612999Y-97459800D02*
X142612999Y-97840800D01*
X143095599Y-96977200D02*
X142612999Y-97459800D01*
X145542000Y-96977200D02*
X143095599Y-96977200D01*
X153085800Y-91285100D02*
X152895300Y-91094600D01*
X153085800Y-93319600D02*
X153085800Y-91285100D01*
G04 #@! TO.N,/3.3V*
X141020000Y-92170000D02*
X141036000Y-92186000D01*
X139192000Y-92170000D02*
X141020000Y-92170000D01*
X138922200Y-96570800D02*
X138318200Y-96570800D01*
X139192000Y-96301000D02*
X138922200Y-96570800D01*
X139192000Y-92170000D02*
X139192000Y-96301000D01*
X139889397Y-101041200D02*
X141613001Y-101041200D01*
X139568597Y-100720400D02*
X139889397Y-101041200D01*
X138201400Y-100720400D02*
X139568597Y-100720400D01*
X137249399Y-100165399D02*
X137804400Y-100720400D01*
X137249399Y-97035601D02*
X137249399Y-100165399D01*
X137714200Y-96570800D02*
X137249399Y-97035601D01*
X137804400Y-100720400D02*
X138201400Y-100720400D01*
X138318200Y-96570800D02*
X137714200Y-96570800D01*
X141613001Y-101803200D02*
X141613001Y-101041200D01*
X141686002Y-101876201D02*
X141613001Y-101803200D01*
X143001600Y-101876201D02*
X141686002Y-101876201D01*
X143713200Y-101164601D02*
X143001600Y-101876201D01*
X143713200Y-100441001D02*
X143713200Y-101164601D01*
X141036000Y-92186000D02*
X141036000Y-94506802D01*
X141036000Y-94506802D02*
X141201399Y-94672201D01*
X145271509Y-93802453D02*
X145271509Y-93694615D01*
X141201399Y-94672201D02*
X144401761Y-94672201D01*
X144401761Y-94672201D02*
X145271509Y-93802453D01*
X151450000Y-88163400D02*
X150418800Y-89194600D01*
X151450000Y-87900000D02*
X151450000Y-88163400D01*
X151600700Y-87900000D02*
X152895300Y-89194600D01*
X151450000Y-87900000D02*
X151600700Y-87900000D01*
G04 #@! TO.N,/SCL*
X144924399Y-98941001D02*
X143713200Y-98941001D01*
X150545800Y-93319600D02*
X144924399Y-98941001D01*
X150545800Y-91221600D02*
X150418800Y-91094600D01*
X150545800Y-93319600D02*
X150545800Y-91221600D01*
G04 #@! TO.N,/led_D1*
X180375801Y-101589599D02*
X181025800Y-100939600D01*
X175533299Y-106432101D02*
X180375801Y-101589599D01*
X161517899Y-104200000D02*
X163750000Y-106432101D01*
X138917126Y-104200000D02*
X161517899Y-104200000D01*
X133324600Y-98607474D02*
X138917126Y-104200000D01*
X163750000Y-106432101D02*
X175533299Y-106432101D01*
X133324600Y-92019200D02*
X133324600Y-98607474D01*
G04 #@! TO.N,/red_inA*
X149159000Y-71346000D02*
X149352000Y-71153000D01*
X149159000Y-73152000D02*
X149159000Y-71346000D01*
X141661000Y-73731000D02*
X142748000Y-72644000D01*
X141661000Y-75155000D02*
X141661000Y-73731000D01*
X149352000Y-70703000D02*
X149352000Y-71153000D01*
X148724999Y-70075999D02*
X149352000Y-70703000D01*
X146840001Y-70075999D02*
X148724999Y-70075999D01*
X145034000Y-71882000D02*
X146840001Y-70075999D01*
G04 #@! TO.N,Net-(R4-Pad1)*
X147528000Y-71153000D02*
X148082000Y-71153000D01*
X147259000Y-71422000D02*
X147528000Y-71153000D01*
X147259000Y-73152000D02*
X147259000Y-71422000D01*
X147259000Y-75057000D02*
X147259000Y-73152000D01*
G04 #@! TO.N,Net-(R5-Pad1)*
X155763000Y-71214000D02*
X155702000Y-71153000D01*
X155763000Y-73152000D02*
X155763000Y-71214000D01*
X155951000Y-73340000D02*
X155763000Y-73152000D01*
X157543500Y-73340000D02*
X155951000Y-73340000D01*
G04 #@! TO.N,/red_inB*
X153863000Y-73152000D02*
X153924000Y-73152000D01*
X154432000Y-72644000D02*
X154432000Y-71153000D01*
X153924000Y-73152000D02*
X154432000Y-72644000D01*
X141661000Y-65349000D02*
X141224000Y-65786000D01*
X141661000Y-63852000D02*
X141661000Y-65349000D01*
X142748000Y-66548000D02*
X144526000Y-68326000D01*
X154432000Y-70703000D02*
X154432000Y-71153000D01*
X152055000Y-68326000D02*
X154432000Y-70703000D01*
X144526000Y-68326000D02*
X152055000Y-68326000D01*
G04 #@! TO.N,Net-(R10-Pad2)*
X175098235Y-64273395D02*
X175098235Y-65802395D01*
X174968735Y-65672895D02*
X175098235Y-65802395D01*
X172892735Y-65672895D02*
X174968735Y-65672895D01*
G04 #@! TO.N,Net-(R7-Pad1)*
X149566000Y-75057000D02*
X149923000Y-74700000D01*
X149159000Y-75057000D02*
X149566000Y-75057000D01*
X158600000Y-74650000D02*
X161200000Y-72050000D01*
X151500000Y-74650000D02*
X158600000Y-74650000D01*
X162950000Y-70300000D02*
X164100000Y-69150000D01*
X164100000Y-69150000D02*
X166100000Y-69150000D01*
X170847105Y-64402895D02*
X172892735Y-64402895D01*
X166100000Y-69150000D02*
X170847105Y-64402895D01*
G04 #@! TO.N,Net-(R11-Pad2)*
X175583587Y-77264614D02*
X175583587Y-78857114D01*
X175454087Y-78727614D02*
X175583587Y-78857114D01*
X173378087Y-78727614D02*
X175454087Y-78727614D01*
G04 #@! TO.N,Net-(R9-Pad1)*
X158787500Y-71100000D02*
X161300000Y-71100000D01*
X158447500Y-71440000D02*
X158787500Y-71100000D01*
X157543500Y-71440000D02*
X158447500Y-71440000D01*
X162750000Y-72550000D02*
X162750000Y-72700000D01*
X161300000Y-71100000D02*
X162750000Y-72550000D01*
X172249087Y-77457614D02*
X173378087Y-77457614D01*
X165200000Y-73354859D02*
X169302755Y-77457614D01*
X169302755Y-77457614D02*
X172249087Y-77457614D01*
X165200000Y-72700000D02*
X165200000Y-73354859D01*
G04 #@! TO.N,Net-(R10-Pad1)*
X173123235Y-67702395D02*
X174194235Y-67702395D01*
X174194235Y-67702395D02*
X175098235Y-67702395D01*
X172892735Y-67471895D02*
X173123235Y-67702395D01*
X172892735Y-66942895D02*
X172892735Y-67471895D01*
X169781143Y-66942895D02*
X165374038Y-71350000D01*
X165374038Y-71350000D02*
X163800000Y-71350000D01*
X172892735Y-66942895D02*
X169781143Y-66942895D01*
X161700000Y-73915685D02*
X161050000Y-74565685D01*
X161700000Y-73350000D02*
X161700000Y-73915685D01*
X163245800Y-88590600D02*
X163245800Y-89194600D01*
X161050000Y-86394800D02*
X163245800Y-88590600D01*
X161050000Y-74565685D02*
X161050000Y-86394800D01*
G04 #@! TO.N,Net-(R11-Pad1)*
X175428087Y-79997614D02*
X175583587Y-80153114D01*
X175583587Y-80153114D02*
X175583587Y-80757114D01*
X173378087Y-79997614D02*
X175428087Y-79997614D01*
D33*
X158165800Y-86934200D02*
X159650000Y-85450000D01*
X158165800Y-89194600D02*
X158165800Y-86934200D01*
X169202386Y-79997614D02*
X173378087Y-79997614D01*
X164700000Y-84500000D02*
X169202386Y-79997614D01*
X162000000Y-84500000D02*
X164700000Y-84500000D01*
D30*
G04 #@! TO.N,/red_outA*
X163245800Y-93319600D02*
X163245800Y-91094600D01*
G04 #@! TO.N,/red_outB*
X158165800Y-93319600D02*
X158165800Y-91094600D01*
G04 #@! TO.N,/blue_inB*
X149286000Y-65687000D02*
X149352000Y-65753000D01*
X149286000Y-63754000D02*
X149286000Y-65687000D01*
X141011000Y-68309391D02*
X141029391Y-68291000D01*
X141011000Y-69752000D02*
X141011000Y-68309391D01*
X149352000Y-66203000D02*
X149352000Y-65753000D01*
X148632067Y-66922933D02*
X149352000Y-66203000D01*
X148632067Y-66922933D02*
X144780000Y-66922933D01*
G04 #@! TO.N,Net-(R16-Pad1)*
X147528000Y-65753000D02*
X148082000Y-65753000D01*
X147386000Y-65611000D02*
X147528000Y-65753000D01*
X147386000Y-63754000D02*
X147386000Y-65611000D01*
X147447000Y-63693000D02*
X147386000Y-63754000D01*
X147447000Y-61722000D02*
X147447000Y-63693000D01*
G04 #@! TO.N,Net-(R17-Pad1)*
X156398000Y-64135000D02*
X157607000Y-65344000D01*
X156398000Y-63754000D02*
X156398000Y-64135000D01*
X156111000Y-65344000D02*
X155702000Y-65753000D01*
X157607000Y-65344000D02*
X156111000Y-65344000D01*
G04 #@! TO.N,/blue_inA*
X154432000Y-63820000D02*
X154498000Y-63754000D01*
X154432000Y-65753000D02*
X154432000Y-63820000D01*
X154432000Y-67056000D02*
X153924000Y-67564000D01*
X154432000Y-65753000D02*
X154432000Y-67056000D01*
X150650000Y-72900000D02*
X150650000Y-75438602D01*
X149343603Y-76756397D02*
X150650000Y-75450000D01*
X141011000Y-81055000D02*
X141011000Y-80051000D01*
X141011000Y-80051000D02*
X144319001Y-76742999D01*
X144319001Y-76742999D02*
X149330205Y-76742999D01*
X149330205Y-76742999D02*
X149343603Y-76756397D01*
G04 #@! TO.N,Net-(R18-Pad2)*
X165785087Y-77650614D02*
X165978087Y-77457614D01*
X163709087Y-77650614D02*
X165785087Y-77650614D01*
X163709087Y-75994614D02*
X163709087Y-77650614D01*
G04 #@! TO.N,Net-(R19-Pad1)*
X157988000Y-61722000D02*
X158750000Y-62484000D01*
X149347000Y-61722000D02*
X157988000Y-61722000D01*
X166116000Y-76049701D02*
X165978087Y-76187614D01*
X166116000Y-74912925D02*
X166116000Y-76049701D01*
X162056234Y-70853159D02*
X166116000Y-74912925D01*
X162056234Y-65790234D02*
X162056234Y-70853159D01*
X160020000Y-63754000D02*
X162056234Y-65790234D01*
G04 #@! TO.N,Net-(R20-Pad2)*
X163033235Y-62992000D02*
X163033235Y-64468895D01*
X163099235Y-64402895D02*
X163033235Y-64468895D01*
X165492735Y-64402895D02*
X163099235Y-64402895D01*
G04 #@! TO.N,Net-(R21-Pad1)*
X158584001Y-66566999D02*
X157907000Y-67244000D01*
X158584001Y-63919999D02*
X158584001Y-66566999D01*
X163727837Y-60198000D02*
X162306000Y-60198000D01*
X162306000Y-60198000D02*
X158584001Y-63919999D01*
X165492735Y-61962898D02*
X163727837Y-60198000D01*
X157907000Y-67244000D02*
X157607000Y-67244000D01*
X165492735Y-63132895D02*
X165492735Y-61962898D01*
G04 #@! TO.N,Net-(R22-Pad1)*
X164849087Y-78727614D02*
X165978087Y-78727614D01*
X163928087Y-78727614D02*
X164849087Y-78727614D01*
X163709087Y-78946614D02*
X163928087Y-78727614D01*
X163709087Y-79550614D02*
X163709087Y-78946614D01*
X155625800Y-89194600D02*
X155625800Y-88398238D01*
X155625800Y-88398238D02*
X159301039Y-84722999D01*
X159301039Y-84722999D02*
X159351695Y-84722999D01*
X159351695Y-84722999D02*
X159756347Y-84318347D01*
X163409087Y-79550614D02*
X163709087Y-79550614D01*
X161798000Y-81161701D02*
X163409087Y-79550614D01*
X161798000Y-82296000D02*
X161798000Y-81161701D01*
G04 #@! TO.N,Net-(R23-Pad1)*
X163033235Y-65764895D02*
X163033235Y-66368895D01*
X163125235Y-65672895D02*
X163033235Y-65764895D01*
X165492735Y-65672895D02*
X163125235Y-65672895D01*
X163033235Y-68199999D02*
X162783234Y-68450000D01*
X163033235Y-66368895D02*
X163033235Y-68199999D01*
X160500000Y-88988800D02*
X160705800Y-89194600D01*
X160500000Y-73800000D02*
X160500000Y-88988800D01*
G04 #@! TO.N,/blue_outB*
X155625800Y-93319600D02*
X155625800Y-91094600D01*
G04 #@! TO.N,/blue_outA*
X160705800Y-93319600D02*
X160705800Y-91094600D01*
D31*
G04 #@! TO.N,Net-(R26-Pad2)*
X181908801Y-70455399D02*
X183631800Y-68732400D01*
X181908801Y-70745401D02*
X181908801Y-70455399D01*
D30*
G04 #@! TO.N,/select_0A*
X149936200Y-97790000D02*
X149860000Y-97790000D01*
X153085800Y-100939600D02*
X149936200Y-97790000D01*
X146304000Y-79756000D02*
X144780000Y-78232000D01*
X146304000Y-93980000D02*
X146304000Y-79756000D01*
X143611000Y-76353000D02*
X143611000Y-75155000D01*
X143256000Y-76708000D02*
X143611000Y-76353000D01*
G04 #@! TO.N,/select_1A*
X155625800Y-100939600D02*
X154508200Y-99822000D01*
X153278752Y-99822000D02*
X150692051Y-97235299D01*
X154508200Y-99822000D02*
X153278752Y-99822000D01*
X147304003Y-93414315D02*
X146853688Y-92964000D01*
X147304003Y-93980000D02*
X147304003Y-93414315D01*
X146853688Y-92964000D02*
X146812000Y-92964000D01*
X146812000Y-79621934D02*
X146758009Y-79567943D01*
X146812000Y-92964000D02*
X146812000Y-79621934D01*
X145542000Y-78351934D02*
X145542000Y-77470000D01*
X146758009Y-79567943D02*
X145542000Y-78351934D01*
X144526000Y-74890000D02*
X144261000Y-75155000D01*
X144526000Y-73406000D02*
X144526000Y-74890000D01*
G04 #@! TO.N,/select_1B*
X145034000Y-86106000D02*
X141732000Y-86106000D01*
X141732000Y-86106000D02*
X139700000Y-84074000D01*
X148844000Y-92710000D02*
X148844000Y-88900000D01*
X148844000Y-88900000D02*
X147574000Y-87630000D01*
X159237438Y-98552000D02*
X154940000Y-98552000D01*
X154940000Y-98552000D02*
X152400000Y-96012000D01*
X160705800Y-100939600D02*
X160705800Y-100020362D01*
X160705800Y-100020362D02*
X159237438Y-98552000D01*
X144526000Y-64117000D02*
X144261000Y-63852000D01*
X144526000Y-65800000D02*
X144526000Y-64117000D01*
G04 #@! TO.N,/select_0B*
X154231990Y-99367990D02*
X151638000Y-96774000D01*
X158165800Y-100939600D02*
X157188799Y-99962599D01*
X155290865Y-99962599D02*
X154696257Y-99367990D01*
X157188799Y-99962599D02*
X155290865Y-99962599D01*
X154696257Y-99367990D02*
X154231990Y-99367990D01*
X148141315Y-89467315D02*
X147574000Y-88900000D01*
X147741316Y-92736722D02*
X148141315Y-92336723D01*
X147741316Y-93033271D02*
X147741316Y-92736722D01*
X148141315Y-93433270D02*
X147741316Y-93033271D01*
X148141315Y-92336723D02*
X148141315Y-89467315D01*
X141478000Y-87122000D02*
X138684000Y-84328000D01*
X145034000Y-87122000D02*
X141478000Y-87122000D01*
X143611000Y-64923000D02*
X143256000Y-65278000D01*
X143611000Y-63852000D02*
X143611000Y-64923000D01*
G04 #@! TO.N,/motorA_PWM*
X182915801Y-93969599D02*
X183565800Y-93319600D01*
X179921791Y-93661553D02*
X180556839Y-94296601D01*
X179921791Y-77528409D02*
X179921791Y-93661553D01*
X182588799Y-94296601D02*
X182915801Y-93969599D01*
X180556839Y-94296601D02*
X182588799Y-94296601D01*
X180854801Y-76595399D02*
X179921791Y-77528409D01*
X181908801Y-76595399D02*
X180854801Y-76595399D01*
G04 #@! TO.N,/motorB_PWM*
X180375801Y-92669601D02*
X181025800Y-93319600D01*
X180375801Y-77724398D02*
X180375801Y-92669601D01*
X180854801Y-77245398D02*
X180375801Y-77724398D01*
X181908801Y-77245398D02*
X180854801Y-77245398D01*
G04 #@! TO.N,/motorB_DIR*
X176595799Y-100289601D02*
X175945800Y-100939600D01*
X178368763Y-99962599D02*
X176922801Y-99962599D01*
X184542801Y-80933399D02*
X184542801Y-93788561D01*
X176922801Y-99962599D02*
X176595799Y-100289601D01*
X184542801Y-93788561D02*
X178368763Y-99962599D01*
X181908801Y-78299399D02*
X184542801Y-80933399D01*
X181908801Y-77895399D02*
X181908801Y-78299399D01*
D31*
G04 #@! TO.N,/motorA_DIR*
X187508799Y-78426399D02*
X187214499Y-78720699D01*
X187508799Y-77895399D02*
X187508799Y-78426399D01*
D30*
X180800000Y-98372798D02*
X180800000Y-98600000D01*
X187214499Y-91958299D02*
X180800000Y-98372798D01*
X187214499Y-78720699D02*
X187214499Y-91958299D01*
X163895799Y-100289601D02*
X163245800Y-100939600D01*
X167162401Y-97022999D02*
X163895799Y-100289601D01*
X178057314Y-97022999D02*
X167162401Y-97022999D01*
X178834315Y-97800000D02*
X178057314Y-97022999D01*
X179400000Y-97800000D02*
X178834315Y-97800000D01*
G04 #@! TO.N,/issues*
X187508799Y-75945401D02*
X186620195Y-75945401D01*
X177300000Y-91450000D02*
X177300000Y-84050000D01*
X177300000Y-84050000D02*
X179000000Y-82350000D01*
X186454799Y-75945401D02*
X187508799Y-75945401D01*
X186381798Y-76018402D02*
X186454799Y-75945401D01*
X185166000Y-77216000D02*
X186097798Y-76284202D01*
X186363598Y-76018402D02*
X186097798Y-76284202D01*
X186381798Y-76018402D02*
X186363598Y-76018402D01*
D33*
G04 #@! TO.N,Net-(R29-Pad1)*
X142113000Y-97840800D02*
X142113000Y-95895200D01*
D30*
G04 #@! TO.N,Net-(R30-Pad2)*
X140584200Y-97840800D02*
X141613001Y-97840800D01*
X140218200Y-97474800D02*
X140584200Y-97840800D01*
X140218200Y-96570800D02*
X140218200Y-97474800D01*
D32*
G04 #@! TO.N,Net-(F1-Pad2)*
X190967400Y-64287400D02*
X191008000Y-64328000D01*
X187604400Y-64287400D02*
X190967400Y-64287400D01*
G04 #@! TD*
M02*
