G04 #@! TF.GenerationSoftware,KiCad,Pcbnew,5.0.0-fee4fd1~66~ubuntu16.04.1*
G04 #@! TF.CreationDate,2018-11-06T10:27:56-05:00*
G04 #@! TF.ProjectId,circuit,636972637569742E6B696361645F7063,rev?*
G04 #@! TF.SameCoordinates,Original*
G04 #@! TF.FileFunction,Soldermask,Top*
G04 #@! TF.FilePolarity,Negative*
%FSLAX46Y46*%
G04 Gerber Fmt 4.6, Leading zero omitted, Abs format (unit mm)*
G04 Created by KiCad (PCBNEW 5.0.0-fee4fd1~66~ubuntu16.04.1) date Tue Nov  6 10:27:56 2018*
%MOMM*%
%LPD*%
G01*
G04 APERTURE LIST*
%ADD10R,2.101800X1.339800*%
%ADD11R,8.121600X7.054800*%
%ADD12R,1.650000X1.400000*%
%ADD13R,1.400000X1.650000*%
%ADD14R,1.600000X1.600000*%
%ADD15R,1.800000X1.800000*%
%ADD16C,1.800000*%
%ADD17R,1.700000X1.100000*%
%ADD18R,1.100000X1.700000*%
%ADD19R,1.000000X1.900000*%
%ADD20R,1.416000X0.654000*%
%ADD21R,0.654000X1.416000*%
%ADD22R,2.150000X0.950000*%
%ADD23R,0.850000X1.900000*%
%ADD24R,2.000000X0.700000*%
%ADD25R,2.800000X3.680001*%
%ADD26C,1.700000*%
%ADD27R,1.600000X1.800000*%
%ADD28R,1.200000X1.300000*%
G04 APERTURE END LIST*
D10*
G04 #@! TO.C,U5*
X158000700Y-83276001D03*
X158000700Y-78775999D03*
D11*
X151892000Y-81026000D03*
G04 #@! TD*
D12*
G04 #@! TO.C,C1*
X135280400Y-92271600D03*
X135280400Y-90271600D03*
G04 #@! TD*
G04 #@! TO.C,C2*
X169151300Y-105241600D03*
X169151300Y-103241600D03*
G04 #@! TD*
G04 #@! TO.C,C3*
X174929800Y-105305100D03*
X174929800Y-103305100D03*
G04 #@! TD*
G04 #@! TO.C,C4*
X166014400Y-89093800D03*
X166014400Y-91093800D03*
G04 #@! TD*
G04 #@! TO.C,C5*
X189852300Y-75955400D03*
X189852300Y-73955400D03*
G04 #@! TD*
D13*
G04 #@! TO.C,C7*
X167243000Y-103378000D03*
X165243000Y-103378000D03*
G04 #@! TD*
D14*
G04 #@! TO.C,D1*
X189814200Y-78089400D03*
X189814200Y-80289400D03*
G04 #@! TD*
G04 #@! TO.C,D2*
X186296300Y-98188600D03*
X186296300Y-100388600D03*
G04 #@! TD*
D15*
G04 #@! TO.C,J1*
X134239000Y-64516000D03*
D16*
X136779000Y-64516000D03*
X134239000Y-67056000D03*
X136779000Y-67056000D03*
X134239000Y-69596000D03*
X136779000Y-69596000D03*
X134239000Y-74676000D03*
X134239000Y-72136000D03*
X134239000Y-79756000D03*
X134239000Y-84836000D03*
X134239000Y-77216000D03*
X134239000Y-82296000D03*
X134239000Y-87376000D03*
X136779000Y-79756000D03*
X136779000Y-77216000D03*
X136779000Y-72136000D03*
X136779000Y-84836000D03*
X136779000Y-74676000D03*
X136779000Y-87376000D03*
X136779000Y-82296000D03*
G04 #@! TD*
D15*
G04 #@! TO.C,J2*
X182524400Y-64287400D03*
D16*
X182524400Y-61747400D03*
X185064400Y-64287400D03*
X185064400Y-61747400D03*
X187604400Y-64287400D03*
X187604400Y-61747400D03*
G04 #@! TD*
G04 #@! TO.C,P1*
X188620400Y-89433400D03*
X186080400Y-89433400D03*
X188620400Y-86893400D03*
X186080400Y-86893400D03*
X188620400Y-84353400D03*
D15*
X186080400Y-84353400D03*
G04 #@! TD*
D17*
G04 #@! TO.C,R1*
X152895300Y-91094600D03*
X152895300Y-89194600D03*
G04 #@! TD*
G04 #@! TO.C,R2*
X150418800Y-91094600D03*
X150418800Y-89194600D03*
G04 #@! TD*
G04 #@! TO.C,R3*
X133324600Y-92019200D03*
X133324600Y-90119200D03*
G04 #@! TD*
D18*
G04 #@! TO.C,R4*
X149159000Y-73152000D03*
X147259000Y-73152000D03*
G04 #@! TD*
G04 #@! TO.C,R5*
X155763000Y-73152000D03*
X153863000Y-73152000D03*
G04 #@! TD*
D17*
G04 #@! TO.C,R6*
X175098235Y-64273395D03*
X175098235Y-62373395D03*
G04 #@! TD*
D18*
G04 #@! TO.C,R7*
X147259000Y-75057000D03*
X149159000Y-75057000D03*
G04 #@! TD*
D17*
G04 #@! TO.C,R8*
X175583587Y-75364614D03*
X175583587Y-77264614D03*
G04 #@! TD*
G04 #@! TO.C,R9*
X157543500Y-71440000D03*
X157543500Y-73340000D03*
G04 #@! TD*
G04 #@! TO.C,R10*
X175098235Y-65802395D03*
X175098235Y-67702395D03*
G04 #@! TD*
G04 #@! TO.C,R11*
X175583587Y-78857114D03*
X175583587Y-80757114D03*
G04 #@! TD*
G04 #@! TO.C,R12*
X163245800Y-91094600D03*
X163245800Y-89194600D03*
G04 #@! TD*
G04 #@! TO.C,R13*
X158165800Y-89194600D03*
X158165800Y-91094600D03*
G04 #@! TD*
D18*
G04 #@! TO.C,R14*
X186055000Y-80238600D03*
X187955000Y-80238600D03*
G04 #@! TD*
D17*
G04 #@! TO.C,R15*
X186296300Y-96365100D03*
X186296300Y-94465100D03*
G04 #@! TD*
D18*
G04 #@! TO.C,R16*
X149286000Y-63754000D03*
X147386000Y-63754000D03*
G04 #@! TD*
G04 #@! TO.C,R17*
X156398000Y-63754000D03*
X154498000Y-63754000D03*
G04 #@! TD*
D17*
G04 #@! TO.C,R18*
X163709087Y-74094614D03*
X163709087Y-75994614D03*
G04 #@! TD*
D18*
G04 #@! TO.C,R19*
X147447000Y-61722000D03*
X149347000Y-61722000D03*
G04 #@! TD*
D17*
G04 #@! TO.C,R20*
X163033235Y-62992000D03*
X163033235Y-61092000D03*
G04 #@! TD*
G04 #@! TO.C,R21*
X157607000Y-65344000D03*
X157607000Y-67244000D03*
G04 #@! TD*
G04 #@! TO.C,R22*
X163709087Y-79550614D03*
X163709087Y-77650614D03*
G04 #@! TD*
G04 #@! TO.C,R23*
X163033235Y-66368895D03*
X163033235Y-64468895D03*
G04 #@! TD*
G04 #@! TO.C,R24*
X155625800Y-91094600D03*
X155625800Y-89194600D03*
G04 #@! TD*
G04 #@! TO.C,R25*
X160705800Y-91094600D03*
X160705800Y-89194600D03*
G04 #@! TD*
D18*
G04 #@! TO.C,R26*
X183631800Y-68732400D03*
X185531800Y-68732400D03*
G04 #@! TD*
D17*
G04 #@! TO.C,R27*
X148005800Y-101254600D03*
X148005800Y-99354600D03*
G04 #@! TD*
G04 #@! TO.C,R28*
X169519600Y-89143800D03*
X169519600Y-91043800D03*
G04 #@! TD*
D19*
G04 #@! TO.C,U1*
X148082000Y-65753000D03*
X149352000Y-65753000D03*
X150622000Y-65753000D03*
X151892000Y-65753000D03*
X153162000Y-65753000D03*
X154432000Y-65753000D03*
X155702000Y-65753000D03*
X155702000Y-71153000D03*
X154432000Y-71153000D03*
X153162000Y-71153000D03*
X151892000Y-71153000D03*
X150622000Y-71153000D03*
X149352000Y-71153000D03*
X148082000Y-71153000D03*
G04 #@! TD*
D20*
G04 #@! TO.C,U2*
X143713200Y-100441001D03*
X143713200Y-99940999D03*
X143713200Y-99441000D03*
X143713200Y-98941001D03*
X143713200Y-98440999D03*
D21*
X142612999Y-97840800D03*
X142113000Y-97840800D03*
X141613001Y-97840800D03*
D20*
X140512800Y-98440999D03*
X140512800Y-98941001D03*
X140512800Y-99441000D03*
X140512800Y-99940999D03*
X140512800Y-100441001D03*
D21*
X141613001Y-101041200D03*
X142113000Y-101041200D03*
X142612999Y-101041200D03*
G04 #@! TD*
D22*
G04 #@! TO.C,U3*
X172892735Y-66942895D03*
X172892735Y-65672895D03*
X172892735Y-64402895D03*
X172892735Y-63132895D03*
X165492735Y-63132895D03*
X165492735Y-64402895D03*
X165492735Y-65672895D03*
X165492735Y-66942895D03*
G04 #@! TD*
G04 #@! TO.C,U4*
X165978087Y-79997614D03*
X165978087Y-78727614D03*
X165978087Y-77457614D03*
X165978087Y-76187614D03*
X173378087Y-76187614D03*
X173378087Y-77457614D03*
X173378087Y-78727614D03*
X173378087Y-79997614D03*
G04 #@! TD*
D23*
G04 #@! TO.C,U7*
X139711000Y-75155000D03*
X140361000Y-75155000D03*
X141011000Y-75155000D03*
X141661000Y-75155000D03*
X142311000Y-75155000D03*
X142961000Y-75155000D03*
X143611000Y-75155000D03*
X144261000Y-75155000D03*
X144261000Y-81055000D03*
X143611000Y-81055000D03*
X142961000Y-81055000D03*
X142311000Y-81055000D03*
X141661000Y-81055000D03*
X141011000Y-81055000D03*
X140361000Y-81055000D03*
X139711000Y-81055000D03*
G04 #@! TD*
G04 #@! TO.C,U8*
X139711000Y-69752000D03*
X140361000Y-69752000D03*
X141011000Y-69752000D03*
X141661000Y-69752000D03*
X142311000Y-69752000D03*
X142961000Y-69752000D03*
X143611000Y-69752000D03*
X144261000Y-69752000D03*
X144261000Y-63852000D03*
X143611000Y-63852000D03*
X142961000Y-63852000D03*
X142311000Y-63852000D03*
X141661000Y-63852000D03*
X141011000Y-63852000D03*
X140361000Y-63852000D03*
X139711000Y-63852000D03*
G04 #@! TD*
D24*
G04 #@! TO.C,U9*
X181908801Y-70745401D03*
X181908801Y-71395400D03*
X181908801Y-72045398D03*
X181908801Y-72695399D03*
X181908801Y-73345398D03*
X181908801Y-73995399D03*
X181908801Y-74645398D03*
X181908801Y-75295399D03*
X181908801Y-75945398D03*
X181908801Y-76595399D03*
X181908801Y-77245398D03*
X181908801Y-77895399D03*
X187508799Y-77895399D03*
X187508799Y-77245400D03*
X187508799Y-76595399D03*
X187508799Y-75945401D03*
X187508799Y-75295399D03*
X187508799Y-74645401D03*
X187508799Y-73995402D03*
X187508799Y-73345401D03*
X187508799Y-72695402D03*
X187508799Y-72045401D03*
X187508799Y-71395402D03*
X187508799Y-70745401D03*
D25*
X184708800Y-74320400D03*
G04 #@! TD*
D26*
G04 #@! TO.C,U10*
X150545800Y-100939600D03*
X150545800Y-93319600D03*
X153085800Y-100939600D03*
X153085800Y-93319600D03*
X155625800Y-100939600D03*
X155625800Y-93319600D03*
X158165800Y-100939600D03*
X158165800Y-93319600D03*
X160705800Y-100939600D03*
X160705800Y-93319600D03*
X163245800Y-100939600D03*
X163245800Y-93319600D03*
X165785800Y-100939600D03*
X165785800Y-93319600D03*
X168325800Y-100939600D03*
X168325800Y-93319600D03*
X170865800Y-100939600D03*
X170865800Y-93319600D03*
X173405800Y-100939600D03*
X173405800Y-93319600D03*
X175945800Y-100939600D03*
X175945800Y-93319600D03*
X178485800Y-100939600D03*
X178485800Y-93319600D03*
X181025800Y-100939600D03*
X181025800Y-93319600D03*
X183565800Y-100939600D03*
X183565800Y-93319600D03*
G04 #@! TD*
D27*
G04 #@! TO.C,Y1*
X172808800Y-105405100D03*
X172808800Y-103205100D03*
X171208800Y-103205100D03*
X171208800Y-105405100D03*
G04 #@! TD*
D28*
G04 #@! TO.C,U6*
X141986000Y-90186000D03*
X142936000Y-92186000D03*
X141036000Y-92186000D03*
G04 #@! TD*
D12*
G04 #@! TO.C,C8*
X138201400Y-100720400D03*
X138201400Y-98720400D03*
G04 #@! TD*
D17*
G04 #@! TO.C,R29*
X142113000Y-93995200D03*
X142113000Y-95895200D03*
G04 #@! TD*
D18*
G04 #@! TO.C,R30*
X138318200Y-96570800D03*
X140218200Y-96570800D03*
G04 #@! TD*
D17*
G04 #@! TO.C,C6*
X189852300Y-70385900D03*
X189852300Y-72285900D03*
G04 #@! TD*
D12*
G04 #@! TO.C,C9*
X144780000Y-90170000D03*
X144780000Y-92170000D03*
G04 #@! TD*
G04 #@! TO.C,C10*
X139192000Y-92170000D03*
X139192000Y-90170000D03*
G04 #@! TD*
D17*
G04 #@! TO.C,F1*
X191008000Y-66228000D03*
X191008000Y-64328000D03*
G04 #@! TD*
M02*
