G04 #@! TF.GenerationSoftware,KiCad,Pcbnew,5.0.0-fee4fd1~66~ubuntu16.04.1*
G04 #@! TF.CreationDate,2018-11-06T10:27:56-05:00*
G04 #@! TF.ProjectId,circuit,636972637569742E6B696361645F7063,rev?*
G04 #@! TF.SameCoordinates,Original*
G04 #@! TF.FileFunction,Profile,NP*
%FSLAX46Y46*%
G04 Gerber Fmt 4.6, Leading zero omitted, Abs format (unit mm)*
G04 Created by KiCad (PCBNEW 5.0.0-fee4fd1~66~ubuntu16.04.1) date Tue Nov  6 10:27:56 2018*
%MOMM*%
%LPD*%
G01*
G04 APERTURE LIST*
%ADD10C,0.200000*%
G04 APERTURE END LIST*
D10*
X195006423Y-103254979D02*
X195062132Y-103255945D01*
X194950780Y-103252085D02*
X195006423Y-103254979D01*
X194895272Y-103247264D02*
X194950780Y-103252085D01*
X194839963Y-103240524D02*
X194895272Y-103247264D01*
X194784921Y-103231871D02*
X194839963Y-103240524D01*
X194730212Y-103221317D02*
X194784921Y-103231871D01*
X194675902Y-103208874D02*
X194730212Y-103221317D01*
X194622055Y-103194557D02*
X194675902Y-103208874D01*
X194568737Y-103178383D02*
X194622055Y-103194557D01*
X194516010Y-103160371D02*
X194568737Y-103178383D01*
X194463940Y-103140544D02*
X194516010Y-103160371D01*
X194412587Y-103118925D02*
X194463940Y-103140544D01*
X194362015Y-103095540D02*
X194412587Y-103118925D01*
X194312282Y-103070417D02*
X194362015Y-103095540D01*
X194263450Y-103043586D02*
X194312282Y-103070417D01*
X194215577Y-103015079D02*
X194263450Y-103043586D01*
X194168720Y-102984931D02*
X194215577Y-103015079D01*
X194122936Y-102953178D02*
X194168720Y-102984931D01*
X194078279Y-102919858D02*
X194122936Y-102953178D01*
X194034803Y-102885011D02*
X194078279Y-102919858D01*
X193992561Y-102848679D02*
X194034803Y-102885011D01*
X193951603Y-102810905D02*
X193992561Y-102848679D01*
X193911977Y-102771735D02*
X193951603Y-102810905D01*
X193873733Y-102731215D02*
X193911977Y-102771735D01*
X193836915Y-102689395D02*
X193873733Y-102731215D01*
X193801568Y-102646325D02*
X193836915Y-102689395D01*
X193767734Y-102602056D02*
X193801568Y-102646325D01*
X193735455Y-102556641D02*
X193767734Y-102602056D01*
X193704768Y-102510136D02*
X193735455Y-102556641D01*
X193675710Y-102462595D02*
X193704768Y-102510136D01*
X193648317Y-102414076D02*
X193675710Y-102462595D01*
X193622621Y-102364637D02*
X193648317Y-102414076D01*
X193598653Y-102314338D02*
X193622621Y-102364637D01*
X193576443Y-102263239D02*
X193598653Y-102314338D01*
X193556015Y-102211401D02*
X193576443Y-102263239D01*
X193537396Y-102158886D02*
X193556015Y-102211401D01*
X193520607Y-102105758D02*
X193537396Y-102158886D01*
X193505669Y-102052080D02*
X193520607Y-102105758D01*
X193492600Y-101997917D02*
X193505669Y-102052080D01*
X193481414Y-101943334D02*
X193492600Y-101997917D01*
X193472127Y-101888395D02*
X193481414Y-101943334D01*
X193464748Y-101833168D02*
X193472127Y-101888395D01*
X193459286Y-101777719D02*
X193464748Y-101833168D01*
X193455749Y-101722114D02*
X193459286Y-101777719D01*
X193454141Y-101666419D02*
X193455749Y-101722114D01*
X193454462Y-101610703D02*
X193454141Y-101666419D01*
X193456714Y-101555030D02*
X193454462Y-101610703D01*
X193460893Y-101499470D02*
X193456714Y-101555030D01*
X193466995Y-101444087D02*
X193460893Y-101499470D01*
X193475011Y-101388949D02*
X193466995Y-101444087D01*
X193484933Y-101334122D02*
X193475011Y-101388949D01*
X193496748Y-101279671D02*
X193484933Y-101334122D01*
X193510442Y-101225663D02*
X193496748Y-101279671D01*
X193525999Y-101172161D02*
X193510442Y-101225663D01*
X193543400Y-101119230D02*
X193525999Y-101172161D01*
X193562625Y-101066934D02*
X193543400Y-101119230D01*
X193583649Y-101015335D02*
X193562625Y-101066934D01*
X193606449Y-100964496D02*
X193583649Y-101015335D01*
X193630996Y-100914477D02*
X193606449Y-100964496D01*
X193657261Y-100865338D02*
X193630996Y-100914477D01*
X193685213Y-100817139D02*
X193657261Y-100865338D01*
X193714817Y-100769937D02*
X193685213Y-100817139D01*
X193746040Y-100723789D02*
X193714817Y-100769937D01*
X193778842Y-100678750D02*
X193746040Y-100723789D01*
X193813184Y-100634875D02*
X193778842Y-100678750D01*
X193849026Y-100592216D02*
X193813184Y-100634875D01*
X193886325Y-100550824D02*
X193849026Y-100592216D01*
X193925035Y-100510749D02*
X193886325Y-100550824D01*
X193965110Y-100472039D02*
X193925035Y-100510749D01*
X194006502Y-100434741D02*
X193965110Y-100472039D01*
X194049161Y-100398898D02*
X194006502Y-100434741D01*
X194093036Y-100364556D02*
X194049161Y-100398898D01*
X194138075Y-100331754D02*
X194093036Y-100364556D01*
X194184223Y-100300532D02*
X194138075Y-100331754D01*
X194231425Y-100270927D02*
X194184223Y-100300532D01*
X194279624Y-100242975D02*
X194231425Y-100270927D01*
X194328763Y-100216710D02*
X194279624Y-100242975D01*
X194378782Y-100192163D02*
X194328763Y-100216710D01*
X194429621Y-100169364D02*
X194378782Y-100192163D01*
X194481220Y-100148339D02*
X194429621Y-100169364D01*
X194533516Y-100129114D02*
X194481220Y-100148339D01*
X194586447Y-100111713D02*
X194533516Y-100129114D01*
X194639948Y-100096156D02*
X194586447Y-100111713D01*
X194693957Y-100082462D02*
X194639948Y-100096156D01*
X194748408Y-100070647D02*
X194693957Y-100082462D01*
X194803235Y-100060725D02*
X194748408Y-100070647D01*
X194858373Y-100052709D02*
X194803235Y-100060725D01*
X194913755Y-100046607D02*
X194858373Y-100052709D01*
X194969316Y-100042428D02*
X194913755Y-100046607D01*
X195024988Y-100040177D02*
X194969316Y-100042428D01*
X195080705Y-100039855D02*
X195024988Y-100040177D01*
X195136400Y-100041464D02*
X195080705Y-100039855D01*
X195192005Y-100045001D02*
X195136400Y-100041464D01*
X195247454Y-100050462D02*
X195192005Y-100045001D01*
X195302681Y-100057841D02*
X195247454Y-100050462D01*
X195357619Y-100067129D02*
X195302681Y-100057841D01*
X195412203Y-100078314D02*
X195357619Y-100067129D01*
X195466366Y-100091384D02*
X195412203Y-100078314D01*
X195520044Y-100106322D02*
X195466366Y-100091384D01*
X195573172Y-100123110D02*
X195520044Y-100106322D01*
X195625687Y-100141730D02*
X195573172Y-100123110D01*
X195677525Y-100162157D02*
X195625687Y-100141730D01*
X195728624Y-100184368D02*
X195677525Y-100162157D01*
X195778923Y-100208335D02*
X195728624Y-100184368D01*
X195828362Y-100234031D02*
X195778923Y-100208335D01*
X195876881Y-100261424D02*
X195828362Y-100234031D01*
X195924422Y-100290482D02*
X195876881Y-100261424D01*
X195970927Y-100321169D02*
X195924422Y-100290482D01*
X196016342Y-100353449D02*
X195970927Y-100321169D01*
X196060611Y-100387282D02*
X196016342Y-100353449D01*
X196103681Y-100422629D02*
X196060611Y-100387282D01*
X196145501Y-100459447D02*
X196103681Y-100422629D01*
X196186020Y-100497692D02*
X196145501Y-100459447D01*
X196225191Y-100537317D02*
X196186020Y-100497692D01*
X196262965Y-100578275D02*
X196225191Y-100537317D01*
X196299297Y-100620518D02*
X196262965Y-100578275D01*
X196334144Y-100663993D02*
X196299297Y-100620518D01*
X196367464Y-100708650D02*
X196334144Y-100663993D01*
X196399217Y-100754435D02*
X196367464Y-100708650D01*
X196429365Y-100801291D02*
X196399217Y-100754435D01*
X196457871Y-100849165D02*
X196429365Y-100801291D01*
X196484702Y-100897997D02*
X196457871Y-100849165D01*
X196509826Y-100947729D02*
X196484702Y-100897997D01*
X196533211Y-100998301D02*
X196509826Y-100947729D01*
X196554830Y-101049654D02*
X196533211Y-100998301D01*
X196574657Y-101101725D02*
X196554830Y-101049654D01*
X196592668Y-101154451D02*
X196574657Y-101101725D01*
X196608842Y-101207769D02*
X196592668Y-101154451D01*
X196623160Y-101261616D02*
X196608842Y-101207769D01*
X196635603Y-101315927D02*
X196623160Y-101261616D01*
X196646157Y-101370636D02*
X196635603Y-101315927D01*
X196654810Y-101425677D02*
X196646157Y-101370636D01*
X196661550Y-101480986D02*
X196654810Y-101425677D01*
X196666371Y-101536494D02*
X196661550Y-101480986D01*
X196669265Y-101592137D02*
X196666371Y-101536494D01*
X196670231Y-101647846D02*
X196669265Y-101592137D01*
X196669251Y-101703968D02*
X196670231Y-101647846D01*
X196666313Y-101760022D02*
X196669251Y-101703968D01*
X196661421Y-101815938D02*
X196666313Y-101760022D01*
X196654581Y-101871650D02*
X196661421Y-101815938D01*
X196645800Y-101927090D02*
X196654581Y-101871650D01*
X196635090Y-101982189D02*
X196645800Y-101927090D01*
X196622463Y-102036881D02*
X196635090Y-101982189D01*
X196607936Y-102091098D02*
X196622463Y-102036881D01*
X196591525Y-102144776D02*
X196607936Y-102091098D01*
X196573250Y-102197848D02*
X196591525Y-102144776D01*
X196553135Y-102250251D02*
X196573250Y-102197848D01*
X196531203Y-102301919D02*
X196553135Y-102250251D01*
X196507481Y-102352790D02*
X196531203Y-102301919D01*
X196481999Y-102402803D02*
X196507481Y-102352790D01*
X196454786Y-102451896D02*
X196481999Y-102402803D01*
X196425877Y-102500009D02*
X196454786Y-102451896D01*
X196395306Y-102547084D02*
X196425877Y-102500009D01*
X196363111Y-102593063D02*
X196395306Y-102547084D01*
X196329331Y-102637891D02*
X196363111Y-102593063D01*
X196294007Y-102681512D02*
X196329331Y-102637891D01*
X196257182Y-102723874D02*
X196294007Y-102681512D01*
X196218901Y-102764925D02*
X196257182Y-102723874D01*
X196179211Y-102804616D02*
X196218901Y-102764925D01*
X196138160Y-102842896D02*
X196179211Y-102804616D01*
X196095798Y-102879721D02*
X196138160Y-102842896D01*
X196052176Y-102915045D02*
X196095798Y-102879721D01*
X196007349Y-102948825D02*
X196052176Y-102915045D01*
X195961369Y-102981020D02*
X196007349Y-102948825D01*
X195914294Y-103011591D02*
X195961369Y-102981020D01*
X195866181Y-103040500D02*
X195914294Y-103011591D01*
X195817089Y-103067713D02*
X195866181Y-103040500D01*
X195767076Y-103093196D02*
X195817089Y-103067713D01*
X195716205Y-103116917D02*
X195767076Y-103093196D01*
X195664536Y-103138849D02*
X195716205Y-103116917D01*
X195612134Y-103158965D02*
X195664536Y-103138849D01*
X195559062Y-103177239D02*
X195612134Y-103158965D01*
X195505384Y-103193650D02*
X195559062Y-103177239D01*
X195451166Y-103208177D02*
X195505384Y-103193650D01*
X195396475Y-103220804D02*
X195451166Y-103208177D01*
X195341375Y-103231514D02*
X195396475Y-103220804D01*
X195285936Y-103240295D02*
X195341375Y-103231514D01*
X195230224Y-103247135D02*
X195285936Y-103240295D01*
X195174307Y-103252027D02*
X195230224Y-103247135D01*
X195118254Y-103254965D02*
X195174307Y-103252027D01*
X195062132Y-103255945D02*
X195118254Y-103254965D01*
X142975974Y-108333185D02*
X143031684Y-108334150D01*
X142920332Y-108330291D02*
X142975974Y-108333185D01*
X142864823Y-108325470D02*
X142920332Y-108330291D01*
X142809514Y-108318729D02*
X142864823Y-108325470D01*
X142754473Y-108310077D02*
X142809514Y-108318729D01*
X142699764Y-108299523D02*
X142754473Y-108310077D01*
X142645453Y-108287079D02*
X142699764Y-108299523D01*
X142591606Y-108272762D02*
X142645453Y-108287079D01*
X142538288Y-108256588D02*
X142591606Y-108272762D01*
X142485562Y-108238577D02*
X142538288Y-108256588D01*
X142433491Y-108218750D02*
X142485562Y-108238577D01*
X142382139Y-108197131D02*
X142433491Y-108218750D01*
X142331566Y-108173745D02*
X142382139Y-108197131D01*
X142281834Y-108148622D02*
X142331566Y-108173745D01*
X142233002Y-108121791D02*
X142281834Y-108148622D01*
X142185129Y-108093285D02*
X142233002Y-108121791D01*
X142138272Y-108063137D02*
X142185129Y-108093285D01*
X142092487Y-108031384D02*
X142138272Y-108063137D01*
X142047831Y-107998064D02*
X142092487Y-108031384D01*
X142004355Y-107963217D02*
X142047831Y-107998064D01*
X141962112Y-107926884D02*
X142004355Y-107963217D01*
X141921154Y-107889110D02*
X141962112Y-107926884D01*
X141881529Y-107849940D02*
X141921154Y-107889110D01*
X141843284Y-107809421D02*
X141881529Y-107849940D01*
X141806466Y-107767601D02*
X141843284Y-107809421D01*
X141771120Y-107724531D02*
X141806466Y-107767601D01*
X141737286Y-107680261D02*
X141771120Y-107724531D01*
X141705006Y-107634847D02*
X141737286Y-107680261D01*
X141674319Y-107588341D02*
X141705006Y-107634847D01*
X141645262Y-107540801D02*
X141674319Y-107588341D01*
X141617868Y-107492282D02*
X141645262Y-107540801D01*
X141592173Y-107442843D02*
X141617868Y-107492282D01*
X141568205Y-107392544D02*
X141592173Y-107442843D01*
X141545994Y-107341445D02*
X141568205Y-107392544D01*
X141525567Y-107289606D02*
X141545994Y-107341445D01*
X141506948Y-107237092D02*
X141525567Y-107289606D01*
X141490159Y-107183964D02*
X141506948Y-107237092D01*
X141475221Y-107130286D02*
X141490159Y-107183964D01*
X141462151Y-107076123D02*
X141475221Y-107130286D01*
X141450966Y-107021539D02*
X141462151Y-107076123D01*
X141441678Y-106966601D02*
X141450966Y-107021539D01*
X141434299Y-106911374D02*
X141441678Y-106966601D01*
X141428838Y-106855925D02*
X141434299Y-106911374D01*
X141425301Y-106800319D02*
X141428838Y-106855925D01*
X141423692Y-106744625D02*
X141425301Y-106800319D01*
X141424014Y-106688908D02*
X141423692Y-106744625D01*
X141426266Y-106633236D02*
X141424014Y-106688908D01*
X141430445Y-106577675D02*
X141426266Y-106633236D01*
X141436546Y-106522293D02*
X141430445Y-106577675D01*
X141444562Y-106467155D02*
X141436546Y-106522293D01*
X141454484Y-106412327D02*
X141444562Y-106467155D01*
X141466299Y-106357877D02*
X141454484Y-106412327D01*
X141479993Y-106303868D02*
X141466299Y-106357877D01*
X141495550Y-106250366D02*
X141479993Y-106303868D01*
X141512952Y-106197436D02*
X141495550Y-106250366D01*
X141532176Y-106145140D02*
X141512952Y-106197436D01*
X141553201Y-106093541D02*
X141532176Y-106145140D01*
X141576000Y-106042702D02*
X141553201Y-106093541D01*
X141600547Y-105992682D02*
X141576000Y-106042702D01*
X141626812Y-105943544D02*
X141600547Y-105992682D01*
X141654764Y-105895345D02*
X141626812Y-105943544D01*
X141684369Y-105848143D02*
X141654764Y-105895345D01*
X141715591Y-105801995D02*
X141684369Y-105848143D01*
X141748393Y-105756956D02*
X141715591Y-105801995D01*
X141782736Y-105713081D02*
X141748393Y-105756956D01*
X141818578Y-105670421D02*
X141782736Y-105713081D01*
X141855876Y-105629029D02*
X141818578Y-105670421D01*
X141894586Y-105588954D02*
X141855876Y-105629029D01*
X141934661Y-105550245D02*
X141894586Y-105588954D01*
X141976053Y-105512946D02*
X141934661Y-105550245D01*
X142018712Y-105477104D02*
X141976053Y-105512946D01*
X142062588Y-105442761D02*
X142018712Y-105477104D01*
X142107626Y-105409959D02*
X142062588Y-105442761D01*
X142153774Y-105378737D02*
X142107626Y-105409959D01*
X142200976Y-105349133D02*
X142153774Y-105378737D01*
X142249175Y-105321181D02*
X142200976Y-105349133D01*
X142298314Y-105294916D02*
X142249175Y-105321181D01*
X142348333Y-105270369D02*
X142298314Y-105294916D01*
X142399172Y-105247569D02*
X142348333Y-105270369D01*
X142450771Y-105226545D02*
X142399172Y-105247569D01*
X142503067Y-105207320D02*
X142450771Y-105226545D01*
X142555998Y-105189919D02*
X142503067Y-105207320D01*
X142609500Y-105174362D02*
X142555998Y-105189919D01*
X142663508Y-105160667D02*
X142609500Y-105174362D01*
X142717959Y-105148852D02*
X142663508Y-105160667D01*
X142772786Y-105138931D02*
X142717959Y-105148852D01*
X142827924Y-105130914D02*
X142772786Y-105138931D01*
X142883307Y-105124813D02*
X142827924Y-105130914D01*
X142938868Y-105120634D02*
X142883307Y-105124813D01*
X142994540Y-105118382D02*
X142938868Y-105120634D01*
X143050257Y-105118061D02*
X142994540Y-105118382D01*
X143105951Y-105119669D02*
X143050257Y-105118061D01*
X143161556Y-105123206D02*
X143105951Y-105119669D01*
X143217006Y-105128668D02*
X143161556Y-105123206D01*
X143272233Y-105136046D02*
X143217006Y-105128668D01*
X143327171Y-105145334D02*
X143272233Y-105136046D01*
X143381754Y-105156520D02*
X143327171Y-105145334D01*
X143435917Y-105169589D02*
X143381754Y-105156520D01*
X143489595Y-105184527D02*
X143435917Y-105169589D01*
X143542723Y-105201316D02*
X143489595Y-105184527D01*
X143595238Y-105219935D02*
X143542723Y-105201316D01*
X143647076Y-105240362D02*
X143595238Y-105219935D01*
X143698175Y-105262573D02*
X143647076Y-105240362D01*
X143748475Y-105286541D02*
X143698175Y-105262573D01*
X143797913Y-105312237D02*
X143748475Y-105286541D01*
X143846432Y-105339630D02*
X143797913Y-105312237D01*
X143893973Y-105368688D02*
X143846432Y-105339630D01*
X143940479Y-105399375D02*
X143893973Y-105368688D01*
X143985893Y-105431654D02*
X143940479Y-105399375D01*
X144030162Y-105465488D02*
X143985893Y-105431654D01*
X144073232Y-105500835D02*
X144030162Y-105465488D01*
X144115052Y-105537653D02*
X144073232Y-105500835D01*
X144155572Y-105575897D02*
X144115052Y-105537653D01*
X144194742Y-105615522D02*
X144155572Y-105575897D01*
X144232516Y-105656481D02*
X144194742Y-105615522D01*
X144268848Y-105698723D02*
X144232516Y-105656481D01*
X144303695Y-105742199D02*
X144268848Y-105698723D01*
X144337015Y-105786856D02*
X144303695Y-105742199D01*
X144368769Y-105832640D02*
X144337015Y-105786856D01*
X144398916Y-105879497D02*
X144368769Y-105832640D01*
X144427423Y-105927370D02*
X144398916Y-105879497D01*
X144454254Y-105976202D02*
X144427423Y-105927370D01*
X144479377Y-106025934D02*
X144454254Y-105976202D01*
X144502762Y-106076507D02*
X144479377Y-106025934D01*
X144524381Y-106127860D02*
X144502762Y-106076507D01*
X144544208Y-106179930D02*
X144524381Y-106127860D01*
X144562220Y-106232656D02*
X144544208Y-106179930D01*
X144578394Y-106285975D02*
X144562220Y-106232656D01*
X144592711Y-106339822D02*
X144578394Y-106285975D01*
X144605154Y-106394132D02*
X144592711Y-106339822D01*
X144615708Y-106448841D02*
X144605154Y-106394132D01*
X144624361Y-106503883D02*
X144615708Y-106448841D01*
X144631102Y-106559191D02*
X144624361Y-106503883D01*
X144635922Y-106614700D02*
X144631102Y-106559191D01*
X144638817Y-106670343D02*
X144635922Y-106614700D01*
X144639782Y-106726052D02*
X144638817Y-106670343D01*
X144638802Y-106782174D02*
X144639782Y-106726052D01*
X144635865Y-106838227D02*
X144638802Y-106782174D01*
X144630973Y-106894144D02*
X144635865Y-106838227D01*
X144624132Y-106949856D02*
X144630973Y-106894144D01*
X144615351Y-107005295D02*
X144624132Y-106949856D01*
X144604641Y-107060394D02*
X144615351Y-107005295D01*
X144592015Y-107115086D02*
X144604641Y-107060394D01*
X144577487Y-107169304D02*
X144592015Y-107115086D01*
X144561076Y-107222982D02*
X144577487Y-107169304D01*
X144542802Y-107276054D02*
X144561076Y-107222982D01*
X144522686Y-107328456D02*
X144542802Y-107276054D01*
X144500755Y-107380124D02*
X144522686Y-107328456D01*
X144477033Y-107430996D02*
X144500755Y-107380124D01*
X144451550Y-107481008D02*
X144477033Y-107430996D01*
X144424338Y-107530101D02*
X144451550Y-107481008D01*
X144395428Y-107578214D02*
X144424338Y-107530101D01*
X144364858Y-107625289D02*
X144395428Y-107578214D01*
X144332662Y-107671268D02*
X144364858Y-107625289D01*
X144298882Y-107716096D02*
X144332662Y-107671268D01*
X144263558Y-107759718D02*
X144298882Y-107716096D01*
X144226734Y-107802080D02*
X144263558Y-107759718D01*
X144188453Y-107843131D02*
X144226734Y-107802080D01*
X144148763Y-107882821D02*
X144188453Y-107843131D01*
X144107711Y-107921102D02*
X144148763Y-107882821D01*
X144065349Y-107957927D02*
X144107711Y-107921102D01*
X144021728Y-107993251D02*
X144065349Y-107957927D01*
X143976900Y-108027031D02*
X144021728Y-107993251D01*
X143930921Y-108059226D02*
X143976900Y-108027031D01*
X143883846Y-108089797D02*
X143930921Y-108059226D01*
X143835733Y-108118706D02*
X143883846Y-108089797D01*
X143786640Y-108145919D02*
X143835733Y-108118706D01*
X143736627Y-108171401D02*
X143786640Y-108145919D01*
X143685756Y-108195123D02*
X143736627Y-108171401D01*
X143634088Y-108217055D02*
X143685756Y-108195123D01*
X143581686Y-108237170D02*
X143634088Y-108217055D01*
X143528613Y-108255444D02*
X143581686Y-108237170D01*
X143474936Y-108271855D02*
X143528613Y-108255444D01*
X143420718Y-108286383D02*
X143474936Y-108271855D01*
X143366026Y-108299010D02*
X143420718Y-108286383D01*
X143310927Y-108309720D02*
X143366026Y-108299010D01*
X143255488Y-108318500D02*
X143310927Y-108309720D01*
X143199776Y-108325341D02*
X143255488Y-108318500D01*
X143143859Y-108330233D02*
X143199776Y-108325341D01*
X143087805Y-108333171D02*
X143143859Y-108330233D01*
X143031684Y-108334150D02*
X143087805Y-108333171D01*
X195006423Y-75346008D02*
X195062132Y-75346973D01*
X194950780Y-75343113D02*
X195006423Y-75346008D01*
X194895272Y-75338293D02*
X194950780Y-75343113D01*
X194839963Y-75331552D02*
X194895272Y-75338293D01*
X194784921Y-75322899D02*
X194839963Y-75331552D01*
X194730212Y-75312345D02*
X194784921Y-75322899D01*
X194675902Y-75299902D02*
X194730212Y-75312345D01*
X194622055Y-75285585D02*
X194675902Y-75299902D01*
X194568737Y-75269411D02*
X194622055Y-75285585D01*
X194516010Y-75251399D02*
X194568737Y-75269411D01*
X194463940Y-75231572D02*
X194516010Y-75251399D01*
X194412587Y-75209953D02*
X194463940Y-75231572D01*
X194362015Y-75186568D02*
X194412587Y-75209953D01*
X194312282Y-75161445D02*
X194362015Y-75186568D01*
X194263450Y-75134614D02*
X194312282Y-75161445D01*
X194215577Y-75106107D02*
X194263450Y-75134614D01*
X194168720Y-75075960D02*
X194215577Y-75106107D01*
X194122936Y-75044206D02*
X194168720Y-75075960D01*
X194078279Y-75010886D02*
X194122936Y-75044206D01*
X194034803Y-74976039D02*
X194078279Y-75010886D01*
X193992561Y-74939707D02*
X194034803Y-74976039D01*
X193951603Y-74901933D02*
X193992561Y-74939707D01*
X193911977Y-74862763D02*
X193951603Y-74901933D01*
X193873733Y-74822243D02*
X193911977Y-74862763D01*
X193836915Y-74780423D02*
X193873733Y-74822243D01*
X193801568Y-74737353D02*
X193836915Y-74780423D01*
X193767734Y-74693084D02*
X193801568Y-74737353D01*
X193735455Y-74647669D02*
X193767734Y-74693084D01*
X193704768Y-74601164D02*
X193735455Y-74647669D01*
X193675710Y-74553623D02*
X193704768Y-74601164D01*
X193648317Y-74505104D02*
X193675710Y-74553623D01*
X193622621Y-74455666D02*
X193648317Y-74505104D01*
X193598653Y-74405366D02*
X193622621Y-74455666D01*
X193576443Y-74354267D02*
X193598653Y-74405366D01*
X193556015Y-74302429D02*
X193576443Y-74354267D01*
X193537396Y-74249914D02*
X193556015Y-74302429D01*
X193520607Y-74196786D02*
X193537396Y-74249914D01*
X193505669Y-74143108D02*
X193520607Y-74196786D01*
X193492600Y-74088945D02*
X193505669Y-74143108D01*
X193481414Y-74034362D02*
X193492600Y-74088945D01*
X193472127Y-73979424D02*
X193481414Y-74034362D01*
X193464748Y-73924197D02*
X193472127Y-73979424D01*
X193459286Y-73868747D02*
X193464748Y-73924197D01*
X193455749Y-73813142D02*
X193459286Y-73868747D01*
X193454141Y-73757447D02*
X193455749Y-73813142D01*
X193454462Y-73701731D02*
X193454141Y-73757447D01*
X193456714Y-73646059D02*
X193454462Y-73701731D01*
X193460893Y-73590498D02*
X193456714Y-73646059D01*
X193466995Y-73535115D02*
X193460893Y-73590498D01*
X193475011Y-73479977D02*
X193466995Y-73535115D01*
X193484933Y-73425150D02*
X193475011Y-73479977D01*
X193496748Y-73370699D02*
X193484933Y-73425150D01*
X193510442Y-73316691D02*
X193496748Y-73370699D01*
X193525999Y-73263189D02*
X193510442Y-73316691D01*
X193543400Y-73210258D02*
X193525999Y-73263189D01*
X193562625Y-73157962D02*
X193543400Y-73210258D01*
X193583649Y-73106363D02*
X193562625Y-73157962D01*
X193606449Y-73055524D02*
X193583649Y-73106363D01*
X193630996Y-73005505D02*
X193606449Y-73055524D01*
X193657261Y-72956366D02*
X193630996Y-73005505D01*
X193685213Y-72908167D02*
X193657261Y-72956366D01*
X193714817Y-72860965D02*
X193685213Y-72908167D01*
X193746040Y-72814817D02*
X193714817Y-72860965D01*
X193778842Y-72769778D02*
X193746040Y-72814817D01*
X193813184Y-72725903D02*
X193778842Y-72769778D01*
X193849026Y-72683244D02*
X193813184Y-72725903D01*
X193886325Y-72641852D02*
X193849026Y-72683244D01*
X193925035Y-72601777D02*
X193886325Y-72641852D01*
X193965110Y-72563067D02*
X193925035Y-72601777D01*
X194006502Y-72525769D02*
X193965110Y-72563067D01*
X194049161Y-72489927D02*
X194006502Y-72525769D01*
X194093036Y-72455584D02*
X194049161Y-72489927D01*
X194138075Y-72422782D02*
X194093036Y-72455584D01*
X194184223Y-72391560D02*
X194138075Y-72422782D01*
X194231425Y-72361955D02*
X194184223Y-72391560D01*
X194279624Y-72334003D02*
X194231425Y-72361955D01*
X194328763Y-72307738D02*
X194279624Y-72334003D01*
X194378782Y-72283191D02*
X194328763Y-72307738D01*
X194429621Y-72260392D02*
X194378782Y-72283191D01*
X194481220Y-72239367D02*
X194429621Y-72260392D01*
X194533516Y-72220143D02*
X194481220Y-72239367D01*
X194586447Y-72202741D02*
X194533516Y-72220143D01*
X194639948Y-72187184D02*
X194586447Y-72202741D01*
X194693957Y-72173490D02*
X194639948Y-72187184D01*
X194748408Y-72161675D02*
X194693957Y-72173490D01*
X194803235Y-72151753D02*
X194748408Y-72161675D01*
X194858373Y-72143737D02*
X194803235Y-72151753D01*
X194913755Y-72137636D02*
X194858373Y-72143737D01*
X194969316Y-72133457D02*
X194913755Y-72137636D01*
X195024988Y-72131205D02*
X194969316Y-72133457D01*
X195080705Y-72130883D02*
X195024988Y-72131205D01*
X195136400Y-72132492D02*
X195080705Y-72130883D01*
X195192005Y-72136029D02*
X195136400Y-72132492D01*
X195247454Y-72141490D02*
X195192005Y-72136029D01*
X195302681Y-72148869D02*
X195247454Y-72141490D01*
X195357619Y-72158157D02*
X195302681Y-72148869D01*
X195412203Y-72169342D02*
X195357619Y-72158157D01*
X195466366Y-72182412D02*
X195412203Y-72169342D01*
X195520044Y-72197350D02*
X195466366Y-72182412D01*
X195573172Y-72214139D02*
X195520044Y-72197350D01*
X195625687Y-72232758D02*
X195573172Y-72214139D01*
X195677525Y-72253185D02*
X195625687Y-72232758D01*
X195728624Y-72275396D02*
X195677525Y-72253185D01*
X195778923Y-72299364D02*
X195728624Y-72275396D01*
X195828362Y-72325059D02*
X195778923Y-72299364D01*
X195876881Y-72352453D02*
X195828362Y-72325059D01*
X195924422Y-72381510D02*
X195876881Y-72352453D01*
X195970927Y-72412197D02*
X195924422Y-72381510D01*
X196016342Y-72444477D02*
X195970927Y-72412197D01*
X196060611Y-72478311D02*
X196016342Y-72444477D01*
X196103681Y-72513657D02*
X196060611Y-72478311D01*
X196145501Y-72550475D02*
X196103681Y-72513657D01*
X196186020Y-72588720D02*
X196145501Y-72550475D01*
X196225191Y-72628345D02*
X196186020Y-72588720D01*
X196262965Y-72669303D02*
X196225191Y-72628345D01*
X196299297Y-72711546D02*
X196262965Y-72669303D01*
X196334144Y-72755022D02*
X196299297Y-72711546D01*
X196367464Y-72799678D02*
X196334144Y-72755022D01*
X196399217Y-72845463D02*
X196367464Y-72799678D01*
X196429365Y-72892320D02*
X196399217Y-72845463D01*
X196457871Y-72940193D02*
X196429365Y-72892320D01*
X196484702Y-72989025D02*
X196457871Y-72940193D01*
X196509826Y-73038757D02*
X196484702Y-72989025D01*
X196533211Y-73089330D02*
X196509826Y-73038757D01*
X196554830Y-73140682D02*
X196533211Y-73089330D01*
X196574657Y-73192753D02*
X196554830Y-73140682D01*
X196592668Y-73245479D02*
X196574657Y-73192753D01*
X196608842Y-73298797D02*
X196592668Y-73245479D01*
X196623160Y-73352644D02*
X196608842Y-73298797D01*
X196635603Y-73406955D02*
X196623160Y-73352644D01*
X196646157Y-73461664D02*
X196635603Y-73406955D01*
X196654810Y-73516705D02*
X196646157Y-73461664D01*
X196661550Y-73572014D02*
X196654810Y-73516705D01*
X196666371Y-73627523D02*
X196661550Y-73572014D01*
X196669265Y-73683165D02*
X196666371Y-73627523D01*
X196670231Y-73738874D02*
X196669265Y-73683165D01*
X196669251Y-73794996D02*
X196670231Y-73738874D01*
X196666313Y-73851050D02*
X196669251Y-73794996D01*
X196661421Y-73906967D02*
X196666313Y-73851050D01*
X196654581Y-73962679D02*
X196661421Y-73906967D01*
X196645800Y-74018118D02*
X196654581Y-73962679D01*
X196635090Y-74073217D02*
X196645800Y-74018118D01*
X196622463Y-74127909D02*
X196635090Y-74073217D01*
X196607936Y-74182126D02*
X196622463Y-74127909D01*
X196591525Y-74235804D02*
X196607936Y-74182126D01*
X196573250Y-74288877D02*
X196591525Y-74235804D01*
X196553135Y-74341279D02*
X196573250Y-74288877D01*
X196531203Y-74392947D02*
X196553135Y-74341279D01*
X196507481Y-74443818D02*
X196531203Y-74392947D01*
X196481999Y-74493831D02*
X196507481Y-74443818D01*
X196454786Y-74542924D02*
X196481999Y-74493831D01*
X196425877Y-74591037D02*
X196454786Y-74542924D01*
X196395306Y-74638112D02*
X196425877Y-74591037D01*
X196363111Y-74684091D02*
X196395306Y-74638112D01*
X196329331Y-74728919D02*
X196363111Y-74684091D01*
X196294007Y-74772540D02*
X196329331Y-74728919D01*
X196257182Y-74814902D02*
X196294007Y-74772540D01*
X196218901Y-74855954D02*
X196257182Y-74814902D01*
X196179211Y-74895644D02*
X196218901Y-74855954D01*
X196138160Y-74933925D02*
X196179211Y-74895644D01*
X196095798Y-74970749D02*
X196138160Y-74933925D01*
X196052176Y-75006073D02*
X196095798Y-74970749D01*
X196007349Y-75039853D02*
X196052176Y-75006073D01*
X195961369Y-75072049D02*
X196007349Y-75039853D01*
X195914294Y-75102619D02*
X195961369Y-75072049D01*
X195866181Y-75131529D02*
X195914294Y-75102619D01*
X195817089Y-75158741D02*
X195866181Y-75131529D01*
X195767076Y-75184224D02*
X195817089Y-75158741D01*
X195716205Y-75207946D02*
X195767076Y-75184224D01*
X195664536Y-75229877D02*
X195716205Y-75207946D01*
X195612134Y-75249993D02*
X195664536Y-75229877D01*
X195559062Y-75268267D02*
X195612134Y-75249993D01*
X195505384Y-75284678D02*
X195559062Y-75268267D01*
X195451166Y-75299206D02*
X195505384Y-75284678D01*
X195396475Y-75311832D02*
X195451166Y-75299206D01*
X195341375Y-75322542D02*
X195396475Y-75311832D01*
X195285936Y-75331323D02*
X195341375Y-75322542D01*
X195230224Y-75338164D02*
X195285936Y-75331323D01*
X195174307Y-75343056D02*
X195230224Y-75338164D01*
X195118254Y-75345993D02*
X195174307Y-75343056D01*
X195062132Y-75346973D02*
X195118254Y-75345993D01*
X193538670Y-55965155D02*
X195062132Y-57488616D01*
X195062132Y-57488616D02*
X195062132Y-68914579D01*
X195062132Y-68914579D02*
X197601235Y-71453682D01*
X197601235Y-71453682D02*
X197601235Y-104186949D01*
X197601235Y-104186949D02*
X195062132Y-106726052D01*
X195062132Y-106726052D02*
X195062132Y-108270673D01*
X195062132Y-108270673D02*
X195019814Y-108524583D01*
X195019814Y-108524583D02*
X194935177Y-108757334D01*
X194935177Y-108757334D02*
X194765903Y-108968926D01*
X194765903Y-108968926D02*
X194554312Y-109138200D01*
X194554312Y-109138200D02*
X194321560Y-109222836D01*
X194321560Y-109222836D02*
X194067650Y-109265155D01*
X194067650Y-109265155D02*
X130061100Y-109265155D01*
X130061100Y-109265155D02*
X129807190Y-109222836D01*
X129807190Y-109222836D02*
X129574439Y-109138200D01*
X129574439Y-109138200D02*
X129362847Y-108968926D01*
X129362847Y-108968926D02*
X129193573Y-108757334D01*
X129193573Y-108757334D02*
X129108936Y-108524583D01*
X129108936Y-108524583D02*
X129066618Y-108270673D01*
X129066618Y-108270673D02*
X129066618Y-56980796D01*
X129066618Y-56980796D02*
X129108936Y-56705726D01*
X129108936Y-56705726D02*
X129193573Y-56472975D01*
X129193573Y-56472975D02*
X129362847Y-56261383D01*
X129362847Y-56261383D02*
X129574439Y-56113269D01*
X129574439Y-56113269D02*
X129807190Y-56007473D01*
X129807190Y-56007473D02*
X130061100Y-55965155D01*
X130061100Y-55965155D02*
X193538670Y-55965155D01*
X143288264Y-57255310D02*
X143245604Y-57291152D01*
X143332139Y-57220967D02*
X143288264Y-57255310D01*
X143377178Y-57188165D02*
X143332139Y-57220967D01*
X143423326Y-57156943D02*
X143377178Y-57188165D01*
X143470528Y-57127338D02*
X143423326Y-57156943D01*
X143518727Y-57099387D02*
X143470528Y-57127338D01*
X143567865Y-57073121D02*
X143518727Y-57099387D01*
X143617885Y-57048574D02*
X143567865Y-57073121D01*
X143668724Y-57025775D02*
X143617885Y-57048574D01*
X143720323Y-57004750D02*
X143668724Y-57025775D01*
X143772619Y-56985526D02*
X143720323Y-57004750D01*
X143825549Y-56968125D02*
X143772619Y-56985526D01*
X143879051Y-56952567D02*
X143825549Y-56968125D01*
X143933060Y-56938873D02*
X143879051Y-56952567D01*
X143987510Y-56927058D02*
X143933060Y-56938873D01*
X144042338Y-56917136D02*
X143987510Y-56927058D01*
X144097476Y-56909120D02*
X144042338Y-56917136D01*
X144152858Y-56903019D02*
X144097476Y-56909120D01*
X144208419Y-56898840D02*
X144152858Y-56903019D01*
X144264091Y-56896588D02*
X144208419Y-56898840D01*
X144319808Y-56896266D02*
X144264091Y-56896588D01*
X144375502Y-56897875D02*
X144319808Y-56896266D01*
X144431108Y-56901412D02*
X144375502Y-56897875D01*
X144486557Y-56906873D02*
X144431108Y-56901412D01*
X144541784Y-56914252D02*
X144486557Y-56906873D01*
X144596722Y-56923540D02*
X144541784Y-56914252D01*
X144651306Y-56934725D02*
X144596722Y-56923540D01*
X144705469Y-56947795D02*
X144651306Y-56934725D01*
X144759147Y-56962733D02*
X144705469Y-56947795D01*
X144812275Y-56979522D02*
X144759147Y-56962733D01*
X145831771Y-58010862D02*
X145813760Y-57958136D01*
X145847945Y-58064180D02*
X145831771Y-58010862D01*
X145862262Y-58118027D02*
X145847945Y-58064180D01*
X145874706Y-58172338D02*
X145862262Y-58118027D01*
X145885260Y-58227047D02*
X145874706Y-58172338D01*
X145893912Y-58282089D02*
X145885260Y-58227047D01*
X145900653Y-58337397D02*
X145893912Y-58282089D01*
X145905473Y-58392906D02*
X145900653Y-58337397D01*
X145908368Y-58448548D02*
X145905473Y-58392906D01*
X145909333Y-58504258D02*
X145908368Y-58448548D01*
X144245526Y-60111391D02*
X144301235Y-60112356D01*
X144189883Y-60108496D02*
X144245526Y-60111391D01*
X144134374Y-60103676D02*
X144189883Y-60108496D01*
X144079066Y-60096935D02*
X144134374Y-60103676D01*
X144024024Y-60088282D02*
X144079066Y-60096935D01*
X143969315Y-60077728D02*
X144024024Y-60088282D01*
X143915005Y-60065285D02*
X143969315Y-60077728D01*
X143861158Y-60050968D02*
X143915005Y-60065285D01*
X143807839Y-60034794D02*
X143861158Y-60050968D01*
X143755113Y-60016783D02*
X143807839Y-60034794D01*
X143703043Y-59996955D02*
X143755113Y-60016783D01*
X143651690Y-59975336D02*
X143703043Y-59996955D01*
X143601117Y-59951951D02*
X143651690Y-59975336D01*
X143551385Y-59926828D02*
X143601117Y-59951951D01*
X143502553Y-59899997D02*
X143551385Y-59926828D01*
X143454680Y-59871490D02*
X143502553Y-59899997D01*
X143407823Y-59841343D02*
X143454680Y-59871490D01*
X143362039Y-59809590D02*
X143407823Y-59841343D01*
X143317382Y-59776269D02*
X143362039Y-59809590D01*
X143273906Y-59741422D02*
X143317382Y-59776269D01*
X143231664Y-59705090D02*
X143273906Y-59741422D01*
X143190705Y-59667316D02*
X143231664Y-59705090D01*
X143151080Y-59628146D02*
X143190705Y-59667316D01*
X143112836Y-59587627D02*
X143151080Y-59628146D01*
X143076018Y-59545807D02*
X143112836Y-59587627D01*
X143040671Y-59502736D02*
X143076018Y-59545807D01*
X143006837Y-59458467D02*
X143040671Y-59502736D01*
X142974558Y-59413053D02*
X143006837Y-59458467D01*
X142943871Y-59366547D02*
X142974558Y-59413053D01*
X142914813Y-59319006D02*
X142943871Y-59366547D01*
X142887420Y-59270487D02*
X142914813Y-59319006D01*
X142861724Y-59221049D02*
X142887420Y-59270487D01*
X142837756Y-59170750D02*
X142861724Y-59221049D01*
X142815545Y-59119650D02*
X142837756Y-59170750D01*
X142795118Y-59067812D02*
X142815545Y-59119650D01*
X142776499Y-59015297D02*
X142795118Y-59067812D01*
X142759710Y-58962169D02*
X142776499Y-59015297D01*
X142744772Y-58908491D02*
X142759710Y-58962169D01*
X142731703Y-58854328D02*
X142744772Y-58908491D01*
X142720517Y-58799745D02*
X142731703Y-58854328D01*
X142711229Y-58744807D02*
X142720517Y-58799745D01*
X142703850Y-58689580D02*
X142711229Y-58744807D01*
X142698389Y-58634130D02*
X142703850Y-58689580D01*
X142694852Y-58578525D02*
X142698389Y-58634130D01*
X142693244Y-58522831D02*
X142694852Y-58578525D01*
X142693565Y-58467114D02*
X142693244Y-58522831D01*
X142695817Y-58411442D02*
X142693565Y-58467114D01*
X142699996Y-58355881D02*
X142695817Y-58411442D01*
X142706097Y-58300498D02*
X142699996Y-58355881D01*
X142714114Y-58245360D02*
X142706097Y-58300498D01*
X142724035Y-58190533D02*
X142714114Y-58245360D01*
X142735850Y-58136082D02*
X142724035Y-58190533D01*
X142749545Y-58082074D02*
X142735850Y-58136082D01*
X142765102Y-58028572D02*
X142749545Y-58082074D01*
X142782503Y-57975641D02*
X142765102Y-58028572D01*
X142801728Y-57923345D02*
X142782503Y-57975641D01*
X142822752Y-57871747D02*
X142801728Y-57923345D01*
X142845552Y-57820907D02*
X142822752Y-57871747D01*
X142870099Y-57770888D02*
X142845552Y-57820907D01*
X142896364Y-57721750D02*
X142870099Y-57770888D01*
X142924316Y-57673550D02*
X142896364Y-57721750D01*
X142953920Y-57626348D02*
X142924316Y-57673550D01*
X142985142Y-57580200D02*
X142953920Y-57626348D01*
X143017944Y-57535162D02*
X142985142Y-57580200D01*
X143052287Y-57491286D02*
X143017944Y-57535162D01*
X143088129Y-57448627D02*
X143052287Y-57491286D01*
X143125427Y-57407235D02*
X143088129Y-57448627D01*
X143164137Y-57367160D02*
X143125427Y-57407235D01*
X143204212Y-57328450D02*
X143164137Y-57367160D01*
X143245604Y-57291152D02*
X143204212Y-57328450D01*
X145502067Y-57434686D02*
X145464293Y-57393728D01*
X145538400Y-57476929D02*
X145502067Y-57434686D01*
X145573247Y-57520405D02*
X145538400Y-57476929D01*
X145606567Y-57565061D02*
X145573247Y-57520405D01*
X145638320Y-57610846D02*
X145606567Y-57565061D01*
X145668468Y-57657703D02*
X145638320Y-57610846D01*
X145056191Y-59924124D02*
X145105284Y-59896912D01*
X145006179Y-59949607D02*
X145056191Y-59924124D01*
X144955307Y-59973329D02*
X145006179Y-59949607D01*
X144903639Y-59995260D02*
X144955307Y-59973329D01*
X144851237Y-60015376D02*
X144903639Y-59995260D01*
X145908354Y-58560379D02*
X145909333Y-58504258D01*
X145905416Y-58616433D02*
X145908354Y-58560379D01*
X145900524Y-58672350D02*
X145905416Y-58616433D01*
X145893683Y-58728062D02*
X145900524Y-58672350D01*
X145884903Y-58783501D02*
X145893683Y-58728062D01*
X145792238Y-59106662D02*
X145812353Y-59054260D01*
X145770306Y-59158330D02*
X145792238Y-59106662D01*
X145746584Y-59209202D02*
X145770306Y-59158330D01*
X145721102Y-59259214D02*
X145746584Y-59209202D01*
X145693889Y-59308307D02*
X145721102Y-59259214D01*
X145664980Y-59356420D02*
X145693889Y-59308307D01*
X145634409Y-59403495D02*
X145664980Y-59356420D01*
X145602214Y-59449474D02*
X145634409Y-59403495D01*
X145568434Y-59494302D02*
X145602214Y-59449474D01*
X145533110Y-59537923D02*
X145568434Y-59494302D01*
X144301235Y-60112356D02*
X144357357Y-60111376D01*
X144798165Y-60033650D02*
X144851237Y-60015376D01*
X144744487Y-60050061D02*
X144798165Y-60033650D01*
X144690269Y-60064589D02*
X144744487Y-60050061D01*
X144635577Y-60077215D02*
X144690269Y-60064589D01*
X144580478Y-60087925D02*
X144635577Y-60077215D01*
X144469327Y-60103547D02*
X144525039Y-60096706D01*
X145496285Y-59580285D02*
X145533110Y-59537923D01*
X145458004Y-59621337D02*
X145496285Y-59580285D01*
X145418314Y-59661027D02*
X145458004Y-59621337D01*
X145377263Y-59699308D02*
X145418314Y-59661027D01*
X145334901Y-59736132D02*
X145377263Y-59699308D01*
X145255444Y-57209860D02*
X145210030Y-57177580D01*
X145299714Y-57243694D02*
X145255444Y-57209860D01*
X145342784Y-57279041D02*
X145299714Y-57243694D01*
X145384604Y-57315858D02*
X145342784Y-57279041D01*
X145425123Y-57354103D02*
X145384604Y-57315858D01*
X145464293Y-57393728D02*
X145425123Y-57354103D01*
X144357357Y-60111376D02*
X144413410Y-60108439D01*
X145291279Y-59771456D02*
X145334901Y-59736132D01*
X145246451Y-59805237D02*
X145291279Y-59771456D01*
X145200472Y-59837432D02*
X145246451Y-59805237D01*
X145153397Y-59868002D02*
X145200472Y-59837432D01*
X145105284Y-59896912D02*
X145153397Y-59868002D01*
X144525039Y-60096706D02*
X144580478Y-60087925D01*
X145874193Y-58838600D02*
X145884903Y-58783501D01*
X145861566Y-58893292D02*
X145874193Y-58838600D01*
X145847038Y-58947510D02*
X145861566Y-58893292D01*
X145830627Y-59001187D02*
X145847038Y-58947510D01*
X145812353Y-59054260D02*
X145830627Y-59001187D01*
X144864789Y-56998141D02*
X144812275Y-56979522D01*
X144916628Y-57018568D02*
X144864789Y-56998141D01*
X144967727Y-57040779D02*
X144916628Y-57018568D01*
X145018026Y-57064747D02*
X144967727Y-57040779D01*
X145067465Y-57090443D02*
X145018026Y-57064747D01*
X145115984Y-57117836D02*
X145067465Y-57090443D01*
X145163524Y-57146893D02*
X145115984Y-57117836D01*
X145210030Y-57177580D02*
X145163524Y-57146893D01*
X144413410Y-60108439D02*
X144469327Y-60103547D01*
X145696974Y-57705576D02*
X145668468Y-57657703D01*
X145723805Y-57754408D02*
X145696974Y-57705576D01*
X145748928Y-57804140D02*
X145723805Y-57754408D01*
X145772314Y-57854713D02*
X145748928Y-57804140D01*
X145793933Y-57906065D02*
X145772314Y-57854713D01*
X145813760Y-57958136D02*
X145793933Y-57906065D01*
M02*
