G04 #@! TF.GenerationSoftware,KiCad,Pcbnew,5.0.0-fee4fd1~66~ubuntu16.04.1*
G04 #@! TF.CreationDate,2018-11-06T10:27:56-05:00*
G04 #@! TF.ProjectId,circuit,636972637569742E6B696361645F7063,rev?*
G04 #@! TF.SameCoordinates,Original*
G04 #@! TF.FileFunction,Legend,Top*
G04 #@! TF.FilePolarity,Positive*
%FSLAX46Y46*%
G04 Gerber Fmt 4.6, Leading zero omitted, Abs format (unit mm)*
G04 Created by KiCad (PCBNEW 5.0.0-fee4fd1~66~ubuntu16.04.1) date Tue Nov  6 10:27:56 2018*
%MOMM*%
%LPD*%
G01*
G04 APERTURE LIST*
%ADD10C,0.300000*%
%ADD11C,0.152400*%
%ADD12C,0.120000*%
%ADD13C,0.100000*%
%ADD14C,0.150000*%
G04 APERTURE END LIST*
D10*
X131282285Y-104298285D02*
X131996571Y-104298285D01*
X130496571Y-104798285D02*
X131282285Y-104298285D01*
X130496571Y-103798285D01*
X131425142Y-103298285D02*
X131425142Y-102155428D01*
X131425142Y-101441142D02*
X131425142Y-100298285D01*
X131425142Y-99584000D02*
X131425142Y-98441142D01*
X130996571Y-97726857D02*
X131425142Y-96584000D01*
X131853714Y-97726857D01*
X130913714Y-106366571D02*
X131913714Y-107866571D01*
X131913714Y-106366571D02*
X130913714Y-107866571D01*
X132485142Y-107295142D02*
X133628000Y-107295142D01*
X134342285Y-107295142D02*
X135485142Y-107295142D01*
X136199428Y-107295142D02*
X137342285Y-107295142D01*
X138056571Y-106866571D02*
X139199428Y-107295142D01*
X138056571Y-107723714D01*
X149792571Y-108306857D02*
X151292571Y-108306857D01*
X149864000Y-108306857D02*
X149792571Y-108164000D01*
X149792571Y-107878285D01*
X149864000Y-107735428D01*
X149935428Y-107664000D01*
X150078285Y-107592571D01*
X150506857Y-107592571D01*
X150649714Y-107664000D01*
X150721142Y-107735428D01*
X150792571Y-107878285D01*
X150792571Y-108164000D01*
X150721142Y-108306857D01*
X150792571Y-106949714D02*
X149792571Y-106949714D01*
X149292571Y-106949714D02*
X149364000Y-107021142D01*
X149435428Y-106949714D01*
X149364000Y-106878285D01*
X149292571Y-106949714D01*
X149435428Y-106949714D01*
X149792571Y-106235428D02*
X150792571Y-106235428D01*
X149935428Y-106235428D02*
X149864000Y-106164000D01*
X149792571Y-106021142D01*
X149792571Y-105806857D01*
X149864000Y-105664000D01*
X150006857Y-105592571D01*
X150792571Y-105592571D01*
X150935428Y-105235428D02*
X150935428Y-104092571D01*
X150792571Y-102949714D02*
X150792571Y-103806857D01*
X150792571Y-103378285D02*
X149292571Y-103378285D01*
X149506857Y-103521142D01*
X149649714Y-103664000D01*
X149721142Y-103806857D01*
X147260571Y-98230285D02*
X147260571Y-97373142D01*
X148760571Y-97801714D02*
X147260571Y-97801714D01*
X147260571Y-96587428D02*
X147260571Y-96301714D01*
X147332000Y-96158857D01*
X147474857Y-96016000D01*
X147760571Y-95944571D01*
X148260571Y-95944571D01*
X148546285Y-96016000D01*
X148689142Y-96158857D01*
X148760571Y-96301714D01*
X148760571Y-96587428D01*
X148689142Y-96730285D01*
X148546285Y-96873142D01*
X148260571Y-96944571D01*
X147760571Y-96944571D01*
X147474857Y-96873142D01*
X147332000Y-96730285D01*
X147260571Y-96587428D01*
X148760571Y-95301714D02*
X147260571Y-95301714D01*
X147260571Y-94730285D01*
X147332000Y-94587428D01*
X147403428Y-94516000D01*
X147546285Y-94444571D01*
X147760571Y-94444571D01*
X147903428Y-94516000D01*
X147974857Y-94587428D01*
X148046285Y-94730285D01*
X148046285Y-95301714D01*
X195471142Y-97220952D02*
X195592095Y-97357023D01*
X195713047Y-97735000D01*
X195713047Y-97976904D01*
X195592095Y-98324642D01*
X195350190Y-98536309D01*
X195108285Y-98627023D01*
X194624476Y-98687500D01*
X194261619Y-98642142D01*
X193777809Y-98460714D01*
X193535904Y-98309523D01*
X193294000Y-98037380D01*
X193173047Y-97659404D01*
X193173047Y-97417500D01*
X193294000Y-97069761D01*
X193414952Y-96963928D01*
X195713047Y-94711190D02*
X194503523Y-95406666D01*
X195713047Y-96162619D02*
X193173047Y-95845119D01*
X193173047Y-94877500D01*
X193294000Y-94650714D01*
X193414952Y-94544880D01*
X193656857Y-94454166D01*
X194019714Y-94499523D01*
X194261619Y-94650714D01*
X194382571Y-94786785D01*
X194503523Y-95043809D01*
X194503523Y-96011428D01*
X194987333Y-93652857D02*
X194987333Y-92443333D01*
X195713047Y-93985476D02*
X193173047Y-92821309D01*
X195713047Y-92292142D01*
X194382571Y-90432500D02*
X194503523Y-90084761D01*
X194624476Y-89978928D01*
X194866380Y-89888214D01*
X195229238Y-89933571D01*
X195471142Y-90084761D01*
X195592095Y-90220833D01*
X195713047Y-90477857D01*
X195713047Y-91445476D01*
X193173047Y-91127976D01*
X193173047Y-90281309D01*
X193294000Y-90054523D01*
X193414952Y-89948690D01*
X193656857Y-89857976D01*
X193898761Y-89888214D01*
X194140666Y-90039404D01*
X194261619Y-90175476D01*
X194382571Y-90432500D01*
X194382571Y-91279166D01*
X193173047Y-88829880D02*
X195713047Y-88542619D01*
X193898761Y-87832023D01*
X195713047Y-87575000D01*
X193173047Y-86652738D01*
X193173047Y-85201309D02*
X193173047Y-84717500D01*
X193294000Y-84490714D01*
X193535904Y-84279047D01*
X194019714Y-84218571D01*
X194866380Y-84324404D01*
X195350190Y-84505833D01*
X195592095Y-84777976D01*
X195713047Y-85035000D01*
X195713047Y-85518809D01*
X195592095Y-85745595D01*
X195350190Y-85957261D01*
X194866380Y-86017738D01*
X194019714Y-85911904D01*
X193535904Y-85730476D01*
X193294000Y-85458333D01*
X193173047Y-85201309D01*
X195713047Y-81890238D02*
X194503523Y-82585714D01*
X195713047Y-83341666D02*
X193173047Y-83024166D01*
X193173047Y-82056547D01*
X193294000Y-81829761D01*
X193414952Y-81723928D01*
X193656857Y-81633214D01*
X194019714Y-81678571D01*
X194261619Y-81829761D01*
X194382571Y-81965833D01*
X194503523Y-82222857D01*
X194503523Y-83190476D01*
X195713047Y-80801666D02*
X193173047Y-80484166D01*
X195713047Y-79350238D02*
X194261619Y-80257380D01*
X193173047Y-79032738D02*
X194624476Y-80665595D01*
X195592095Y-78367500D02*
X195713047Y-78019761D01*
X195713047Y-77415000D01*
X195592095Y-77157976D01*
X195471142Y-77021904D01*
X195229238Y-76870714D01*
X194987333Y-76840476D01*
X194745428Y-76931190D01*
X194624476Y-77037023D01*
X194503523Y-77263809D01*
X194382571Y-77732500D01*
X194261619Y-77959285D01*
X194140666Y-78065119D01*
X193898761Y-78155833D01*
X193656857Y-78125595D01*
X193414952Y-77974404D01*
X193294000Y-77838333D01*
X193173047Y-77581309D01*
X193173047Y-76976547D01*
X193294000Y-76628809D01*
D11*
G04 #@! TO.C,U5*
X156085540Y-83720501D02*
X156794200Y-83720501D01*
X156085540Y-79220499D02*
X156794200Y-79220499D01*
X156085540Y-82831501D02*
X156794200Y-82831501D01*
X156085540Y-78331499D02*
X156794200Y-78331499D01*
D12*
G04 #@! TO.C,C1*
X134430400Y-90771600D02*
X134430400Y-91771600D01*
X136130400Y-91771600D02*
X136130400Y-90771600D01*
G04 #@! TO.C,C2*
X168301300Y-103741600D02*
X168301300Y-104741600D01*
X170001300Y-104741600D02*
X170001300Y-103741600D01*
G04 #@! TO.C,C3*
X174079800Y-103805100D02*
X174079800Y-104805100D01*
X175779800Y-104805100D02*
X175779800Y-103805100D01*
G04 #@! TO.C,C4*
X166864400Y-90593800D02*
X166864400Y-89593800D01*
X165164400Y-89593800D02*
X165164400Y-90593800D01*
G04 #@! TO.C,C5*
X189002300Y-74455400D02*
X189002300Y-75455400D01*
X190702300Y-75455400D02*
X190702300Y-74455400D01*
G04 #@! TO.C,C7*
X165743000Y-104228000D02*
X166743000Y-104228000D01*
X166743000Y-102528000D02*
X165743000Y-102528000D01*
D13*
G04 #@! TO.C,D1*
X190164200Y-79389400D02*
X189814200Y-79389400D01*
X189814200Y-79389400D02*
X189464200Y-79389400D01*
X190164200Y-79039400D02*
X189814200Y-79389400D01*
X190114200Y-79039400D02*
X190164200Y-79039400D01*
X190164200Y-79039400D02*
X190114200Y-79039400D01*
X189464200Y-79039400D02*
X190114200Y-79039400D01*
X189514200Y-79089400D02*
X189464200Y-79039400D01*
X189814200Y-79389400D02*
X189514200Y-79089400D01*
D12*
X189114200Y-80989400D02*
X190514200Y-80989400D01*
X190514200Y-80989400D02*
X190514200Y-78189400D01*
X189114200Y-80989400D02*
X189114200Y-78189400D01*
G04 #@! TO.C,D2*
X186996300Y-97488600D02*
X186996300Y-100288600D01*
X185596300Y-97488600D02*
X185596300Y-100288600D01*
X186996300Y-97488600D02*
X185596300Y-97488600D01*
D13*
X186296300Y-99088600D02*
X186596300Y-99388600D01*
X186596300Y-99388600D02*
X186646300Y-99438600D01*
X186646300Y-99438600D02*
X185996300Y-99438600D01*
X185946300Y-99438600D02*
X185996300Y-99438600D01*
X185996300Y-99438600D02*
X185946300Y-99438600D01*
X185946300Y-99438600D02*
X186296300Y-99088600D01*
X186296300Y-99088600D02*
X186646300Y-99088600D01*
X185946300Y-99088600D02*
X186296300Y-99088600D01*
D14*
G04 #@! TO.C,J1*
X132969000Y-65786000D02*
X132969000Y-70866000D01*
X132689000Y-62966000D02*
X134239000Y-62966000D01*
X135509000Y-63246000D02*
X135509000Y-65786000D01*
X135509000Y-65786000D02*
X132969000Y-65786000D01*
X132969000Y-88849200D02*
X138049000Y-88849200D01*
X138049000Y-70866000D02*
X138049000Y-65786000D01*
X132689000Y-62966000D02*
X132689000Y-64516000D01*
X138049000Y-63246000D02*
X135509000Y-63246000D01*
X138049000Y-65786000D02*
X138049000Y-63246000D01*
X132969000Y-70840600D02*
X132969000Y-88849200D01*
X138049000Y-70866000D02*
X138049000Y-88849200D01*
G04 #@! TO.C,J2*
X183794400Y-65557400D02*
X188874400Y-65557400D01*
X180974400Y-65837400D02*
X180974400Y-64287400D01*
X181254400Y-63017400D02*
X183794400Y-63017400D01*
X183794400Y-63017400D02*
X183794400Y-65557400D01*
X188874400Y-65557400D02*
X188874400Y-60477400D01*
X188874400Y-60477400D02*
X183794400Y-60477400D01*
X180974400Y-65837400D02*
X182524400Y-65837400D01*
X181254400Y-60477400D02*
X181254400Y-63017400D01*
X183794400Y-60477400D02*
X181254400Y-60477400D01*
G04 #@! TO.C,P1*
X189890400Y-85623400D02*
X189890400Y-83083400D01*
X189890400Y-83083400D02*
X187350400Y-83083400D01*
X184530400Y-82803400D02*
X184530400Y-84353400D01*
X189890400Y-90703400D02*
X189890400Y-85623400D01*
X184810400Y-90703400D02*
X189890400Y-90703400D01*
X187350400Y-85623400D02*
X184810400Y-85623400D01*
X187350400Y-83083400D02*
X187350400Y-85623400D01*
X184530400Y-82803400D02*
X186080400Y-82803400D01*
X184810400Y-85623400D02*
X184810400Y-90703400D01*
D12*
G04 #@! TO.C,R1*
X153775300Y-89544600D02*
X153775300Y-90744600D01*
X152015300Y-90744600D02*
X152015300Y-89544600D01*
G04 #@! TO.C,R2*
X151298800Y-89544600D02*
X151298800Y-90744600D01*
X149538800Y-90744600D02*
X149538800Y-89544600D01*
G04 #@! TO.C,R3*
X134204600Y-90469200D02*
X134204600Y-91669200D01*
X132444600Y-91669200D02*
X132444600Y-90469200D01*
G04 #@! TO.C,R4*
X147609000Y-72272000D02*
X148809000Y-72272000D01*
X148809000Y-74032000D02*
X147609000Y-74032000D01*
G04 #@! TO.C,R5*
X154213000Y-72272000D02*
X155413000Y-72272000D01*
X155413000Y-74032000D02*
X154213000Y-74032000D01*
G04 #@! TO.C,R6*
X175978235Y-62723395D02*
X175978235Y-63923395D01*
X174218235Y-63923395D02*
X174218235Y-62723395D01*
G04 #@! TO.C,R7*
X148809000Y-75937000D02*
X147609000Y-75937000D01*
X147609000Y-74177000D02*
X148809000Y-74177000D01*
G04 #@! TO.C,R8*
X174703587Y-76914614D02*
X174703587Y-75714614D01*
X176463587Y-75714614D02*
X176463587Y-76914614D01*
G04 #@! TO.C,R9*
X156663500Y-72990000D02*
X156663500Y-71790000D01*
X158423500Y-71790000D02*
X158423500Y-72990000D01*
G04 #@! TO.C,R10*
X174218235Y-67352395D02*
X174218235Y-66152395D01*
X175978235Y-66152395D02*
X175978235Y-67352395D01*
G04 #@! TO.C,R11*
X174703587Y-80407114D02*
X174703587Y-79207114D01*
X176463587Y-79207114D02*
X176463587Y-80407114D01*
G04 #@! TO.C,R12*
X164125800Y-89544600D02*
X164125800Y-90744600D01*
X162365800Y-90744600D02*
X162365800Y-89544600D01*
G04 #@! TO.C,R13*
X157285800Y-90744600D02*
X157285800Y-89544600D01*
X159045800Y-89544600D02*
X159045800Y-90744600D01*
G04 #@! TO.C,R14*
X187605000Y-81118600D02*
X186405000Y-81118600D01*
X186405000Y-79358600D02*
X187605000Y-79358600D01*
G04 #@! TO.C,R15*
X187176300Y-94815100D02*
X187176300Y-96015100D01*
X185416300Y-96015100D02*
X185416300Y-94815100D01*
G04 #@! TO.C,R16*
X147736000Y-62874000D02*
X148936000Y-62874000D01*
X148936000Y-64634000D02*
X147736000Y-64634000D01*
G04 #@! TO.C,R17*
X154848000Y-62874000D02*
X156048000Y-62874000D01*
X156048000Y-64634000D02*
X154848000Y-64634000D01*
G04 #@! TO.C,R18*
X162829087Y-75644614D02*
X162829087Y-74444614D01*
X164589087Y-74444614D02*
X164589087Y-75644614D01*
G04 #@! TO.C,R19*
X148997000Y-62602000D02*
X147797000Y-62602000D01*
X147797000Y-60842000D02*
X148997000Y-60842000D01*
G04 #@! TO.C,R20*
X163913235Y-61442000D02*
X163913235Y-62642000D01*
X162153235Y-62642000D02*
X162153235Y-61442000D01*
G04 #@! TO.C,R21*
X156727000Y-66894000D02*
X156727000Y-65694000D01*
X158487000Y-65694000D02*
X158487000Y-66894000D01*
G04 #@! TO.C,R22*
X164589087Y-78000614D02*
X164589087Y-79200614D01*
X162829087Y-79200614D02*
X162829087Y-78000614D01*
G04 #@! TO.C,R23*
X163913235Y-64818895D02*
X163913235Y-66018895D01*
X162153235Y-66018895D02*
X162153235Y-64818895D01*
G04 #@! TO.C,R24*
X156505800Y-89544600D02*
X156505800Y-90744600D01*
X154745800Y-90744600D02*
X154745800Y-89544600D01*
G04 #@! TO.C,R25*
X161585800Y-89544600D02*
X161585800Y-90744600D01*
X159825800Y-90744600D02*
X159825800Y-89544600D01*
G04 #@! TO.C,R26*
X185181800Y-69612400D02*
X183981800Y-69612400D01*
X183981800Y-67852400D02*
X185181800Y-67852400D01*
G04 #@! TO.C,R27*
X148885800Y-99704600D02*
X148885800Y-100904600D01*
X147125800Y-100904600D02*
X147125800Y-99704600D01*
G04 #@! TO.C,R28*
X168639600Y-90693800D02*
X168639600Y-89493800D01*
X170399600Y-89493800D02*
X170399600Y-90693800D01*
D14*
G04 #@! TO.C,U1*
X147467000Y-70528000D02*
X147467000Y-71903000D01*
X156342000Y-70528000D02*
X156342000Y-66378000D01*
X147442000Y-70528000D02*
X147442000Y-66378000D01*
X156342000Y-70528000D02*
X156227000Y-70528000D01*
X156342000Y-66378000D02*
X156227000Y-66378000D01*
X147442000Y-66378000D02*
X147557000Y-66378000D01*
X147442000Y-70528000D02*
X147467000Y-70528000D01*
D11*
G04 #@! TO.C,U2*
X143814800Y-97739200D02*
X143021252Y-97739200D01*
X140411200Y-97739200D02*
X140411200Y-98032747D01*
X140411200Y-101142800D02*
X141204748Y-101142800D01*
X143814800Y-101142800D02*
X143814800Y-100849253D01*
X143814800Y-98032747D02*
X143814800Y-97739200D01*
X141204748Y-97739200D02*
X140411200Y-97739200D01*
X140411200Y-100849253D02*
X140411200Y-101142800D01*
X143021252Y-101142800D02*
X143814800Y-101142800D01*
X140081000Y-99131501D02*
X140081000Y-98750501D01*
X140081000Y-98750501D02*
X140335000Y-98750501D01*
X140335000Y-98750501D02*
X140335000Y-99131501D01*
X140335000Y-99131501D02*
X140081000Y-99131501D01*
D14*
G04 #@! TO.C,U3*
X171942735Y-68242895D02*
X171942735Y-67587895D01*
X166442735Y-68242895D02*
X166442735Y-67492895D01*
X166442735Y-61832895D02*
X166442735Y-62582895D01*
X171942735Y-61832895D02*
X171942735Y-62582895D01*
X171942735Y-68242895D02*
X166442735Y-68242895D01*
X171942735Y-61832895D02*
X166442735Y-61832895D01*
X171942735Y-67587895D02*
X173692735Y-67587895D01*
G04 #@! TO.C,U4*
X172428087Y-80642614D02*
X174178087Y-80642614D01*
X172428087Y-74887614D02*
X166928087Y-74887614D01*
X172428087Y-81297614D02*
X166928087Y-81297614D01*
X172428087Y-74887614D02*
X172428087Y-75637614D01*
X166928087Y-74887614D02*
X166928087Y-75637614D01*
X166928087Y-81297614D02*
X166928087Y-80547614D01*
X172428087Y-81297614D02*
X172428087Y-80642614D01*
G04 #@! TO.C,U7*
X139186000Y-81880000D02*
X139186000Y-75905000D01*
X144711000Y-80305000D02*
X144711000Y-75905000D01*
G04 #@! TO.C,U8*
X144711000Y-69002000D02*
X144711000Y-64602000D01*
X139186000Y-70577000D02*
X139186000Y-64602000D01*
D11*
G04 #@! TO.C,U9*
X182077799Y-78651400D02*
X187339801Y-78651400D01*
X187339801Y-78651400D02*
X187339801Y-78378139D01*
X187339801Y-69989400D02*
X182077799Y-69989400D01*
X182077799Y-69989400D02*
X182077799Y-70262661D01*
X182077799Y-78378139D02*
X182077799Y-78651400D01*
X187339801Y-70262661D02*
X187339801Y-69989400D01*
X180283400Y-70745400D02*
G75*
G03X180283400Y-70745400I-76200J0D01*
G01*
D14*
G04 #@! TO.C,U10*
X149301200Y-102184200D02*
X149301200Y-92024200D01*
X149301200Y-102184200D02*
X184861200Y-102184200D01*
X149301200Y-92024200D02*
X184861200Y-92024200D01*
X184861200Y-102184200D02*
X184861200Y-92024200D01*
D13*
G04 #@! TO.C,Y1*
X170408800Y-106305100D02*
X170408800Y-104305100D01*
X170408800Y-106305100D02*
X172008800Y-106305100D01*
D12*
G04 #@! TO.C,U6*
X143566000Y-90426000D02*
X143566000Y-91886000D01*
X140406000Y-90426000D02*
X140406000Y-92586000D01*
X140406000Y-90426000D02*
X141336000Y-90426000D01*
X143566000Y-90426000D02*
X142636000Y-90426000D01*
G04 #@! TO.C,C8*
X137351400Y-99220400D02*
X137351400Y-100220400D01*
X139051400Y-100220400D02*
X139051400Y-99220400D01*
G04 #@! TO.C,R29*
X141233000Y-95545200D02*
X141233000Y-94345200D01*
X142993000Y-94345200D02*
X142993000Y-95545200D01*
G04 #@! TO.C,R30*
X139868200Y-97450800D02*
X138668200Y-97450800D01*
X138668200Y-95690800D02*
X139868200Y-95690800D01*
G04 #@! TO.C,C6*
X188972300Y-71935900D02*
X188972300Y-70735900D01*
X190732300Y-70735900D02*
X190732300Y-71935900D01*
G04 #@! TO.C,C9*
X145630000Y-91670000D02*
X145630000Y-90670000D01*
X143930000Y-90670000D02*
X143930000Y-91670000D01*
G04 #@! TO.C,C10*
X138342000Y-90670000D02*
X138342000Y-91670000D01*
X140042000Y-91670000D02*
X140042000Y-90670000D01*
G04 #@! TO.C,F1*
X191888000Y-64678000D02*
X191888000Y-65878000D01*
X190128000Y-65878000D02*
X190128000Y-64678000D01*
G04 #@! TO.C,U5*
D14*
X151344380Y-81787904D02*
X152153904Y-81787904D01*
X152249142Y-81740285D01*
X152296761Y-81692666D01*
X152344380Y-81597428D01*
X152344380Y-81406952D01*
X152296761Y-81311714D01*
X152249142Y-81264095D01*
X152153904Y-81216476D01*
X151344380Y-81216476D01*
X151344380Y-80264095D02*
X151344380Y-80740285D01*
X151820571Y-80787904D01*
X151772952Y-80740285D01*
X151725333Y-80645047D01*
X151725333Y-80406952D01*
X151772952Y-80311714D01*
X151820571Y-80264095D01*
X151915809Y-80216476D01*
X152153904Y-80216476D01*
X152249142Y-80264095D01*
X152296761Y-80311714D01*
X152344380Y-80406952D01*
X152344380Y-80645047D01*
X152296761Y-80740285D01*
X152249142Y-80787904D01*
X157453080Y-86161001D02*
X157691176Y-86161001D01*
X157595938Y-86399096D02*
X157691176Y-86161001D01*
X157595938Y-85922905D01*
X157881652Y-86303858D02*
X157691176Y-86161001D01*
X157881652Y-86018143D01*
G04 #@! TO.C,C1*
X133910342Y-91641466D02*
X133957961Y-91689085D01*
X134005580Y-91831942D01*
X134005580Y-91927180D01*
X133957961Y-92070038D01*
X133862723Y-92165276D01*
X133767485Y-92212895D01*
X133577009Y-92260514D01*
X133434152Y-92260514D01*
X133243676Y-92212895D01*
X133148438Y-92165276D01*
X133053200Y-92070038D01*
X133005580Y-91927180D01*
X133005580Y-91831942D01*
X133053200Y-91689085D01*
X133100819Y-91641466D01*
X134005580Y-90689085D02*
X134005580Y-91260514D01*
X134005580Y-90974800D02*
X133005580Y-90974800D01*
X133148438Y-91070038D01*
X133243676Y-91165276D01*
X133291295Y-91260514D01*
G04 #@! TO.C,C2*
X167997142Y-105576666D02*
X168044761Y-105624285D01*
X168092380Y-105767142D01*
X168092380Y-105862380D01*
X168044761Y-106005238D01*
X167949523Y-106100476D01*
X167854285Y-106148095D01*
X167663809Y-106195714D01*
X167520952Y-106195714D01*
X167330476Y-106148095D01*
X167235238Y-106100476D01*
X167140000Y-106005238D01*
X167092380Y-105862380D01*
X167092380Y-105767142D01*
X167140000Y-105624285D01*
X167187619Y-105576666D01*
X167187619Y-105195714D02*
X167140000Y-105148095D01*
X167092380Y-105052857D01*
X167092380Y-104814761D01*
X167140000Y-104719523D01*
X167187619Y-104671904D01*
X167282857Y-104624285D01*
X167378095Y-104624285D01*
X167520952Y-104671904D01*
X168092380Y-105243333D01*
X168092380Y-104624285D01*
G04 #@! TO.C,C3*
X176887142Y-104560666D02*
X176934761Y-104608285D01*
X176982380Y-104751142D01*
X176982380Y-104846380D01*
X176934761Y-104989238D01*
X176839523Y-105084476D01*
X176744285Y-105132095D01*
X176553809Y-105179714D01*
X176410952Y-105179714D01*
X176220476Y-105132095D01*
X176125238Y-105084476D01*
X176030000Y-104989238D01*
X175982380Y-104846380D01*
X175982380Y-104751142D01*
X176030000Y-104608285D01*
X176077619Y-104560666D01*
X175982380Y-104227333D02*
X175982380Y-103608285D01*
X176363333Y-103941619D01*
X176363333Y-103798761D01*
X176410952Y-103703523D01*
X176458571Y-103655904D01*
X176553809Y-103608285D01*
X176791904Y-103608285D01*
X176887142Y-103655904D01*
X176934761Y-103703523D01*
X176982380Y-103798761D01*
X176982380Y-104084476D01*
X176934761Y-104179714D01*
X176887142Y-104227333D01*
G04 #@! TO.C,C4*
X166219142Y-87542666D02*
X166266761Y-87590285D01*
X166314380Y-87733142D01*
X166314380Y-87828380D01*
X166266761Y-87971238D01*
X166171523Y-88066476D01*
X166076285Y-88114095D01*
X165885809Y-88161714D01*
X165742952Y-88161714D01*
X165552476Y-88114095D01*
X165457238Y-88066476D01*
X165362000Y-87971238D01*
X165314380Y-87828380D01*
X165314380Y-87733142D01*
X165362000Y-87590285D01*
X165409619Y-87542666D01*
X165647714Y-86685523D02*
X166314380Y-86685523D01*
X165266761Y-86923619D02*
X165981047Y-87161714D01*
X165981047Y-86542666D01*
G04 #@! TO.C,C5*
X191873142Y-75096666D02*
X191920761Y-75144285D01*
X191968380Y-75287142D01*
X191968380Y-75382380D01*
X191920761Y-75525238D01*
X191825523Y-75620476D01*
X191730285Y-75668095D01*
X191539809Y-75715714D01*
X191396952Y-75715714D01*
X191206476Y-75668095D01*
X191111238Y-75620476D01*
X191016000Y-75525238D01*
X190968380Y-75382380D01*
X190968380Y-75287142D01*
X191016000Y-75144285D01*
X191063619Y-75096666D01*
X190968380Y-74191904D02*
X190968380Y-74668095D01*
X191444571Y-74715714D01*
X191396952Y-74668095D01*
X191349333Y-74572857D01*
X191349333Y-74334761D01*
X191396952Y-74239523D01*
X191444571Y-74191904D01*
X191539809Y-74144285D01*
X191777904Y-74144285D01*
X191873142Y-74191904D01*
X191920761Y-74239523D01*
X191968380Y-74334761D01*
X191968380Y-74572857D01*
X191920761Y-74668095D01*
X191873142Y-74715714D01*
G04 #@! TO.C,C7*
X165711142Y-105322666D02*
X165758761Y-105370285D01*
X165806380Y-105513142D01*
X165806380Y-105608380D01*
X165758761Y-105751238D01*
X165663523Y-105846476D01*
X165568285Y-105894095D01*
X165377809Y-105941714D01*
X165234952Y-105941714D01*
X165044476Y-105894095D01*
X164949238Y-105846476D01*
X164854000Y-105751238D01*
X164806380Y-105608380D01*
X164806380Y-105513142D01*
X164854000Y-105370285D01*
X164901619Y-105322666D01*
X164806380Y-104989333D02*
X164806380Y-104322666D01*
X165806380Y-104751238D01*
G04 #@! TO.C,D1*
X190393580Y-76942995D02*
X189393580Y-76942995D01*
X189393580Y-76704900D01*
X189441200Y-76562042D01*
X189536438Y-76466804D01*
X189631676Y-76419185D01*
X189822152Y-76371566D01*
X189965009Y-76371566D01*
X190155485Y-76419185D01*
X190250723Y-76466804D01*
X190345961Y-76562042D01*
X190393580Y-76704900D01*
X190393580Y-76942995D01*
X190393580Y-75419185D02*
X190393580Y-75990614D01*
X190393580Y-75704900D02*
X189393580Y-75704900D01*
X189536438Y-75800138D01*
X189631676Y-75895376D01*
X189679295Y-75990614D01*
G04 #@! TO.C,D2*
X188198680Y-100026695D02*
X187198680Y-100026695D01*
X187198680Y-99788600D01*
X187246300Y-99645742D01*
X187341538Y-99550504D01*
X187436776Y-99502885D01*
X187627252Y-99455266D01*
X187770109Y-99455266D01*
X187960585Y-99502885D01*
X188055823Y-99550504D01*
X188151061Y-99645742D01*
X188198680Y-99788600D01*
X188198680Y-100026695D01*
X187293919Y-99074314D02*
X187246300Y-99026695D01*
X187198680Y-98931457D01*
X187198680Y-98693361D01*
X187246300Y-98598123D01*
X187293919Y-98550504D01*
X187389157Y-98502885D01*
X187484395Y-98502885D01*
X187627252Y-98550504D01*
X188198680Y-99121933D01*
X188198680Y-98502885D01*
G04 #@! TO.C,J1*
X132294380Y-62309333D02*
X133008666Y-62309333D01*
X133151523Y-62356952D01*
X133246761Y-62452190D01*
X133294380Y-62595047D01*
X133294380Y-62690285D01*
X133294380Y-61309333D02*
X133294380Y-61880761D01*
X133294380Y-61595047D02*
X132294380Y-61595047D01*
X132437238Y-61690285D01*
X132532476Y-61785523D01*
X132580095Y-61880761D01*
G04 #@! TO.C,R1*
X153360380Y-87796666D02*
X152884190Y-88130000D01*
X153360380Y-88368095D02*
X152360380Y-88368095D01*
X152360380Y-87987142D01*
X152408000Y-87891904D01*
X152455619Y-87844285D01*
X152550857Y-87796666D01*
X152693714Y-87796666D01*
X152788952Y-87844285D01*
X152836571Y-87891904D01*
X152884190Y-87987142D01*
X152884190Y-88368095D01*
X153360380Y-86844285D02*
X153360380Y-87415714D01*
X153360380Y-87130000D02*
X152360380Y-87130000D01*
X152503238Y-87225238D01*
X152598476Y-87320476D01*
X152646095Y-87415714D01*
G04 #@! TO.C,R2*
X150566380Y-87796666D02*
X150090190Y-88130000D01*
X150566380Y-88368095D02*
X149566380Y-88368095D01*
X149566380Y-87987142D01*
X149614000Y-87891904D01*
X149661619Y-87844285D01*
X149756857Y-87796666D01*
X149899714Y-87796666D01*
X149994952Y-87844285D01*
X150042571Y-87891904D01*
X150090190Y-87987142D01*
X150090190Y-88368095D01*
X149661619Y-87415714D02*
X149614000Y-87368095D01*
X149566380Y-87272857D01*
X149566380Y-87034761D01*
X149614000Y-86939523D01*
X149661619Y-86891904D01*
X149756857Y-86844285D01*
X149852095Y-86844285D01*
X149994952Y-86891904D01*
X150566380Y-87463333D01*
X150566380Y-86844285D01*
G04 #@! TO.C,R3*
X133802380Y-93892666D02*
X133326190Y-94226000D01*
X133802380Y-94464095D02*
X132802380Y-94464095D01*
X132802380Y-94083142D01*
X132850000Y-93987904D01*
X132897619Y-93940285D01*
X132992857Y-93892666D01*
X133135714Y-93892666D01*
X133230952Y-93940285D01*
X133278571Y-93987904D01*
X133326190Y-94083142D01*
X133326190Y-94464095D01*
X132802380Y-93559333D02*
X132802380Y-92940285D01*
X133183333Y-93273619D01*
X133183333Y-93130761D01*
X133230952Y-93035523D01*
X133278571Y-92987904D01*
X133373809Y-92940285D01*
X133611904Y-92940285D01*
X133707142Y-92987904D01*
X133754761Y-93035523D01*
X133802380Y-93130761D01*
X133802380Y-93416476D01*
X133754761Y-93511714D01*
X133707142Y-93559333D01*
G04 #@! TO.C,R4*
X146756380Y-73318666D02*
X146280190Y-73652000D01*
X146756380Y-73890095D02*
X145756380Y-73890095D01*
X145756380Y-73509142D01*
X145804000Y-73413904D01*
X145851619Y-73366285D01*
X145946857Y-73318666D01*
X146089714Y-73318666D01*
X146184952Y-73366285D01*
X146232571Y-73413904D01*
X146280190Y-73509142D01*
X146280190Y-73890095D01*
X146089714Y-72461523D02*
X146756380Y-72461523D01*
X145708761Y-72699619D02*
X146423047Y-72937714D01*
X146423047Y-72318666D01*
G04 #@! TO.C,R5*
X154646333Y-75254380D02*
X154313000Y-74778190D01*
X154074904Y-75254380D02*
X154074904Y-74254380D01*
X154455857Y-74254380D01*
X154551095Y-74302000D01*
X154598714Y-74349619D01*
X154646333Y-74444857D01*
X154646333Y-74587714D01*
X154598714Y-74682952D01*
X154551095Y-74730571D01*
X154455857Y-74778190D01*
X154074904Y-74778190D01*
X155551095Y-74254380D02*
X155074904Y-74254380D01*
X155027285Y-74730571D01*
X155074904Y-74682952D01*
X155170142Y-74635333D01*
X155408238Y-74635333D01*
X155503476Y-74682952D01*
X155551095Y-74730571D01*
X155598714Y-74825809D01*
X155598714Y-75063904D01*
X155551095Y-75159142D01*
X155503476Y-75206761D01*
X155408238Y-75254380D01*
X155170142Y-75254380D01*
X155074904Y-75206761D01*
X155027285Y-75159142D01*
G04 #@! TO.C,R6*
X177200615Y-63490061D02*
X176724425Y-63823395D01*
X177200615Y-64061490D02*
X176200615Y-64061490D01*
X176200615Y-63680537D01*
X176248235Y-63585299D01*
X176295854Y-63537680D01*
X176391092Y-63490061D01*
X176533949Y-63490061D01*
X176629187Y-63537680D01*
X176676806Y-63585299D01*
X176724425Y-63680537D01*
X176724425Y-64061490D01*
X176200615Y-62632918D02*
X176200615Y-62823395D01*
X176248235Y-62918633D01*
X176295854Y-62966252D01*
X176438711Y-63061490D01*
X176629187Y-63109109D01*
X177010139Y-63109109D01*
X177105377Y-63061490D01*
X177152996Y-63013871D01*
X177200615Y-62918633D01*
X177200615Y-62728156D01*
X177152996Y-62632918D01*
X177105377Y-62585299D01*
X177010139Y-62537680D01*
X176772044Y-62537680D01*
X176676806Y-62585299D01*
X176629187Y-62632918D01*
X176581568Y-62728156D01*
X176581568Y-62918633D01*
X176629187Y-63013871D01*
X176676806Y-63061490D01*
X176772044Y-63109109D01*
G04 #@! TO.C,R7*
X148042333Y-77159380D02*
X147709000Y-76683190D01*
X147470904Y-77159380D02*
X147470904Y-76159380D01*
X147851857Y-76159380D01*
X147947095Y-76207000D01*
X147994714Y-76254619D01*
X148042333Y-76349857D01*
X148042333Y-76492714D01*
X147994714Y-76587952D01*
X147947095Y-76635571D01*
X147851857Y-76683190D01*
X147470904Y-76683190D01*
X148375666Y-76159380D02*
X149042333Y-76159380D01*
X148613761Y-77159380D01*
G04 #@! TO.C,R8*
X177744380Y-76620666D02*
X177268190Y-76954000D01*
X177744380Y-77192095D02*
X176744380Y-77192095D01*
X176744380Y-76811142D01*
X176792000Y-76715904D01*
X176839619Y-76668285D01*
X176934857Y-76620666D01*
X177077714Y-76620666D01*
X177172952Y-76668285D01*
X177220571Y-76715904D01*
X177268190Y-76811142D01*
X177268190Y-77192095D01*
X177172952Y-76049238D02*
X177125333Y-76144476D01*
X177077714Y-76192095D01*
X176982476Y-76239714D01*
X176934857Y-76239714D01*
X176839619Y-76192095D01*
X176792000Y-76144476D01*
X176744380Y-76049238D01*
X176744380Y-75858761D01*
X176792000Y-75763523D01*
X176839619Y-75715904D01*
X176934857Y-75668285D01*
X176982476Y-75668285D01*
X177077714Y-75715904D01*
X177125333Y-75763523D01*
X177172952Y-75858761D01*
X177172952Y-76049238D01*
X177220571Y-76144476D01*
X177268190Y-76192095D01*
X177363428Y-76239714D01*
X177553904Y-76239714D01*
X177649142Y-76192095D01*
X177696761Y-76144476D01*
X177744380Y-76049238D01*
X177744380Y-75858761D01*
X177696761Y-75763523D01*
X177649142Y-75715904D01*
X177553904Y-75668285D01*
X177363428Y-75668285D01*
X177268190Y-75715904D01*
X177220571Y-75763523D01*
X177172952Y-75858761D01*
G04 #@! TO.C,R9*
X159645880Y-72556666D02*
X159169690Y-72890000D01*
X159645880Y-73128095D02*
X158645880Y-73128095D01*
X158645880Y-72747142D01*
X158693500Y-72651904D01*
X158741119Y-72604285D01*
X158836357Y-72556666D01*
X158979214Y-72556666D01*
X159074452Y-72604285D01*
X159122071Y-72651904D01*
X159169690Y-72747142D01*
X159169690Y-73128095D01*
X159645880Y-72080476D02*
X159645880Y-71890000D01*
X159598261Y-71794761D01*
X159550642Y-71747142D01*
X159407785Y-71651904D01*
X159217309Y-71604285D01*
X158836357Y-71604285D01*
X158741119Y-71651904D01*
X158693500Y-71699523D01*
X158645880Y-71794761D01*
X158645880Y-71985238D01*
X158693500Y-72080476D01*
X158741119Y-72128095D01*
X158836357Y-72175714D01*
X159074452Y-72175714D01*
X159169690Y-72128095D01*
X159217309Y-72080476D01*
X159264928Y-71985238D01*
X159264928Y-71794761D01*
X159217309Y-71699523D01*
X159169690Y-71651904D01*
X159074452Y-71604285D01*
G04 #@! TO.C,R10*
X173900615Y-67395252D02*
X173424425Y-67728585D01*
X173900615Y-67966680D02*
X172900615Y-67966680D01*
X172900615Y-67585728D01*
X172948235Y-67490490D01*
X172995854Y-67442871D01*
X173091092Y-67395252D01*
X173233949Y-67395252D01*
X173329187Y-67442871D01*
X173376806Y-67490490D01*
X173424425Y-67585728D01*
X173424425Y-67966680D01*
X173900615Y-66442871D02*
X173900615Y-67014299D01*
X173900615Y-66728585D02*
X172900615Y-66728585D01*
X173043473Y-66823823D01*
X173138711Y-66919061D01*
X173186330Y-67014299D01*
X172900615Y-65823823D02*
X172900615Y-65728585D01*
X172948235Y-65633347D01*
X172995854Y-65585728D01*
X173091092Y-65538109D01*
X173281568Y-65490490D01*
X173519663Y-65490490D01*
X173710139Y-65538109D01*
X173805377Y-65585728D01*
X173852996Y-65633347D01*
X173900615Y-65728585D01*
X173900615Y-65823823D01*
X173852996Y-65919061D01*
X173805377Y-65966680D01*
X173710139Y-66014299D01*
X173519663Y-66061918D01*
X173281568Y-66061918D01*
X173091092Y-66014299D01*
X172995854Y-65966680D01*
X172948235Y-65919061D01*
X172900615Y-65823823D01*
G04 #@! TO.C,R11*
X177744380Y-80398857D02*
X177268190Y-80732190D01*
X177744380Y-80970285D02*
X176744380Y-80970285D01*
X176744380Y-80589333D01*
X176792000Y-80494095D01*
X176839619Y-80446476D01*
X176934857Y-80398857D01*
X177077714Y-80398857D01*
X177172952Y-80446476D01*
X177220571Y-80494095D01*
X177268190Y-80589333D01*
X177268190Y-80970285D01*
X177744380Y-79446476D02*
X177744380Y-80017904D01*
X177744380Y-79732190D02*
X176744380Y-79732190D01*
X176887238Y-79827428D01*
X176982476Y-79922666D01*
X177030095Y-80017904D01*
X177744380Y-78494095D02*
X177744380Y-79065523D01*
X177744380Y-78779809D02*
X176744380Y-78779809D01*
X176887238Y-78875047D01*
X176982476Y-78970285D01*
X177030095Y-79065523D01*
G04 #@! TO.C,R12*
X164028380Y-87764857D02*
X163552190Y-88098190D01*
X164028380Y-88336285D02*
X163028380Y-88336285D01*
X163028380Y-87955333D01*
X163076000Y-87860095D01*
X163123619Y-87812476D01*
X163218857Y-87764857D01*
X163361714Y-87764857D01*
X163456952Y-87812476D01*
X163504571Y-87860095D01*
X163552190Y-87955333D01*
X163552190Y-88336285D01*
X164028380Y-86812476D02*
X164028380Y-87383904D01*
X164028380Y-87098190D02*
X163028380Y-87098190D01*
X163171238Y-87193428D01*
X163266476Y-87288666D01*
X163314095Y-87383904D01*
X163123619Y-86431523D02*
X163076000Y-86383904D01*
X163028380Y-86288666D01*
X163028380Y-86050571D01*
X163076000Y-85955333D01*
X163123619Y-85907714D01*
X163218857Y-85860095D01*
X163314095Y-85860095D01*
X163456952Y-85907714D01*
X164028380Y-86479142D01*
X164028380Y-85860095D01*
G04 #@! TO.C,R13*
X158694380Y-87675957D02*
X158218190Y-88009290D01*
X158694380Y-88247385D02*
X157694380Y-88247385D01*
X157694380Y-87866433D01*
X157742000Y-87771195D01*
X157789619Y-87723576D01*
X157884857Y-87675957D01*
X158027714Y-87675957D01*
X158122952Y-87723576D01*
X158170571Y-87771195D01*
X158218190Y-87866433D01*
X158218190Y-88247385D01*
X158694380Y-86723576D02*
X158694380Y-87295004D01*
X158694380Y-87009290D02*
X157694380Y-87009290D01*
X157837238Y-87104528D01*
X157932476Y-87199766D01*
X157980095Y-87295004D01*
X157694380Y-86390242D02*
X157694380Y-85771195D01*
X158075333Y-86104528D01*
X158075333Y-85961671D01*
X158122952Y-85866433D01*
X158170571Y-85818814D01*
X158265809Y-85771195D01*
X158503904Y-85771195D01*
X158599142Y-85818814D01*
X158646761Y-85866433D01*
X158694380Y-85961671D01*
X158694380Y-86247385D01*
X158646761Y-86342623D01*
X158599142Y-86390242D01*
G04 #@! TO.C,R14*
X185285142Y-82240380D02*
X184951809Y-81764190D01*
X184713714Y-82240380D02*
X184713714Y-81240380D01*
X185094666Y-81240380D01*
X185189904Y-81288000D01*
X185237523Y-81335619D01*
X185285142Y-81430857D01*
X185285142Y-81573714D01*
X185237523Y-81668952D01*
X185189904Y-81716571D01*
X185094666Y-81764190D01*
X184713714Y-81764190D01*
X186237523Y-82240380D02*
X185666095Y-82240380D01*
X185951809Y-82240380D02*
X185951809Y-81240380D01*
X185856571Y-81383238D01*
X185761333Y-81478476D01*
X185666095Y-81526095D01*
X187094666Y-81573714D02*
X187094666Y-82240380D01*
X186856571Y-81192761D02*
X186618476Y-81907047D01*
X187237523Y-81907047D01*
G04 #@! TO.C,R15*
X188398680Y-96057957D02*
X187922490Y-96391290D01*
X188398680Y-96629385D02*
X187398680Y-96629385D01*
X187398680Y-96248433D01*
X187446300Y-96153195D01*
X187493919Y-96105576D01*
X187589157Y-96057957D01*
X187732014Y-96057957D01*
X187827252Y-96105576D01*
X187874871Y-96153195D01*
X187922490Y-96248433D01*
X187922490Y-96629385D01*
X188398680Y-95105576D02*
X188398680Y-95677004D01*
X188398680Y-95391290D02*
X187398680Y-95391290D01*
X187541538Y-95486528D01*
X187636776Y-95581766D01*
X187684395Y-95677004D01*
X187398680Y-94200814D02*
X187398680Y-94677004D01*
X187874871Y-94724623D01*
X187827252Y-94677004D01*
X187779633Y-94581766D01*
X187779633Y-94343671D01*
X187827252Y-94248433D01*
X187874871Y-94200814D01*
X187970109Y-94153195D01*
X188208204Y-94153195D01*
X188303442Y-94200814D01*
X188351061Y-94248433D01*
X188398680Y-94343671D01*
X188398680Y-94581766D01*
X188351061Y-94677004D01*
X188303442Y-94724623D01*
G04 #@! TO.C,R16*
X146756380Y-64650857D02*
X146280190Y-64984190D01*
X146756380Y-65222285D02*
X145756380Y-65222285D01*
X145756380Y-64841333D01*
X145804000Y-64746095D01*
X145851619Y-64698476D01*
X145946857Y-64650857D01*
X146089714Y-64650857D01*
X146184952Y-64698476D01*
X146232571Y-64746095D01*
X146280190Y-64841333D01*
X146280190Y-65222285D01*
X146756380Y-63698476D02*
X146756380Y-64269904D01*
X146756380Y-63984190D02*
X145756380Y-63984190D01*
X145899238Y-64079428D01*
X145994476Y-64174666D01*
X146042095Y-64269904D01*
X145756380Y-62841333D02*
X145756380Y-63031809D01*
X145804000Y-63127047D01*
X145851619Y-63174666D01*
X145994476Y-63269904D01*
X146184952Y-63317523D01*
X146565904Y-63317523D01*
X146661142Y-63269904D01*
X146708761Y-63222285D01*
X146756380Y-63127047D01*
X146756380Y-62936571D01*
X146708761Y-62841333D01*
X146661142Y-62793714D01*
X146565904Y-62746095D01*
X146327809Y-62746095D01*
X146232571Y-62793714D01*
X146184952Y-62841333D01*
X146137333Y-62936571D01*
X146137333Y-63127047D01*
X146184952Y-63222285D01*
X146232571Y-63269904D01*
X146327809Y-63317523D01*
G04 #@! TO.C,R17*
X154932142Y-62682380D02*
X154598809Y-62206190D01*
X154360714Y-62682380D02*
X154360714Y-61682380D01*
X154741666Y-61682380D01*
X154836904Y-61730000D01*
X154884523Y-61777619D01*
X154932142Y-61872857D01*
X154932142Y-62015714D01*
X154884523Y-62110952D01*
X154836904Y-62158571D01*
X154741666Y-62206190D01*
X154360714Y-62206190D01*
X155884523Y-62682380D02*
X155313095Y-62682380D01*
X155598809Y-62682380D02*
X155598809Y-61682380D01*
X155503571Y-61825238D01*
X155408333Y-61920476D01*
X155313095Y-61968095D01*
X156217857Y-61682380D02*
X156884523Y-61682380D01*
X156455952Y-62682380D01*
G04 #@! TO.C,R18*
X162510467Y-77604857D02*
X162034277Y-77938190D01*
X162510467Y-78176285D02*
X161510467Y-78176285D01*
X161510467Y-77795333D01*
X161558087Y-77700095D01*
X161605706Y-77652476D01*
X161700944Y-77604857D01*
X161843801Y-77604857D01*
X161939039Y-77652476D01*
X161986658Y-77700095D01*
X162034277Y-77795333D01*
X162034277Y-78176285D01*
X162510467Y-76652476D02*
X162510467Y-77223904D01*
X162510467Y-76938190D02*
X161510467Y-76938190D01*
X161653325Y-77033428D01*
X161748563Y-77128666D01*
X161796182Y-77223904D01*
X161939039Y-76081047D02*
X161891420Y-76176285D01*
X161843801Y-76223904D01*
X161748563Y-76271523D01*
X161700944Y-76271523D01*
X161605706Y-76223904D01*
X161558087Y-76176285D01*
X161510467Y-76081047D01*
X161510467Y-75890571D01*
X161558087Y-75795333D01*
X161605706Y-75747714D01*
X161700944Y-75700095D01*
X161748563Y-75700095D01*
X161843801Y-75747714D01*
X161891420Y-75795333D01*
X161939039Y-75890571D01*
X161939039Y-76081047D01*
X161986658Y-76176285D01*
X162034277Y-76223904D01*
X162129515Y-76271523D01*
X162319991Y-76271523D01*
X162415229Y-76223904D01*
X162462848Y-76176285D01*
X162510467Y-76081047D01*
X162510467Y-75890571D01*
X162462848Y-75795333D01*
X162415229Y-75747714D01*
X162319991Y-75700095D01*
X162129515Y-75700095D01*
X162034277Y-75747714D01*
X161986658Y-75795333D01*
X161939039Y-75890571D01*
G04 #@! TO.C,R19*
X147693142Y-60650380D02*
X147359809Y-60174190D01*
X147121714Y-60650380D02*
X147121714Y-59650380D01*
X147502666Y-59650380D01*
X147597904Y-59698000D01*
X147645523Y-59745619D01*
X147693142Y-59840857D01*
X147693142Y-59983714D01*
X147645523Y-60078952D01*
X147597904Y-60126571D01*
X147502666Y-60174190D01*
X147121714Y-60174190D01*
X148645523Y-60650380D02*
X148074095Y-60650380D01*
X148359809Y-60650380D02*
X148359809Y-59650380D01*
X148264571Y-59793238D01*
X148169333Y-59888476D01*
X148074095Y-59936095D01*
X149121714Y-60650380D02*
X149312190Y-60650380D01*
X149407428Y-60602761D01*
X149455047Y-60555142D01*
X149550285Y-60412285D01*
X149597904Y-60221809D01*
X149597904Y-59840857D01*
X149550285Y-59745619D01*
X149502666Y-59698000D01*
X149407428Y-59650380D01*
X149216952Y-59650380D01*
X149121714Y-59698000D01*
X149074095Y-59745619D01*
X149026476Y-59840857D01*
X149026476Y-60078952D01*
X149074095Y-60174190D01*
X149121714Y-60221809D01*
X149216952Y-60269428D01*
X149407428Y-60269428D01*
X149502666Y-60221809D01*
X149550285Y-60174190D01*
X149597904Y-60078952D01*
G04 #@! TO.C,R20*
X161771115Y-62618857D02*
X161294925Y-62952190D01*
X161771115Y-63190285D02*
X160771115Y-63190285D01*
X160771115Y-62809333D01*
X160818735Y-62714095D01*
X160866354Y-62666476D01*
X160961592Y-62618857D01*
X161104449Y-62618857D01*
X161199687Y-62666476D01*
X161247306Y-62714095D01*
X161294925Y-62809333D01*
X161294925Y-63190285D01*
X160866354Y-62237904D02*
X160818735Y-62190285D01*
X160771115Y-62095047D01*
X160771115Y-61856952D01*
X160818735Y-61761714D01*
X160866354Y-61714095D01*
X160961592Y-61666476D01*
X161056830Y-61666476D01*
X161199687Y-61714095D01*
X161771115Y-62285523D01*
X161771115Y-61666476D01*
X160771115Y-61047428D02*
X160771115Y-60952190D01*
X160818735Y-60856952D01*
X160866354Y-60809333D01*
X160961592Y-60761714D01*
X161152068Y-60714095D01*
X161390163Y-60714095D01*
X161580639Y-60761714D01*
X161675877Y-60809333D01*
X161723496Y-60856952D01*
X161771115Y-60952190D01*
X161771115Y-61047428D01*
X161723496Y-61142666D01*
X161675877Y-61190285D01*
X161580639Y-61237904D01*
X161390163Y-61285523D01*
X161152068Y-61285523D01*
X160961592Y-61237904D01*
X160866354Y-61190285D01*
X160818735Y-61142666D01*
X160771115Y-61047428D01*
G04 #@! TO.C,R21*
X159710380Y-66936857D02*
X159234190Y-67270190D01*
X159710380Y-67508285D02*
X158710380Y-67508285D01*
X158710380Y-67127333D01*
X158758000Y-67032095D01*
X158805619Y-66984476D01*
X158900857Y-66936857D01*
X159043714Y-66936857D01*
X159138952Y-66984476D01*
X159186571Y-67032095D01*
X159234190Y-67127333D01*
X159234190Y-67508285D01*
X158805619Y-66555904D02*
X158758000Y-66508285D01*
X158710380Y-66413047D01*
X158710380Y-66174952D01*
X158758000Y-66079714D01*
X158805619Y-66032095D01*
X158900857Y-65984476D01*
X158996095Y-65984476D01*
X159138952Y-66032095D01*
X159710380Y-66603523D01*
X159710380Y-65984476D01*
X159710380Y-65032095D02*
X159710380Y-65603523D01*
X159710380Y-65317809D02*
X158710380Y-65317809D01*
X158853238Y-65413047D01*
X158948476Y-65508285D01*
X158996095Y-65603523D01*
G04 #@! TO.C,R22*
X164282380Y-82176857D02*
X163806190Y-82510190D01*
X164282380Y-82748285D02*
X163282380Y-82748285D01*
X163282380Y-82367333D01*
X163330000Y-82272095D01*
X163377619Y-82224476D01*
X163472857Y-82176857D01*
X163615714Y-82176857D01*
X163710952Y-82224476D01*
X163758571Y-82272095D01*
X163806190Y-82367333D01*
X163806190Y-82748285D01*
X163377619Y-81795904D02*
X163330000Y-81748285D01*
X163282380Y-81653047D01*
X163282380Y-81414952D01*
X163330000Y-81319714D01*
X163377619Y-81272095D01*
X163472857Y-81224476D01*
X163568095Y-81224476D01*
X163710952Y-81272095D01*
X164282380Y-81843523D01*
X164282380Y-81224476D01*
X163377619Y-80843523D02*
X163330000Y-80795904D01*
X163282380Y-80700666D01*
X163282380Y-80462571D01*
X163330000Y-80367333D01*
X163377619Y-80319714D01*
X163472857Y-80272095D01*
X163568095Y-80272095D01*
X163710952Y-80319714D01*
X164282380Y-80891142D01*
X164282380Y-80272095D01*
G04 #@! TO.C,R23*
X161742380Y-66174857D02*
X161266190Y-66508190D01*
X161742380Y-66746285D02*
X160742380Y-66746285D01*
X160742380Y-66365333D01*
X160790000Y-66270095D01*
X160837619Y-66222476D01*
X160932857Y-66174857D01*
X161075714Y-66174857D01*
X161170952Y-66222476D01*
X161218571Y-66270095D01*
X161266190Y-66365333D01*
X161266190Y-66746285D01*
X160837619Y-65793904D02*
X160790000Y-65746285D01*
X160742380Y-65651047D01*
X160742380Y-65412952D01*
X160790000Y-65317714D01*
X160837619Y-65270095D01*
X160932857Y-65222476D01*
X161028095Y-65222476D01*
X161170952Y-65270095D01*
X161742380Y-65841523D01*
X161742380Y-65222476D01*
X160742380Y-64889142D02*
X160742380Y-64270095D01*
X161123333Y-64603428D01*
X161123333Y-64460571D01*
X161170952Y-64365333D01*
X161218571Y-64317714D01*
X161313809Y-64270095D01*
X161551904Y-64270095D01*
X161647142Y-64317714D01*
X161694761Y-64365333D01*
X161742380Y-64460571D01*
X161742380Y-64746285D01*
X161694761Y-64841523D01*
X161647142Y-64889142D01*
G04 #@! TO.C,R24*
X155900380Y-87764857D02*
X155424190Y-88098190D01*
X155900380Y-88336285D02*
X154900380Y-88336285D01*
X154900380Y-87955333D01*
X154948000Y-87860095D01*
X154995619Y-87812476D01*
X155090857Y-87764857D01*
X155233714Y-87764857D01*
X155328952Y-87812476D01*
X155376571Y-87860095D01*
X155424190Y-87955333D01*
X155424190Y-88336285D01*
X154995619Y-87383904D02*
X154948000Y-87336285D01*
X154900380Y-87241047D01*
X154900380Y-87002952D01*
X154948000Y-86907714D01*
X154995619Y-86860095D01*
X155090857Y-86812476D01*
X155186095Y-86812476D01*
X155328952Y-86860095D01*
X155900380Y-87431523D01*
X155900380Y-86812476D01*
X155233714Y-85955333D02*
X155900380Y-85955333D01*
X154852761Y-86193428D02*
X155567047Y-86431523D01*
X155567047Y-85812476D01*
G04 #@! TO.C,R25*
X161234380Y-87764857D02*
X160758190Y-88098190D01*
X161234380Y-88336285D02*
X160234380Y-88336285D01*
X160234380Y-87955333D01*
X160282000Y-87860095D01*
X160329619Y-87812476D01*
X160424857Y-87764857D01*
X160567714Y-87764857D01*
X160662952Y-87812476D01*
X160710571Y-87860095D01*
X160758190Y-87955333D01*
X160758190Y-88336285D01*
X160329619Y-87383904D02*
X160282000Y-87336285D01*
X160234380Y-87241047D01*
X160234380Y-87002952D01*
X160282000Y-86907714D01*
X160329619Y-86860095D01*
X160424857Y-86812476D01*
X160520095Y-86812476D01*
X160662952Y-86860095D01*
X161234380Y-87431523D01*
X161234380Y-86812476D01*
X160234380Y-85907714D02*
X160234380Y-86383904D01*
X160710571Y-86431523D01*
X160662952Y-86383904D01*
X160615333Y-86288666D01*
X160615333Y-86050571D01*
X160662952Y-85955333D01*
X160710571Y-85907714D01*
X160805809Y-85860095D01*
X161043904Y-85860095D01*
X161139142Y-85907714D01*
X161186761Y-85955333D01*
X161234380Y-86050571D01*
X161234380Y-86288666D01*
X161186761Y-86383904D01*
X161139142Y-86431523D01*
G04 #@! TO.C,R26*
X182316380Y-68968857D02*
X181840190Y-69302190D01*
X182316380Y-69540285D02*
X181316380Y-69540285D01*
X181316380Y-69159333D01*
X181364000Y-69064095D01*
X181411619Y-69016476D01*
X181506857Y-68968857D01*
X181649714Y-68968857D01*
X181744952Y-69016476D01*
X181792571Y-69064095D01*
X181840190Y-69159333D01*
X181840190Y-69540285D01*
X181411619Y-68587904D02*
X181364000Y-68540285D01*
X181316380Y-68445047D01*
X181316380Y-68206952D01*
X181364000Y-68111714D01*
X181411619Y-68064095D01*
X181506857Y-68016476D01*
X181602095Y-68016476D01*
X181744952Y-68064095D01*
X182316380Y-68635523D01*
X182316380Y-68016476D01*
X181316380Y-67159333D02*
X181316380Y-67349809D01*
X181364000Y-67445047D01*
X181411619Y-67492666D01*
X181554476Y-67587904D01*
X181744952Y-67635523D01*
X182125904Y-67635523D01*
X182221142Y-67587904D01*
X182268761Y-67540285D01*
X182316380Y-67445047D01*
X182316380Y-67254571D01*
X182268761Y-67159333D01*
X182221142Y-67111714D01*
X182125904Y-67064095D01*
X181887809Y-67064095D01*
X181792571Y-67111714D01*
X181744952Y-67159333D01*
X181697333Y-67254571D01*
X181697333Y-67445047D01*
X181744952Y-67540285D01*
X181792571Y-67587904D01*
X181887809Y-67635523D01*
G04 #@! TO.C,R27*
X148394680Y-103423957D02*
X147918490Y-103757290D01*
X148394680Y-103995385D02*
X147394680Y-103995385D01*
X147394680Y-103614433D01*
X147442300Y-103519195D01*
X147489919Y-103471576D01*
X147585157Y-103423957D01*
X147728014Y-103423957D01*
X147823252Y-103471576D01*
X147870871Y-103519195D01*
X147918490Y-103614433D01*
X147918490Y-103995385D01*
X147489919Y-103043004D02*
X147442300Y-102995385D01*
X147394680Y-102900147D01*
X147394680Y-102662052D01*
X147442300Y-102566814D01*
X147489919Y-102519195D01*
X147585157Y-102471576D01*
X147680395Y-102471576D01*
X147823252Y-102519195D01*
X148394680Y-103090623D01*
X148394680Y-102471576D01*
X147394680Y-102138242D02*
X147394680Y-101471576D01*
X148394680Y-101900147D01*
G04 #@! TO.C,R28*
X171140380Y-87764857D02*
X170664190Y-88098190D01*
X171140380Y-88336285D02*
X170140380Y-88336285D01*
X170140380Y-87955333D01*
X170188000Y-87860095D01*
X170235619Y-87812476D01*
X170330857Y-87764857D01*
X170473714Y-87764857D01*
X170568952Y-87812476D01*
X170616571Y-87860095D01*
X170664190Y-87955333D01*
X170664190Y-88336285D01*
X170235619Y-87383904D02*
X170188000Y-87336285D01*
X170140380Y-87241047D01*
X170140380Y-87002952D01*
X170188000Y-86907714D01*
X170235619Y-86860095D01*
X170330857Y-86812476D01*
X170426095Y-86812476D01*
X170568952Y-86860095D01*
X171140380Y-87431523D01*
X171140380Y-86812476D01*
X170568952Y-86241047D02*
X170521333Y-86336285D01*
X170473714Y-86383904D01*
X170378476Y-86431523D01*
X170330857Y-86431523D01*
X170235619Y-86383904D01*
X170188000Y-86336285D01*
X170140380Y-86241047D01*
X170140380Y-86050571D01*
X170188000Y-85955333D01*
X170235619Y-85907714D01*
X170330857Y-85860095D01*
X170378476Y-85860095D01*
X170473714Y-85907714D01*
X170521333Y-85955333D01*
X170568952Y-86050571D01*
X170568952Y-86241047D01*
X170616571Y-86336285D01*
X170664190Y-86383904D01*
X170759428Y-86431523D01*
X170949904Y-86431523D01*
X171045142Y-86383904D01*
X171092761Y-86336285D01*
X171140380Y-86241047D01*
X171140380Y-86050571D01*
X171092761Y-85955333D01*
X171045142Y-85907714D01*
X170949904Y-85860095D01*
X170759428Y-85860095D01*
X170664190Y-85907714D01*
X170616571Y-85955333D01*
X170568952Y-86050571D01*
G04 #@! TO.C,U1*
X145969380Y-69214904D02*
X146778904Y-69214904D01*
X146874142Y-69167285D01*
X146921761Y-69119666D01*
X146969380Y-69024428D01*
X146969380Y-68833952D01*
X146921761Y-68738714D01*
X146874142Y-68691095D01*
X146778904Y-68643476D01*
X145969380Y-68643476D01*
X146969380Y-67643476D02*
X146969380Y-68214904D01*
X146969380Y-67929190D02*
X145969380Y-67929190D01*
X146112238Y-68024428D01*
X146207476Y-68119666D01*
X146255095Y-68214904D01*
G04 #@! TO.C,U2*
X141224095Y-99020380D02*
X141224095Y-99829904D01*
X141271714Y-99925142D01*
X141319333Y-99972761D01*
X141414571Y-100020380D01*
X141605047Y-100020380D01*
X141700285Y-99972761D01*
X141747904Y-99925142D01*
X141795523Y-99829904D01*
X141795523Y-99020380D01*
X142224095Y-99115619D02*
X142271714Y-99068000D01*
X142366952Y-99020380D01*
X142605047Y-99020380D01*
X142700285Y-99068000D01*
X142747904Y-99115619D01*
X142795523Y-99210857D01*
X142795523Y-99306095D01*
X142747904Y-99448952D01*
X142176476Y-100020380D01*
X142795523Y-100020380D01*
X144272000Y-100524380D02*
X144272000Y-100762476D01*
X144033904Y-100667238D02*
X144272000Y-100762476D01*
X144510095Y-100667238D01*
X144129142Y-100952952D02*
X144272000Y-100762476D01*
X144414857Y-100952952D01*
G04 #@! TO.C,U3*
X168656095Y-64222380D02*
X168656095Y-65031904D01*
X168703714Y-65127142D01*
X168751333Y-65174761D01*
X168846571Y-65222380D01*
X169037047Y-65222380D01*
X169132285Y-65174761D01*
X169179904Y-65127142D01*
X169227523Y-65031904D01*
X169227523Y-64222380D01*
X169608476Y-64222380D02*
X170227523Y-64222380D01*
X169894190Y-64603333D01*
X170037047Y-64603333D01*
X170132285Y-64650952D01*
X170179904Y-64698571D01*
X170227523Y-64793809D01*
X170227523Y-65031904D01*
X170179904Y-65127142D01*
X170132285Y-65174761D01*
X170037047Y-65222380D01*
X169751333Y-65222380D01*
X169656095Y-65174761D01*
X169608476Y-65127142D01*
G04 #@! TO.C,U4*
X168910095Y-77430380D02*
X168910095Y-78239904D01*
X168957714Y-78335142D01*
X169005333Y-78382761D01*
X169100571Y-78430380D01*
X169291047Y-78430380D01*
X169386285Y-78382761D01*
X169433904Y-78335142D01*
X169481523Y-78239904D01*
X169481523Y-77430380D01*
X170386285Y-77763714D02*
X170386285Y-78430380D01*
X170148190Y-77382761D02*
X169910095Y-78097047D01*
X170529142Y-78097047D01*
G04 #@! TO.C,U7*
X141438380Y-78866904D02*
X142247904Y-78866904D01*
X142343142Y-78819285D01*
X142390761Y-78771666D01*
X142438380Y-78676428D01*
X142438380Y-78485952D01*
X142390761Y-78390714D01*
X142343142Y-78343095D01*
X142247904Y-78295476D01*
X141438380Y-78295476D01*
X141438380Y-77914523D02*
X141438380Y-77247857D01*
X142438380Y-77676428D01*
G04 #@! TO.C,U8*
X141438380Y-67309904D02*
X142247904Y-67309904D01*
X142343142Y-67262285D01*
X142390761Y-67214666D01*
X142438380Y-67119428D01*
X142438380Y-66928952D01*
X142390761Y-66833714D01*
X142343142Y-66786095D01*
X142247904Y-66738476D01*
X141438380Y-66738476D01*
X141866952Y-66119428D02*
X141819333Y-66214666D01*
X141771714Y-66262285D01*
X141676476Y-66309904D01*
X141628857Y-66309904D01*
X141533619Y-66262285D01*
X141486000Y-66214666D01*
X141438380Y-66119428D01*
X141438380Y-65928952D01*
X141486000Y-65833714D01*
X141533619Y-65786095D01*
X141628857Y-65738476D01*
X141676476Y-65738476D01*
X141771714Y-65786095D01*
X141819333Y-65833714D01*
X141866952Y-65928952D01*
X141866952Y-66119428D01*
X141914571Y-66214666D01*
X141962190Y-66262285D01*
X142057428Y-66309904D01*
X142247904Y-66309904D01*
X142343142Y-66262285D01*
X142390761Y-66214666D01*
X142438380Y-66119428D01*
X142438380Y-65928952D01*
X142390761Y-65833714D01*
X142343142Y-65786095D01*
X142247904Y-65738476D01*
X142057428Y-65738476D01*
X141962190Y-65786095D01*
X141914571Y-65833714D01*
X141866952Y-65928952D01*
G04 #@! TO.C,U9*
X183946895Y-73772780D02*
X183946895Y-74582304D01*
X183994514Y-74677542D01*
X184042133Y-74725161D01*
X184137371Y-74772780D01*
X184327847Y-74772780D01*
X184423085Y-74725161D01*
X184470704Y-74677542D01*
X184518323Y-74582304D01*
X184518323Y-73772780D01*
X185042133Y-74772780D02*
X185232609Y-74772780D01*
X185327847Y-74725161D01*
X185375466Y-74677542D01*
X185470704Y-74534685D01*
X185518323Y-74344209D01*
X185518323Y-73963257D01*
X185470704Y-73868019D01*
X185423085Y-73820400D01*
X185327847Y-73772780D01*
X185137371Y-73772780D01*
X185042133Y-73820400D01*
X184994514Y-73868019D01*
X184946895Y-73963257D01*
X184946895Y-74201352D01*
X184994514Y-74296590D01*
X185042133Y-74344209D01*
X185137371Y-74391828D01*
X185327847Y-74391828D01*
X185423085Y-74344209D01*
X185470704Y-74296590D01*
X185518323Y-74201352D01*
X184708800Y-73772780D02*
X184708800Y-74010876D01*
X184470704Y-73915638D02*
X184708800Y-74010876D01*
X184946895Y-73915638D01*
X184565942Y-74201352D02*
X184708800Y-74010876D01*
X184851657Y-74201352D01*
G04 #@! TO.C,U10*
X151090380Y-98139095D02*
X151899904Y-98139095D01*
X151995142Y-98091476D01*
X152042761Y-98043857D01*
X152090380Y-97948619D01*
X152090380Y-97758142D01*
X152042761Y-97662904D01*
X151995142Y-97615285D01*
X151899904Y-97567666D01*
X151090380Y-97567666D01*
X152090380Y-96567666D02*
X152090380Y-97139095D01*
X152090380Y-96853380D02*
X151090380Y-96853380D01*
X151233238Y-96948619D01*
X151328476Y-97043857D01*
X151376095Y-97139095D01*
X151090380Y-95948619D02*
X151090380Y-95853380D01*
X151138000Y-95758142D01*
X151185619Y-95710523D01*
X151280857Y-95662904D01*
X151471333Y-95615285D01*
X151709428Y-95615285D01*
X151899904Y-95662904D01*
X151995142Y-95710523D01*
X152042761Y-95758142D01*
X152090380Y-95853380D01*
X152090380Y-95948619D01*
X152042761Y-96043857D01*
X151995142Y-96091476D01*
X151899904Y-96139095D01*
X151709428Y-96186714D01*
X151471333Y-96186714D01*
X151280857Y-96139095D01*
X151185619Y-96091476D01*
X151138000Y-96043857D01*
X151090380Y-95948619D01*
G04 #@! TO.C,Y1*
X171934190Y-104870190D02*
X172410380Y-104870190D01*
X171410380Y-105203523D02*
X171934190Y-104870190D01*
X171410380Y-104536857D01*
X172410380Y-103679714D02*
X172410380Y-104251142D01*
X172410380Y-103965428D02*
X171410380Y-103965428D01*
X171553238Y-104060666D01*
X171648476Y-104155904D01*
X171696095Y-104251142D01*
G04 #@! TO.C,U6*
X141184380Y-92201904D02*
X141993904Y-92201904D01*
X142089142Y-92154285D01*
X142136761Y-92106666D01*
X142184380Y-92011428D01*
X142184380Y-91820952D01*
X142136761Y-91725714D01*
X142089142Y-91678095D01*
X141993904Y-91630476D01*
X141184380Y-91630476D01*
X141184380Y-90725714D02*
X141184380Y-90916190D01*
X141232000Y-91011428D01*
X141279619Y-91059047D01*
X141422476Y-91154285D01*
X141612952Y-91201904D01*
X141993904Y-91201904D01*
X142089142Y-91154285D01*
X142136761Y-91106666D01*
X142184380Y-91011428D01*
X142184380Y-90820952D01*
X142136761Y-90725714D01*
X142089142Y-90678095D01*
X141993904Y-90630476D01*
X141755809Y-90630476D01*
X141660571Y-90678095D01*
X141612952Y-90725714D01*
X141565333Y-90820952D01*
X141565333Y-91011428D01*
X141612952Y-91106666D01*
X141660571Y-91154285D01*
X141755809Y-91201904D01*
G04 #@! TO.C,C8*
X137009142Y-99480666D02*
X137056761Y-99528285D01*
X137104380Y-99671142D01*
X137104380Y-99766380D01*
X137056761Y-99909238D01*
X136961523Y-100004476D01*
X136866285Y-100052095D01*
X136675809Y-100099714D01*
X136532952Y-100099714D01*
X136342476Y-100052095D01*
X136247238Y-100004476D01*
X136152000Y-99909238D01*
X136104380Y-99766380D01*
X136104380Y-99671142D01*
X136152000Y-99528285D01*
X136199619Y-99480666D01*
X136532952Y-98909238D02*
X136485333Y-99004476D01*
X136437714Y-99052095D01*
X136342476Y-99099714D01*
X136294857Y-99099714D01*
X136199619Y-99052095D01*
X136152000Y-99004476D01*
X136104380Y-98909238D01*
X136104380Y-98718761D01*
X136152000Y-98623523D01*
X136199619Y-98575904D01*
X136294857Y-98528285D01*
X136342476Y-98528285D01*
X136437714Y-98575904D01*
X136485333Y-98623523D01*
X136532952Y-98718761D01*
X136532952Y-98909238D01*
X136580571Y-99004476D01*
X136628190Y-99052095D01*
X136723428Y-99099714D01*
X136913904Y-99099714D01*
X137009142Y-99052095D01*
X137056761Y-99004476D01*
X137104380Y-98909238D01*
X137104380Y-98718761D01*
X137056761Y-98623523D01*
X137009142Y-98575904D01*
X136913904Y-98528285D01*
X136723428Y-98528285D01*
X136628190Y-98575904D01*
X136580571Y-98623523D01*
X136532952Y-98718761D01*
G04 #@! TO.C,R29*
X144025880Y-95715057D02*
X143549690Y-96048390D01*
X144025880Y-96286485D02*
X143025880Y-96286485D01*
X143025880Y-95905533D01*
X143073500Y-95810295D01*
X143121119Y-95762676D01*
X143216357Y-95715057D01*
X143359214Y-95715057D01*
X143454452Y-95762676D01*
X143502071Y-95810295D01*
X143549690Y-95905533D01*
X143549690Y-96286485D01*
X143121119Y-95334104D02*
X143073500Y-95286485D01*
X143025880Y-95191247D01*
X143025880Y-94953152D01*
X143073500Y-94857914D01*
X143121119Y-94810295D01*
X143216357Y-94762676D01*
X143311595Y-94762676D01*
X143454452Y-94810295D01*
X144025880Y-95381723D01*
X144025880Y-94762676D01*
X144025880Y-94286485D02*
X144025880Y-94096009D01*
X143978261Y-94000771D01*
X143930642Y-93953152D01*
X143787785Y-93857914D01*
X143597309Y-93810295D01*
X143216357Y-93810295D01*
X143121119Y-93857914D01*
X143073500Y-93905533D01*
X143025880Y-94000771D01*
X143025880Y-94191247D01*
X143073500Y-94286485D01*
X143121119Y-94334104D01*
X143216357Y-94381723D01*
X143454452Y-94381723D01*
X143549690Y-94334104D01*
X143597309Y-94286485D01*
X143644928Y-94191247D01*
X143644928Y-94000771D01*
X143597309Y-93905533D01*
X143549690Y-93857914D01*
X143454452Y-93810295D01*
G04 #@! TO.C,R30*
X138625342Y-95373180D02*
X138292009Y-94896990D01*
X138053914Y-95373180D02*
X138053914Y-94373180D01*
X138434866Y-94373180D01*
X138530104Y-94420800D01*
X138577723Y-94468419D01*
X138625342Y-94563657D01*
X138625342Y-94706514D01*
X138577723Y-94801752D01*
X138530104Y-94849371D01*
X138434866Y-94896990D01*
X138053914Y-94896990D01*
X138958676Y-94373180D02*
X139577723Y-94373180D01*
X139244390Y-94754133D01*
X139387247Y-94754133D01*
X139482485Y-94801752D01*
X139530104Y-94849371D01*
X139577723Y-94944609D01*
X139577723Y-95182704D01*
X139530104Y-95277942D01*
X139482485Y-95325561D01*
X139387247Y-95373180D01*
X139101533Y-95373180D01*
X139006295Y-95325561D01*
X138958676Y-95277942D01*
X140196771Y-94373180D02*
X140292009Y-94373180D01*
X140387247Y-94420800D01*
X140434866Y-94468419D01*
X140482485Y-94563657D01*
X140530104Y-94754133D01*
X140530104Y-94992228D01*
X140482485Y-95182704D01*
X140434866Y-95277942D01*
X140387247Y-95325561D01*
X140292009Y-95373180D01*
X140196771Y-95373180D01*
X140101533Y-95325561D01*
X140053914Y-95277942D01*
X140006295Y-95182704D01*
X139958676Y-94992228D01*
X139958676Y-94754133D01*
X140006295Y-94563657D01*
X140053914Y-94468419D01*
X140101533Y-94420800D01*
X140196771Y-94373180D01*
G04 #@! TO.C,C6*
X189571333Y-69445142D02*
X189523714Y-69492761D01*
X189380857Y-69540380D01*
X189285619Y-69540380D01*
X189142761Y-69492761D01*
X189047523Y-69397523D01*
X188999904Y-69302285D01*
X188952285Y-69111809D01*
X188952285Y-68968952D01*
X188999904Y-68778476D01*
X189047523Y-68683238D01*
X189142761Y-68588000D01*
X189285619Y-68540380D01*
X189380857Y-68540380D01*
X189523714Y-68588000D01*
X189571333Y-68635619D01*
X190428476Y-68540380D02*
X190238000Y-68540380D01*
X190142761Y-68588000D01*
X190095142Y-68635619D01*
X189999904Y-68778476D01*
X189952285Y-68968952D01*
X189952285Y-69349904D01*
X189999904Y-69445142D01*
X190047523Y-69492761D01*
X190142761Y-69540380D01*
X190333238Y-69540380D01*
X190428476Y-69492761D01*
X190476095Y-69445142D01*
X190523714Y-69349904D01*
X190523714Y-69111809D01*
X190476095Y-69016571D01*
X190428476Y-68968952D01*
X190333238Y-68921333D01*
X190142761Y-68921333D01*
X190047523Y-68968952D01*
X189999904Y-69016571D01*
X189952285Y-69111809D01*
G04 #@! TO.C,C9*
X146915142Y-91098666D02*
X146962761Y-91146285D01*
X147010380Y-91289142D01*
X147010380Y-91384380D01*
X146962761Y-91527238D01*
X146867523Y-91622476D01*
X146772285Y-91670095D01*
X146581809Y-91717714D01*
X146438952Y-91717714D01*
X146248476Y-91670095D01*
X146153238Y-91622476D01*
X146058000Y-91527238D01*
X146010380Y-91384380D01*
X146010380Y-91289142D01*
X146058000Y-91146285D01*
X146105619Y-91098666D01*
X147010380Y-90622476D02*
X147010380Y-90432000D01*
X146962761Y-90336761D01*
X146915142Y-90289142D01*
X146772285Y-90193904D01*
X146581809Y-90146285D01*
X146200857Y-90146285D01*
X146105619Y-90193904D01*
X146058000Y-90241523D01*
X146010380Y-90336761D01*
X146010380Y-90527238D01*
X146058000Y-90622476D01*
X146105619Y-90670095D01*
X146200857Y-90717714D01*
X146438952Y-90717714D01*
X146534190Y-90670095D01*
X146581809Y-90622476D01*
X146629428Y-90527238D01*
X146629428Y-90336761D01*
X146581809Y-90241523D01*
X146534190Y-90193904D01*
X146438952Y-90146285D01*
G04 #@! TO.C,C10*
X138025142Y-91828857D02*
X138072761Y-91876476D01*
X138120380Y-92019333D01*
X138120380Y-92114571D01*
X138072761Y-92257428D01*
X137977523Y-92352666D01*
X137882285Y-92400285D01*
X137691809Y-92447904D01*
X137548952Y-92447904D01*
X137358476Y-92400285D01*
X137263238Y-92352666D01*
X137168000Y-92257428D01*
X137120380Y-92114571D01*
X137120380Y-92019333D01*
X137168000Y-91876476D01*
X137215619Y-91828857D01*
X138120380Y-90876476D02*
X138120380Y-91447904D01*
X138120380Y-91162190D02*
X137120380Y-91162190D01*
X137263238Y-91257428D01*
X137358476Y-91352666D01*
X137406095Y-91447904D01*
X137120380Y-90257428D02*
X137120380Y-90162190D01*
X137168000Y-90066952D01*
X137215619Y-90019333D01*
X137310857Y-89971714D01*
X137501333Y-89924095D01*
X137739428Y-89924095D01*
X137929904Y-89971714D01*
X138025142Y-90019333D01*
X138072761Y-90066952D01*
X138120380Y-90162190D01*
X138120380Y-90257428D01*
X138072761Y-90352666D01*
X138025142Y-90400285D01*
X137929904Y-90447904D01*
X137739428Y-90495523D01*
X137501333Y-90495523D01*
X137310857Y-90447904D01*
X137215619Y-90400285D01*
X137168000Y-90352666D01*
X137120380Y-90257428D01*
G04 #@! TO.C,F1*
X190682571Y-62817333D02*
X190682571Y-63150666D01*
X191206380Y-63150666D02*
X190206380Y-63150666D01*
X190206380Y-62674476D01*
X191206380Y-61769714D02*
X191206380Y-62341142D01*
X191206380Y-62055428D02*
X190206380Y-62055428D01*
X190349238Y-62150666D01*
X190444476Y-62245904D01*
X190492095Y-62341142D01*
G04 #@! TD*
M02*
