G04 #@! TF.GenerationSoftware,KiCad,Pcbnew,5.0.1-33cea8e~68~ubuntu18.04.1*
G04 #@! TF.CreationDate,2018-11-06T10:20:57-05:00*
G04 #@! TF.ProjectId,beacon,626561636F6E2E6B696361645F706362,rev?*
G04 #@! TF.SameCoordinates,Original*
G04 #@! TF.FileFunction,Soldermask,Top*
G04 #@! TF.FilePolarity,Negative*
%FSLAX46Y46*%
G04 Gerber Fmt 4.6, Leading zero omitted, Abs format (unit mm)*
G04 Created by KiCad (PCBNEW 5.0.1-33cea8e~68~ubuntu18.04.1) date Tue 06 Nov 2018 10:20:57 AM EST*
%MOMM*%
%LPD*%
G01*
G04 APERTURE LIST*
%ADD10C,0.100000*%
G04 APERTURE END LIST*
D10*
G36*
X127051000Y-92501000D02*
X125649000Y-92501000D01*
X125649000Y-91699000D01*
X127051000Y-91699000D01*
X127051000Y-92501000D01*
X127051000Y-92501000D01*
G37*
G36*
X129276000Y-92451000D02*
X127924000Y-92451000D01*
X127924000Y-91349000D01*
X129276000Y-91349000D01*
X129276000Y-92451000D01*
X129276000Y-92451000D01*
G37*
G36*
X117287142Y-90368242D02*
X117435102Y-90429530D01*
X117568258Y-90518502D01*
X117681498Y-90631742D01*
X117770470Y-90764898D01*
X117831758Y-90912858D01*
X117863000Y-91069925D01*
X117863000Y-91230075D01*
X117831758Y-91387142D01*
X117770470Y-91535102D01*
X117681498Y-91668258D01*
X117568258Y-91781498D01*
X117435102Y-91870470D01*
X117287142Y-91931758D01*
X117130075Y-91963000D01*
X116969925Y-91963000D01*
X116812858Y-91931758D01*
X116664898Y-91870470D01*
X116531742Y-91781498D01*
X116418502Y-91668258D01*
X116329530Y-91535102D01*
X116268242Y-91387142D01*
X116237000Y-91230075D01*
X116237000Y-91069925D01*
X116268242Y-90912858D01*
X116329530Y-90764898D01*
X116418502Y-90631742D01*
X116531742Y-90518502D01*
X116664898Y-90429530D01*
X116812858Y-90368242D01*
X116969925Y-90337000D01*
X117130075Y-90337000D01*
X117287142Y-90368242D01*
X117287142Y-90368242D01*
G37*
G36*
X122287142Y-90368242D02*
X122435102Y-90429530D01*
X122568258Y-90518502D01*
X122681498Y-90631742D01*
X122770470Y-90764898D01*
X122831758Y-90912858D01*
X122863000Y-91069925D01*
X122863000Y-91230075D01*
X122831758Y-91387142D01*
X122770470Y-91535102D01*
X122681498Y-91668258D01*
X122568258Y-91781498D01*
X122435102Y-91870470D01*
X122287142Y-91931758D01*
X122130075Y-91963000D01*
X121969925Y-91963000D01*
X121812858Y-91931758D01*
X121664898Y-91870470D01*
X121531742Y-91781498D01*
X121418502Y-91668258D01*
X121329530Y-91535102D01*
X121268242Y-91387142D01*
X121237000Y-91230075D01*
X121237000Y-91069925D01*
X121268242Y-90912858D01*
X121329530Y-90764898D01*
X121418502Y-90631742D01*
X121531742Y-90518502D01*
X121664898Y-90429530D01*
X121812858Y-90368242D01*
X121969925Y-90337000D01*
X122130075Y-90337000D01*
X122287142Y-90368242D01*
X122287142Y-90368242D01*
G37*
G36*
X119787142Y-90368242D02*
X119935102Y-90429530D01*
X120068258Y-90518502D01*
X120181498Y-90631742D01*
X120270470Y-90764898D01*
X120331758Y-90912858D01*
X120363000Y-91069925D01*
X120363000Y-91230075D01*
X120331758Y-91387142D01*
X120270470Y-91535102D01*
X120181498Y-91668258D01*
X120068258Y-91781498D01*
X119935102Y-91870470D01*
X119787142Y-91931758D01*
X119630075Y-91963000D01*
X119469925Y-91963000D01*
X119312858Y-91931758D01*
X119164898Y-91870470D01*
X119031742Y-91781498D01*
X118918502Y-91668258D01*
X118829530Y-91535102D01*
X118768242Y-91387142D01*
X118737000Y-91230075D01*
X118737000Y-91069925D01*
X118768242Y-90912858D01*
X118829530Y-90764898D01*
X118918502Y-90631742D01*
X119031742Y-90518502D01*
X119164898Y-90429530D01*
X119312858Y-90368242D01*
X119469925Y-90337000D01*
X119630075Y-90337000D01*
X119787142Y-90368242D01*
X119787142Y-90368242D01*
G37*
G36*
X127051000Y-90601000D02*
X125649000Y-90601000D01*
X125649000Y-89799000D01*
X127051000Y-89799000D01*
X127051000Y-90601000D01*
X127051000Y-90601000D01*
G37*
G36*
X129276000Y-90451000D02*
X127924000Y-90451000D01*
X127924000Y-89349000D01*
X129276000Y-89349000D01*
X129276000Y-90451000D01*
X129276000Y-90451000D01*
G37*
G36*
X127501000Y-88701000D02*
X126699000Y-88701000D01*
X126699000Y-87299000D01*
X127501000Y-87299000D01*
X127501000Y-88701000D01*
X127501000Y-88701000D01*
G37*
G36*
X129401000Y-88701000D02*
X128599000Y-88701000D01*
X128599000Y-87299000D01*
X129401000Y-87299000D01*
X129401000Y-88701000D01*
X129401000Y-88701000D01*
G37*
G36*
X124861822Y-86906314D02*
X124861825Y-86906315D01*
X124861826Y-86906315D01*
X125022240Y-86954976D01*
X125022242Y-86954977D01*
X125022245Y-86954978D01*
X125170079Y-87033996D01*
X125299660Y-87140342D01*
X125406006Y-87269923D01*
X125485024Y-87417757D01*
X125533688Y-87578180D01*
X125550118Y-87745001D01*
X125533688Y-87911822D01*
X125485024Y-88072245D01*
X125406006Y-88220079D01*
X125299660Y-88349660D01*
X125170079Y-88456006D01*
X125022245Y-88535024D01*
X125022242Y-88535025D01*
X125022240Y-88535026D01*
X124861826Y-88583687D01*
X124861825Y-88583687D01*
X124861822Y-88583688D01*
X124736805Y-88596001D01*
X124653197Y-88596001D01*
X124528180Y-88583688D01*
X124528177Y-88583687D01*
X124528176Y-88583687D01*
X124367762Y-88535026D01*
X124367760Y-88535025D01*
X124367757Y-88535024D01*
X124219923Y-88456006D01*
X124090342Y-88349660D01*
X123983996Y-88220079D01*
X123904978Y-88072245D01*
X123856314Y-87911822D01*
X123839884Y-87745001D01*
X123856314Y-87578180D01*
X123904978Y-87417757D01*
X123983996Y-87269923D01*
X124090342Y-87140342D01*
X124219923Y-87033996D01*
X124367757Y-86954978D01*
X124367760Y-86954977D01*
X124367762Y-86954976D01*
X124528176Y-86906315D01*
X124528177Y-86906315D01*
X124528180Y-86906314D01*
X124653197Y-86894001D01*
X124736805Y-86894001D01*
X124861822Y-86906314D01*
X124861822Y-86906314D01*
G37*
G36*
X117241822Y-86906314D02*
X117241825Y-86906315D01*
X117241826Y-86906315D01*
X117402240Y-86954976D01*
X117402242Y-86954977D01*
X117402245Y-86954978D01*
X117550079Y-87033996D01*
X117679660Y-87140342D01*
X117786006Y-87269923D01*
X117865024Y-87417757D01*
X117913688Y-87578180D01*
X117930118Y-87745001D01*
X117913688Y-87911822D01*
X117865024Y-88072245D01*
X117786006Y-88220079D01*
X117679660Y-88349660D01*
X117550079Y-88456006D01*
X117402245Y-88535024D01*
X117402242Y-88535025D01*
X117402240Y-88535026D01*
X117241826Y-88583687D01*
X117241825Y-88583687D01*
X117241822Y-88583688D01*
X117116805Y-88596001D01*
X117033197Y-88596001D01*
X116908180Y-88583688D01*
X116908177Y-88583687D01*
X116908176Y-88583687D01*
X116747762Y-88535026D01*
X116747760Y-88535025D01*
X116747757Y-88535024D01*
X116599923Y-88456006D01*
X116470342Y-88349660D01*
X116363996Y-88220079D01*
X116284978Y-88072245D01*
X116236314Y-87911822D01*
X116219884Y-87745001D01*
X116236314Y-87578180D01*
X116284978Y-87417757D01*
X116363996Y-87269923D01*
X116470342Y-87140342D01*
X116599923Y-87033996D01*
X116747757Y-86954978D01*
X116747760Y-86954977D01*
X116747762Y-86954976D01*
X116908176Y-86906315D01*
X116908177Y-86906315D01*
X116908180Y-86906314D01*
X117033197Y-86894001D01*
X117116805Y-86894001D01*
X117241822Y-86906314D01*
X117241822Y-86906314D01*
G37*
G36*
X128344581Y-84443723D02*
X128497179Y-84506931D01*
X128634513Y-84598695D01*
X128751305Y-84715487D01*
X128843069Y-84852821D01*
X128906277Y-85005419D01*
X128938500Y-85167414D01*
X128938500Y-85332586D01*
X128906277Y-85494581D01*
X128843069Y-85647179D01*
X128751305Y-85784513D01*
X128634513Y-85901305D01*
X128497179Y-85993069D01*
X128344581Y-86056277D01*
X128182586Y-86088500D01*
X128017414Y-86088500D01*
X127855419Y-86056277D01*
X127702821Y-85993069D01*
X127565487Y-85901305D01*
X127448695Y-85784513D01*
X127356931Y-85647179D01*
X127293723Y-85494581D01*
X127261500Y-85332586D01*
X127261500Y-85167414D01*
X127293723Y-85005419D01*
X127356931Y-84852821D01*
X127448695Y-84715487D01*
X127565487Y-84598695D01*
X127702821Y-84506931D01*
X127855419Y-84443723D01*
X128017414Y-84411500D01*
X128182586Y-84411500D01*
X128344581Y-84443723D01*
X128344581Y-84443723D01*
G37*
G36*
X117241822Y-84366314D02*
X117241825Y-84366315D01*
X117241826Y-84366315D01*
X117402240Y-84414976D01*
X117402242Y-84414977D01*
X117402245Y-84414978D01*
X117550079Y-84493996D01*
X117679660Y-84600342D01*
X117786006Y-84729923D01*
X117865024Y-84877757D01*
X117913688Y-85038180D01*
X117930118Y-85205001D01*
X117913688Y-85371822D01*
X117913687Y-85371825D01*
X117913687Y-85371826D01*
X117876450Y-85494581D01*
X117865024Y-85532245D01*
X117786006Y-85680079D01*
X117679660Y-85809660D01*
X117550079Y-85916006D01*
X117402245Y-85995024D01*
X117402242Y-85995025D01*
X117402240Y-85995026D01*
X117241826Y-86043687D01*
X117241825Y-86043687D01*
X117241822Y-86043688D01*
X117116805Y-86056001D01*
X117033197Y-86056001D01*
X116908180Y-86043688D01*
X116908177Y-86043687D01*
X116908176Y-86043687D01*
X116747762Y-85995026D01*
X116747760Y-85995025D01*
X116747757Y-85995024D01*
X116599923Y-85916006D01*
X116470342Y-85809660D01*
X116363996Y-85680079D01*
X116284978Y-85532245D01*
X116273553Y-85494581D01*
X116236315Y-85371826D01*
X116236315Y-85371825D01*
X116236314Y-85371822D01*
X116219884Y-85205001D01*
X116236314Y-85038180D01*
X116284978Y-84877757D01*
X116363996Y-84729923D01*
X116470342Y-84600342D01*
X116599923Y-84493996D01*
X116747757Y-84414978D01*
X116747760Y-84414977D01*
X116747762Y-84414976D01*
X116908176Y-84366315D01*
X116908177Y-84366315D01*
X116908180Y-84366314D01*
X117033197Y-84354001D01*
X117116805Y-84354001D01*
X117241822Y-84366314D01*
X117241822Y-84366314D01*
G37*
G36*
X124861822Y-84366314D02*
X124861825Y-84366315D01*
X124861826Y-84366315D01*
X125022240Y-84414976D01*
X125022242Y-84414977D01*
X125022245Y-84414978D01*
X125170079Y-84493996D01*
X125299660Y-84600342D01*
X125406006Y-84729923D01*
X125485024Y-84877757D01*
X125533688Y-85038180D01*
X125550118Y-85205001D01*
X125533688Y-85371822D01*
X125533687Y-85371825D01*
X125533687Y-85371826D01*
X125496450Y-85494581D01*
X125485024Y-85532245D01*
X125406006Y-85680079D01*
X125299660Y-85809660D01*
X125170079Y-85916006D01*
X125022245Y-85995024D01*
X125022242Y-85995025D01*
X125022240Y-85995026D01*
X124861826Y-86043687D01*
X124861825Y-86043687D01*
X124861822Y-86043688D01*
X124736805Y-86056001D01*
X124653197Y-86056001D01*
X124528180Y-86043688D01*
X124528177Y-86043687D01*
X124528176Y-86043687D01*
X124367762Y-85995026D01*
X124367760Y-85995025D01*
X124367757Y-85995024D01*
X124219923Y-85916006D01*
X124090342Y-85809660D01*
X123983996Y-85680079D01*
X123904978Y-85532245D01*
X123893553Y-85494581D01*
X123856315Y-85371826D01*
X123856315Y-85371825D01*
X123856314Y-85371822D01*
X123839884Y-85205001D01*
X123856314Y-85038180D01*
X123904978Y-84877757D01*
X123983996Y-84729923D01*
X124090342Y-84600342D01*
X124219923Y-84493996D01*
X124367757Y-84414978D01*
X124367760Y-84414977D01*
X124367762Y-84414976D01*
X124528176Y-84366315D01*
X124528177Y-84366315D01*
X124528180Y-84366314D01*
X124653197Y-84354001D01*
X124736805Y-84354001D01*
X124861822Y-84366314D01*
X124861822Y-84366314D01*
G37*
G36*
X124861822Y-81826314D02*
X124861825Y-81826315D01*
X124861826Y-81826315D01*
X125022240Y-81874976D01*
X125022242Y-81874977D01*
X125022245Y-81874978D01*
X125170079Y-81953996D01*
X125299660Y-82060342D01*
X125406006Y-82189923D01*
X125485024Y-82337757D01*
X125533688Y-82498180D01*
X125550118Y-82665001D01*
X125533688Y-82831822D01*
X125485024Y-82992245D01*
X125406006Y-83140079D01*
X125299660Y-83269660D01*
X125170079Y-83376006D01*
X125022245Y-83455024D01*
X125022242Y-83455025D01*
X125022240Y-83455026D01*
X124861826Y-83503687D01*
X124861825Y-83503687D01*
X124861822Y-83503688D01*
X124736805Y-83516001D01*
X124653197Y-83516001D01*
X124528180Y-83503688D01*
X124528177Y-83503687D01*
X124528176Y-83503687D01*
X124367762Y-83455026D01*
X124367760Y-83455025D01*
X124367757Y-83455024D01*
X124219923Y-83376006D01*
X124090342Y-83269660D01*
X123983996Y-83140079D01*
X123904978Y-82992245D01*
X123856314Y-82831822D01*
X123839884Y-82665001D01*
X123856314Y-82498180D01*
X123904978Y-82337757D01*
X123983996Y-82189923D01*
X124090342Y-82060342D01*
X124219923Y-81953996D01*
X124367757Y-81874978D01*
X124367760Y-81874977D01*
X124367762Y-81874976D01*
X124528176Y-81826315D01*
X124528177Y-81826315D01*
X124528180Y-81826314D01*
X124653197Y-81814001D01*
X124736805Y-81814001D01*
X124861822Y-81826314D01*
X124861822Y-81826314D01*
G37*
G36*
X117241822Y-81826314D02*
X117241825Y-81826315D01*
X117241826Y-81826315D01*
X117402240Y-81874976D01*
X117402242Y-81874977D01*
X117402245Y-81874978D01*
X117550079Y-81953996D01*
X117679660Y-82060342D01*
X117786006Y-82189923D01*
X117865024Y-82337757D01*
X117913688Y-82498180D01*
X117930118Y-82665001D01*
X117913688Y-82831822D01*
X117865024Y-82992245D01*
X117786006Y-83140079D01*
X117679660Y-83269660D01*
X117550079Y-83376006D01*
X117402245Y-83455024D01*
X117402242Y-83455025D01*
X117402240Y-83455026D01*
X117241826Y-83503687D01*
X117241825Y-83503687D01*
X117241822Y-83503688D01*
X117116805Y-83516001D01*
X117033197Y-83516001D01*
X116908180Y-83503688D01*
X116908177Y-83503687D01*
X116908176Y-83503687D01*
X116747762Y-83455026D01*
X116747760Y-83455025D01*
X116747757Y-83455024D01*
X116599923Y-83376006D01*
X116470342Y-83269660D01*
X116363996Y-83140079D01*
X116284978Y-82992245D01*
X116236314Y-82831822D01*
X116219884Y-82665001D01*
X116236314Y-82498180D01*
X116284978Y-82337757D01*
X116363996Y-82189923D01*
X116470342Y-82060342D01*
X116599923Y-81953996D01*
X116747757Y-81874978D01*
X116747760Y-81874977D01*
X116747762Y-81874976D01*
X116908176Y-81826315D01*
X116908177Y-81826315D01*
X116908180Y-81826314D01*
X117033197Y-81814001D01*
X117116805Y-81814001D01*
X117241822Y-81826314D01*
X117241822Y-81826314D01*
G37*
G36*
X128344581Y-79403723D02*
X128497179Y-79466931D01*
X128634513Y-79558695D01*
X128751305Y-79675487D01*
X128843069Y-79812821D01*
X128906277Y-79965419D01*
X128938500Y-80127414D01*
X128938500Y-80292586D01*
X128906277Y-80454581D01*
X128843069Y-80607179D01*
X128751305Y-80744513D01*
X128634513Y-80861305D01*
X128497179Y-80953069D01*
X128344581Y-81016277D01*
X128182586Y-81048500D01*
X128017414Y-81048500D01*
X127855419Y-81016277D01*
X127702821Y-80953069D01*
X127565487Y-80861305D01*
X127448695Y-80744513D01*
X127356931Y-80607179D01*
X127293723Y-80454581D01*
X127261500Y-80292586D01*
X127261500Y-80127414D01*
X127293723Y-79965419D01*
X127356931Y-79812821D01*
X127448695Y-79675487D01*
X127565487Y-79558695D01*
X127702821Y-79466931D01*
X127855419Y-79403723D01*
X128017414Y-79371500D01*
X128182586Y-79371500D01*
X128344581Y-79403723D01*
X128344581Y-79403723D01*
G37*
G36*
X117926001Y-80976001D02*
X116224001Y-80976001D01*
X116224001Y-79274001D01*
X117926001Y-79274001D01*
X117926001Y-80976001D01*
X117926001Y-80976001D01*
G37*
G36*
X124861822Y-79286314D02*
X124861825Y-79286315D01*
X124861826Y-79286315D01*
X125022240Y-79334976D01*
X125022242Y-79334977D01*
X125022245Y-79334978D01*
X125170079Y-79413996D01*
X125299660Y-79520342D01*
X125406006Y-79649923D01*
X125485024Y-79797757D01*
X125533688Y-79958180D01*
X125550118Y-80125001D01*
X125533688Y-80291822D01*
X125485024Y-80452245D01*
X125406006Y-80600079D01*
X125299660Y-80729660D01*
X125170079Y-80836006D01*
X125022245Y-80915024D01*
X125022242Y-80915025D01*
X125022240Y-80915026D01*
X124861826Y-80963687D01*
X124861825Y-80963687D01*
X124861822Y-80963688D01*
X124736805Y-80976001D01*
X124653197Y-80976001D01*
X124528180Y-80963688D01*
X124528177Y-80963687D01*
X124528176Y-80963687D01*
X124367762Y-80915026D01*
X124367760Y-80915025D01*
X124367757Y-80915024D01*
X124219923Y-80836006D01*
X124090342Y-80729660D01*
X123983996Y-80600079D01*
X123904978Y-80452245D01*
X123856314Y-80291822D01*
X123839884Y-80125001D01*
X123856314Y-79958180D01*
X123904978Y-79797757D01*
X123983996Y-79649923D01*
X124090342Y-79520342D01*
X124219923Y-79413996D01*
X124367757Y-79334978D01*
X124367760Y-79334977D01*
X124367762Y-79334976D01*
X124528176Y-79286315D01*
X124528177Y-79286315D01*
X124528180Y-79286314D01*
X124653197Y-79274001D01*
X124736805Y-79274001D01*
X124861822Y-79286314D01*
X124861822Y-79286314D01*
G37*
M02*
