G04 #@! TF.GenerationSoftware,KiCad,Pcbnew,5.0.1-33cea8e~68~ubuntu18.04.1*
G04 #@! TF.CreationDate,2018-11-06T10:20:57-05:00*
G04 #@! TF.ProjectId,beacon,626561636F6E2E6B696361645F706362,rev?*
G04 #@! TF.SameCoordinates,Original*
G04 #@! TF.FileFunction,Legend,Top*
G04 #@! TF.FilePolarity,Positive*
%FSLAX46Y46*%
G04 Gerber Fmt 4.6, Leading zero omitted, Abs format (unit mm)*
G04 Created by KiCad (PCBNEW 5.0.1-33cea8e~68~ubuntu18.04.1) date Tue 06 Nov 2018 10:20:57 AM EST*
%MOMM*%
%LPD*%
G01*
G04 APERTURE LIST*
%ADD10C,0.200000*%
%ADD11C,0.120000*%
%ADD12C,0.150000*%
G04 APERTURE END LIST*
D10*
X118166666Y-93602380D02*
X118166666Y-94411904D01*
X118214285Y-94507142D01*
X118261904Y-94554761D01*
X118357142Y-94602380D01*
X118547619Y-94602380D01*
X118642857Y-94554761D01*
X118690476Y-94507142D01*
X118738095Y-94411904D01*
X118738095Y-93602380D01*
X119071428Y-93935714D02*
X119452380Y-93935714D01*
X119214285Y-93602380D02*
X119214285Y-94459523D01*
X119261904Y-94554761D01*
X119357142Y-94602380D01*
X119452380Y-94602380D01*
X119738095Y-94554761D02*
X119833333Y-94602380D01*
X120023809Y-94602380D01*
X120119047Y-94554761D01*
X120166666Y-94459523D01*
X120166666Y-94411904D01*
X120119047Y-94316666D01*
X120023809Y-94269047D01*
X119880952Y-94269047D01*
X119785714Y-94221428D01*
X119738095Y-94126190D01*
X119738095Y-94078571D01*
X119785714Y-93983333D01*
X119880952Y-93935714D01*
X120023809Y-93935714D01*
X120119047Y-93983333D01*
X121023809Y-94602380D02*
X121023809Y-94078571D01*
X120976190Y-93983333D01*
X120880952Y-93935714D01*
X120690476Y-93935714D01*
X120595238Y-93983333D01*
X121023809Y-94554761D02*
X120928571Y-94602380D01*
X120690476Y-94602380D01*
X120595238Y-94554761D01*
X120547619Y-94459523D01*
X120547619Y-94364285D01*
X120595238Y-94269047D01*
X120690476Y-94221428D01*
X120928571Y-94221428D01*
X121023809Y-94173809D01*
X121404761Y-93935714D02*
X121642857Y-94602380D01*
X121880952Y-93935714D01*
X123547619Y-93650000D02*
X123452380Y-93602380D01*
X123309523Y-93602380D01*
X123166666Y-93650000D01*
X123071428Y-93745238D01*
X123023809Y-93840476D01*
X122976190Y-94030952D01*
X122976190Y-94173809D01*
X123023809Y-94364285D01*
X123071428Y-94459523D01*
X123166666Y-94554761D01*
X123309523Y-94602380D01*
X123404761Y-94602380D01*
X123547619Y-94554761D01*
X123595238Y-94507142D01*
X123595238Y-94173809D01*
X123404761Y-94173809D01*
X124452380Y-93935714D02*
X124452380Y-94602380D01*
X124023809Y-93935714D02*
X124023809Y-94459523D01*
X124071428Y-94554761D01*
X124166666Y-94602380D01*
X124309523Y-94602380D01*
X124404761Y-94554761D01*
X124452380Y-94507142D01*
X124928571Y-93935714D02*
X124928571Y-94935714D01*
X124928571Y-93983333D02*
X125023809Y-93935714D01*
X125214285Y-93935714D01*
X125309523Y-93983333D01*
X125357142Y-94030952D01*
X125404761Y-94126190D01*
X125404761Y-94411904D01*
X125357142Y-94507142D01*
X125309523Y-94554761D01*
X125214285Y-94602380D01*
X125023809Y-94602380D01*
X124928571Y-94554761D01*
X125690476Y-93935714D02*
X126071428Y-93935714D01*
X125833333Y-93602380D02*
X125833333Y-94459523D01*
X125880952Y-94554761D01*
X125976190Y-94602380D01*
X126071428Y-94602380D01*
X126833333Y-94602380D02*
X126833333Y-94078571D01*
X126785714Y-93983333D01*
X126690476Y-93935714D01*
X126500000Y-93935714D01*
X126404761Y-93983333D01*
X126833333Y-94554761D02*
X126738095Y-94602380D01*
X126500000Y-94602380D01*
X126404761Y-94554761D01*
X126357142Y-94459523D01*
X126357142Y-94364285D01*
X126404761Y-94269047D01*
X126500000Y-94221428D01*
X126738095Y-94221428D01*
X126833333Y-94173809D01*
X119119047Y-95778571D02*
X119261904Y-95826190D01*
X119309523Y-95873809D01*
X119357142Y-95969047D01*
X119357142Y-96111904D01*
X119309523Y-96207142D01*
X119261904Y-96254761D01*
X119166666Y-96302380D01*
X118785714Y-96302380D01*
X118785714Y-95302380D01*
X119119047Y-95302380D01*
X119214285Y-95350000D01*
X119261904Y-95397619D01*
X119309523Y-95492857D01*
X119309523Y-95588095D01*
X119261904Y-95683333D01*
X119214285Y-95730952D01*
X119119047Y-95778571D01*
X118785714Y-95778571D01*
X120166666Y-96254761D02*
X120071428Y-96302380D01*
X119880952Y-96302380D01*
X119785714Y-96254761D01*
X119738095Y-96159523D01*
X119738095Y-95778571D01*
X119785714Y-95683333D01*
X119880952Y-95635714D01*
X120071428Y-95635714D01*
X120166666Y-95683333D01*
X120214285Y-95778571D01*
X120214285Y-95873809D01*
X119738095Y-95969047D01*
X121071428Y-96302380D02*
X121071428Y-95778571D01*
X121023809Y-95683333D01*
X120928571Y-95635714D01*
X120738095Y-95635714D01*
X120642857Y-95683333D01*
X121071428Y-96254761D02*
X120976190Y-96302380D01*
X120738095Y-96302380D01*
X120642857Y-96254761D01*
X120595238Y-96159523D01*
X120595238Y-96064285D01*
X120642857Y-95969047D01*
X120738095Y-95921428D01*
X120976190Y-95921428D01*
X121071428Y-95873809D01*
X121976190Y-96254761D02*
X121880952Y-96302380D01*
X121690476Y-96302380D01*
X121595238Y-96254761D01*
X121547619Y-96207142D01*
X121500000Y-96111904D01*
X121500000Y-95826190D01*
X121547619Y-95730952D01*
X121595238Y-95683333D01*
X121690476Y-95635714D01*
X121880952Y-95635714D01*
X121976190Y-95683333D01*
X122547619Y-96302380D02*
X122452380Y-96254761D01*
X122404761Y-96207142D01*
X122357142Y-96111904D01*
X122357142Y-95826190D01*
X122404761Y-95730952D01*
X122452380Y-95683333D01*
X122547619Y-95635714D01*
X122690476Y-95635714D01*
X122785714Y-95683333D01*
X122833333Y-95730952D01*
X122880952Y-95826190D01*
X122880952Y-96111904D01*
X122833333Y-96207142D01*
X122785714Y-96254761D01*
X122690476Y-96302380D01*
X122547619Y-96302380D01*
X123309523Y-95635714D02*
X123309523Y-96302380D01*
X123309523Y-95730952D02*
X123357142Y-95683333D01*
X123452380Y-95635714D01*
X123595238Y-95635714D01*
X123690476Y-95683333D01*
X123738095Y-95778571D01*
X123738095Y-96302380D01*
X124880952Y-95635714D02*
X125119047Y-96302380D01*
X125357142Y-95635714D01*
X126261904Y-96302380D02*
X125690476Y-96302380D01*
X125976190Y-96302380D02*
X125976190Y-95302380D01*
X125880952Y-95445238D01*
X125785714Y-95540476D01*
X125690476Y-95588095D01*
X114934164Y-80067082D02*
G75*
G02X114950000Y-80000000I-134164J67082D01*
G01*
D11*
G04 #@! TO.C,C1*
X127750000Y-90400000D02*
X127750000Y-91400000D01*
X129450000Y-91400000D02*
X129450000Y-90400000D01*
D12*
G04 #@! TO.C,J1*
X123550000Y-92650000D02*
X115550000Y-92650000D01*
X115550000Y-92650000D02*
X115550000Y-89650000D01*
X115550000Y-89650000D02*
X123550000Y-89650000D01*
X123550000Y-89650000D02*
X123550000Y-92650000D01*
D11*
G04 #@! TO.C,R1*
X127450000Y-87120000D02*
X128650000Y-87120000D01*
X128650000Y-88880000D02*
X127450000Y-88880000D01*
G04 #@! TO.C,R2*
X127230000Y-90550000D02*
X127230000Y-91750000D01*
X125470000Y-91750000D02*
X125470000Y-90550000D01*
D12*
G04 #@! TO.C,SW1*
X129600000Y-78750000D02*
X129600000Y-86750000D01*
X129600000Y-86750000D02*
X126600000Y-86750000D01*
X126600000Y-86750000D02*
X126600000Y-78750000D01*
X126600000Y-78750000D02*
X129600000Y-78750000D01*
D11*
G04 #@! TO.C,U1*
X126025001Y-78735001D02*
X115745001Y-78735001D01*
X126025001Y-89135001D02*
X126025001Y-78735001D01*
X115745001Y-89135001D02*
X126025001Y-89135001D01*
X115745001Y-78735001D02*
X115745001Y-89135001D01*
X123535001Y-78795001D02*
X121885001Y-78795001D01*
X123535001Y-89075001D02*
X123535001Y-78795001D01*
X118235001Y-89075001D02*
X123535001Y-89075001D01*
X118235001Y-78795001D02*
X118235001Y-89075001D01*
X119885001Y-78795001D02*
X118235001Y-78795001D01*
X121885001Y-78795001D02*
G75*
G02X119885001Y-78795001I-1000000J0D01*
G01*
G04 #@! TO.C,C1*
D12*
X130957142Y-91066666D02*
X131004761Y-91114285D01*
X131052380Y-91257142D01*
X131052380Y-91352380D01*
X131004761Y-91495238D01*
X130909523Y-91590476D01*
X130814285Y-91638095D01*
X130623809Y-91685714D01*
X130480952Y-91685714D01*
X130290476Y-91638095D01*
X130195238Y-91590476D01*
X130100000Y-91495238D01*
X130052380Y-91352380D01*
X130052380Y-91257142D01*
X130100000Y-91114285D01*
X130147619Y-91066666D01*
X131052380Y-90114285D02*
X131052380Y-90685714D01*
X131052380Y-90400000D02*
X130052380Y-90400000D01*
X130195238Y-90495238D01*
X130290476Y-90590476D01*
X130338095Y-90685714D01*
G04 #@! TO.C,J1*
X124166666Y-89702380D02*
X124166666Y-90416666D01*
X124119047Y-90559523D01*
X124023809Y-90654761D01*
X123880952Y-90702380D01*
X123785714Y-90702380D01*
X125166666Y-90702380D02*
X124595238Y-90702380D01*
X124880952Y-90702380D02*
X124880952Y-89702380D01*
X124785714Y-89845238D01*
X124690476Y-89940476D01*
X124595238Y-89988095D01*
G04 #@! TO.C,R1*
X130383333Y-88452380D02*
X130050000Y-87976190D01*
X129811904Y-88452380D02*
X129811904Y-87452380D01*
X130192857Y-87452380D01*
X130288095Y-87500000D01*
X130335714Y-87547619D01*
X130383333Y-87642857D01*
X130383333Y-87785714D01*
X130335714Y-87880952D01*
X130288095Y-87928571D01*
X130192857Y-87976190D01*
X129811904Y-87976190D01*
X131335714Y-88452380D02*
X130764285Y-88452380D01*
X131050000Y-88452380D02*
X131050000Y-87452380D01*
X130954761Y-87595238D01*
X130859523Y-87690476D01*
X130764285Y-87738095D01*
G04 #@! TO.C,R2*
X124333333Y-92352380D02*
X124000000Y-91876190D01*
X123761904Y-92352380D02*
X123761904Y-91352380D01*
X124142857Y-91352380D01*
X124238095Y-91400000D01*
X124285714Y-91447619D01*
X124333333Y-91542857D01*
X124333333Y-91685714D01*
X124285714Y-91780952D01*
X124238095Y-91828571D01*
X124142857Y-91876190D01*
X123761904Y-91876190D01*
X124714285Y-91447619D02*
X124761904Y-91400000D01*
X124857142Y-91352380D01*
X125095238Y-91352380D01*
X125190476Y-91400000D01*
X125238095Y-91447619D01*
X125285714Y-91542857D01*
X125285714Y-91638095D01*
X125238095Y-91780952D01*
X124666666Y-92352380D01*
X125285714Y-92352380D01*
G04 #@! TO.C,SW1*
X128554761Y-83983333D02*
X128602380Y-83840476D01*
X128602380Y-83602380D01*
X128554761Y-83507142D01*
X128507142Y-83459523D01*
X128411904Y-83411904D01*
X128316666Y-83411904D01*
X128221428Y-83459523D01*
X128173809Y-83507142D01*
X128126190Y-83602380D01*
X128078571Y-83792857D01*
X128030952Y-83888095D01*
X127983333Y-83935714D01*
X127888095Y-83983333D01*
X127792857Y-83983333D01*
X127697619Y-83935714D01*
X127650000Y-83888095D01*
X127602380Y-83792857D01*
X127602380Y-83554761D01*
X127650000Y-83411904D01*
X127602380Y-83078571D02*
X128602380Y-82840476D01*
X127888095Y-82650000D01*
X128602380Y-82459523D01*
X127602380Y-82221428D01*
X128602380Y-81316666D02*
X128602380Y-81888095D01*
X128602380Y-81602380D02*
X127602380Y-81602380D01*
X127745238Y-81697619D01*
X127840476Y-81792857D01*
X127888095Y-81888095D01*
G04 #@! TO.C,U1*
X120138095Y-83452380D02*
X120138095Y-84261904D01*
X120185714Y-84357142D01*
X120233333Y-84404761D01*
X120328571Y-84452380D01*
X120519047Y-84452380D01*
X120614285Y-84404761D01*
X120661904Y-84357142D01*
X120709523Y-84261904D01*
X120709523Y-83452380D01*
X121709523Y-84452380D02*
X121138095Y-84452380D01*
X121423809Y-84452380D02*
X121423809Y-83452380D01*
X121328571Y-83595238D01*
X121233333Y-83690476D01*
X121138095Y-83738095D01*
G04 #@! TD*
M02*
