G04 #@! TF.GenerationSoftware,KiCad,Pcbnew,5.0.1-33cea8e~68~ubuntu18.04.1*
G04 #@! TF.CreationDate,2018-11-06T10:20:57-05:00*
G04 #@! TF.ProjectId,beacon,626561636F6E2E6B696361645F706362,rev?*
G04 #@! TF.SameCoordinates,Original*
G04 #@! TF.FileFunction,Copper,L2,Bot,Signal*
G04 #@! TF.FilePolarity,Positive*
%FSLAX46Y46*%
G04 Gerber Fmt 4.6, Leading zero omitted, Abs format (unit mm)*
G04 Created by KiCad (PCBNEW 5.0.1-33cea8e~68~ubuntu18.04.1) date Tue 06 Nov 2018 10:20:57 AM EST*
%MOMM*%
%LPD*%
G01*
G04 APERTURE LIST*
G04 #@! TA.AperFunction,ComponentPad*
%ADD10C,1.524000*%
G04 #@! TD*
G04 #@! TA.AperFunction,ComponentPad*
%ADD11C,1.575000*%
G04 #@! TD*
G04 #@! TA.AperFunction,ComponentPad*
%ADD12O,1.600000X1.600000*%
G04 #@! TD*
G04 #@! TA.AperFunction,ComponentPad*
%ADD13R,1.600000X1.600000*%
G04 #@! TD*
G04 #@! TA.AperFunction,ViaPad*
%ADD14C,0.800000*%
G04 #@! TD*
G04 #@! TA.AperFunction,Conductor*
%ADD15C,0.400000*%
G04 #@! TD*
G04 #@! TA.AperFunction,Conductor*
%ADD16C,0.254000*%
G04 #@! TD*
G04 APERTURE END LIST*
D10*
G04 #@! TO.P,J1,1*
G04 #@! TO.N,+5V*
X122050000Y-91150000D03*
G04 #@! TO.P,J1,2*
G04 #@! TO.N,/Data_In*
X119550000Y-91150000D03*
G04 #@! TO.P,J1,3*
G04 #@! TO.N,GND*
X117050000Y-91150000D03*
G04 #@! TD*
D11*
G04 #@! TO.P,SW1,1*
G04 #@! TO.N,+5V*
X128100000Y-80210000D03*
G04 #@! TO.P,SW1,2*
G04 #@! TO.N,/PB2*
X128100000Y-85250000D03*
G04 #@! TD*
D12*
G04 #@! TO.P,U1,8*
G04 #@! TO.N,+5V*
X124695001Y-80125001D03*
G04 #@! TO.P,U1,4*
G04 #@! TO.N,GND*
X117075001Y-87745001D03*
G04 #@! TO.P,U1,7*
G04 #@! TO.N,/PB2*
X124695001Y-82665001D03*
G04 #@! TO.P,U1,3*
G04 #@! TO.N,Net-(U1-Pad3)*
X117075001Y-85205001D03*
G04 #@! TO.P,U1,6*
G04 #@! TO.N,Net-(R2-Pad2)*
X124695001Y-85205001D03*
G04 #@! TO.P,U1,2*
G04 #@! TO.N,Net-(U1-Pad2)*
X117075001Y-82665001D03*
G04 #@! TO.P,U1,5*
G04 #@! TO.N,+5V*
X124695001Y-87745001D03*
D13*
G04 #@! TO.P,U1,1*
G04 #@! TO.N,Net-(U1-Pad1)*
X117075001Y-80125001D03*
G04 #@! TD*
D14*
G04 #@! TO.N,GND*
X128300000Y-92800000D03*
G04 #@! TO.N,Net-(R2-Pad2)*
X125400000Y-89600000D03*
G04 #@! TD*
D15*
G04 #@! TO.N,/PB2*
X125080000Y-83050000D02*
X124695001Y-82665001D01*
G04 #@! TO.N,Net-(R2-Pad2)*
X125495000Y-86005000D02*
X124695001Y-85205001D01*
X125895002Y-86405002D02*
X125495000Y-86005000D01*
X125895002Y-89104998D02*
X125895002Y-86405002D01*
X125400000Y-89600000D02*
X125895002Y-89104998D01*
G04 #@! TD*
D16*
G04 #@! TO.N,GND*
G36*
X133290000Y-74930075D02*
X133290001Y-96490000D01*
X111910000Y-96490000D01*
X111910000Y-93851151D01*
X111947455Y-93851151D01*
X111953206Y-94583402D01*
X112195836Y-95274311D01*
X112649182Y-95849377D01*
X113264360Y-96246593D01*
X113975036Y-96423126D01*
X114704578Y-96359940D01*
X115374321Y-96063850D01*
X115912046Y-95566783D01*
X116259770Y-94922336D01*
X116380000Y-94200000D01*
X116379725Y-94164973D01*
X116295017Y-93701151D01*
X128697455Y-93701151D01*
X128703206Y-94433402D01*
X128945836Y-95124311D01*
X129399182Y-95699377D01*
X130014360Y-96096593D01*
X130725036Y-96273126D01*
X131454578Y-96209940D01*
X132124321Y-95913850D01*
X132662046Y-95416783D01*
X133009770Y-94772336D01*
X133130000Y-94050000D01*
X133129725Y-94014973D01*
X132998164Y-93294614D01*
X132640360Y-92655709D01*
X132094894Y-92167149D01*
X131420583Y-91881615D01*
X130690138Y-91829897D01*
X129982323Y-92017571D01*
X129373460Y-92424400D01*
X128929203Y-93006517D01*
X128697455Y-93701151D01*
X116295017Y-93701151D01*
X116248164Y-93444614D01*
X115890360Y-92805709D01*
X115344894Y-92317149D01*
X114903430Y-92130213D01*
X116249392Y-92130213D01*
X116318857Y-92372397D01*
X116842302Y-92559144D01*
X117397368Y-92531362D01*
X117781143Y-92372397D01*
X117850608Y-92130213D01*
X117050000Y-91329605D01*
X116249392Y-92130213D01*
X114903430Y-92130213D01*
X114670583Y-92031615D01*
X113940138Y-91979897D01*
X113232323Y-92167571D01*
X112623460Y-92574400D01*
X112179203Y-93156517D01*
X111947455Y-93851151D01*
X111910000Y-93851151D01*
X111910000Y-90942302D01*
X115640856Y-90942302D01*
X115668638Y-91497368D01*
X115827603Y-91881143D01*
X116069787Y-91950608D01*
X116870395Y-91150000D01*
X117229605Y-91150000D01*
X118030213Y-91950608D01*
X118272397Y-91881143D01*
X118304025Y-91792490D01*
X118365680Y-91941337D01*
X118758663Y-92334320D01*
X119272119Y-92547000D01*
X119827881Y-92547000D01*
X120341337Y-92334320D01*
X120734320Y-91941337D01*
X120800000Y-91782771D01*
X120865680Y-91941337D01*
X121258663Y-92334320D01*
X121772119Y-92547000D01*
X122327881Y-92547000D01*
X122841337Y-92334320D01*
X123234320Y-91941337D01*
X123447000Y-91427881D01*
X123447000Y-90872119D01*
X123234320Y-90358663D01*
X122841337Y-89965680D01*
X122327881Y-89753000D01*
X121772119Y-89753000D01*
X121258663Y-89965680D01*
X120865680Y-90358663D01*
X120800000Y-90517229D01*
X120734320Y-90358663D01*
X120341337Y-89965680D01*
X119827881Y-89753000D01*
X119272119Y-89753000D01*
X118758663Y-89965680D01*
X118365680Y-90358663D01*
X118306572Y-90501363D01*
X118272397Y-90418857D01*
X118030213Y-90349392D01*
X117229605Y-91150000D01*
X116870395Y-91150000D01*
X116069787Y-90349392D01*
X115827603Y-90418857D01*
X115640856Y-90942302D01*
X111910000Y-90942302D01*
X111910000Y-90169787D01*
X116249392Y-90169787D01*
X117050000Y-90970395D01*
X117850608Y-90169787D01*
X117781143Y-89927603D01*
X117257698Y-89740856D01*
X116702632Y-89768638D01*
X116318857Y-89927603D01*
X116249392Y-90169787D01*
X111910000Y-90169787D01*
X111910000Y-88094040D01*
X115683097Y-88094040D01*
X115843960Y-88482424D01*
X116219867Y-88897390D01*
X116725960Y-89136915D01*
X116948001Y-89015630D01*
X116948001Y-87872001D01*
X117202001Y-87872001D01*
X117202001Y-89015630D01*
X117424042Y-89136915D01*
X117930135Y-88897390D01*
X118306042Y-88482424D01*
X118466905Y-88094040D01*
X118344916Y-87872001D01*
X117202001Y-87872001D01*
X116948001Y-87872001D01*
X115805086Y-87872001D01*
X115683097Y-88094040D01*
X111910000Y-88094040D01*
X111910000Y-82665001D01*
X115611888Y-82665001D01*
X115723261Y-83224910D01*
X116040424Y-83699578D01*
X116392759Y-83935001D01*
X116040424Y-84170424D01*
X115723261Y-84645092D01*
X115611888Y-85205001D01*
X115723261Y-85764910D01*
X116040424Y-86239578D01*
X116424109Y-86495948D01*
X116219867Y-86592612D01*
X115843960Y-87007578D01*
X115683097Y-87395962D01*
X115805086Y-87618001D01*
X116948001Y-87618001D01*
X116948001Y-87598001D01*
X117202001Y-87598001D01*
X117202001Y-87618001D01*
X118344916Y-87618001D01*
X118466905Y-87395962D01*
X118306042Y-87007578D01*
X117930135Y-86592612D01*
X117725893Y-86495948D01*
X118109578Y-86239578D01*
X118426741Y-85764910D01*
X118538114Y-85205001D01*
X118426741Y-84645092D01*
X118109578Y-84170424D01*
X117757243Y-83935001D01*
X118109578Y-83699578D01*
X118426741Y-83224910D01*
X118538114Y-82665001D01*
X118426741Y-82105092D01*
X118109578Y-81630424D01*
X117988895Y-81549786D01*
X118122766Y-81523158D01*
X118332810Y-81382810D01*
X118473158Y-81172766D01*
X118522441Y-80925001D01*
X118522441Y-80125001D01*
X123231888Y-80125001D01*
X123343261Y-80684910D01*
X123660424Y-81159578D01*
X124012759Y-81395001D01*
X123660424Y-81630424D01*
X123343261Y-82105092D01*
X123231888Y-82665001D01*
X123343261Y-83224910D01*
X123660424Y-83699578D01*
X124012759Y-83935001D01*
X123660424Y-84170424D01*
X123343261Y-84645092D01*
X123231888Y-85205001D01*
X123343261Y-85764910D01*
X123660424Y-86239578D01*
X124012759Y-86475001D01*
X123660424Y-86710424D01*
X123343261Y-87185092D01*
X123231888Y-87745001D01*
X123343261Y-88304910D01*
X123660424Y-88779578D01*
X124135092Y-89096741D01*
X124461303Y-89161629D01*
X124365000Y-89394126D01*
X124365000Y-89805874D01*
X124522569Y-90186280D01*
X124813720Y-90477431D01*
X125194126Y-90635000D01*
X125605874Y-90635000D01*
X125986280Y-90477431D01*
X126277431Y-90186280D01*
X126435000Y-89805874D01*
X126435000Y-89748428D01*
X126497003Y-89706999D01*
X126681554Y-89430799D01*
X126730002Y-89187235D01*
X126730002Y-89187234D01*
X126746360Y-89104998D01*
X126730002Y-89022761D01*
X126730002Y-86487234D01*
X126746359Y-86405001D01*
X126730002Y-86322768D01*
X126730002Y-86322765D01*
X126681554Y-86079201D01*
X126497003Y-85803001D01*
X126427284Y-85756416D01*
X126143588Y-85472720D01*
X126143584Y-85472715D01*
X126111287Y-85440418D01*
X126158114Y-85205001D01*
X126110782Y-84967047D01*
X126677500Y-84967047D01*
X126677500Y-85532953D01*
X126894063Y-86055781D01*
X127294219Y-86455937D01*
X127817047Y-86672500D01*
X128382953Y-86672500D01*
X128905781Y-86455937D01*
X129305937Y-86055781D01*
X129522500Y-85532953D01*
X129522500Y-84967047D01*
X129305937Y-84444219D01*
X128905781Y-84044063D01*
X128382953Y-83827500D01*
X127817047Y-83827500D01*
X127294219Y-84044063D01*
X126894063Y-84444219D01*
X126677500Y-84967047D01*
X126110782Y-84967047D01*
X126046741Y-84645092D01*
X125729578Y-84170424D01*
X125377243Y-83935001D01*
X125729578Y-83699578D01*
X126046741Y-83224910D01*
X126158114Y-82665001D01*
X126046741Y-82105092D01*
X125729578Y-81630424D01*
X125377243Y-81395001D01*
X125729578Y-81159578D01*
X126046741Y-80684910D01*
X126158114Y-80125001D01*
X126118739Y-79927047D01*
X126677500Y-79927047D01*
X126677500Y-80492953D01*
X126894063Y-81015781D01*
X127294219Y-81415937D01*
X127817047Y-81632500D01*
X128382953Y-81632500D01*
X128905781Y-81415937D01*
X129305937Y-81015781D01*
X129522500Y-80492953D01*
X129522500Y-79927047D01*
X129305937Y-79404219D01*
X128905781Y-79004063D01*
X128382953Y-78787500D01*
X127817047Y-78787500D01*
X127294219Y-79004063D01*
X126894063Y-79404219D01*
X126677500Y-79927047D01*
X126118739Y-79927047D01*
X126046741Y-79565092D01*
X125729578Y-79090424D01*
X125254910Y-78773261D01*
X124836334Y-78690001D01*
X124553668Y-78690001D01*
X124135092Y-78773261D01*
X123660424Y-79090424D01*
X123343261Y-79565092D01*
X123231888Y-80125001D01*
X118522441Y-80125001D01*
X118522441Y-79325001D01*
X118473158Y-79077236D01*
X118332810Y-78867192D01*
X118122766Y-78726844D01*
X117875001Y-78677561D01*
X116275001Y-78677561D01*
X116027236Y-78726844D01*
X115817192Y-78867192D01*
X115676844Y-79077236D01*
X115627561Y-79325001D01*
X115627561Y-80925001D01*
X115676844Y-81172766D01*
X115817192Y-81382810D01*
X116027236Y-81523158D01*
X116161107Y-81549786D01*
X116040424Y-81630424D01*
X115723261Y-82105092D01*
X115611888Y-82665001D01*
X111910000Y-82665001D01*
X111910000Y-78029886D01*
X111995836Y-78274311D01*
X112449182Y-78849377D01*
X113064360Y-79246593D01*
X113775036Y-79423126D01*
X114504578Y-79359940D01*
X115174321Y-79063850D01*
X115712046Y-78566783D01*
X116059770Y-77922336D01*
X116180000Y-77200000D01*
X116179725Y-77164973D01*
X116104148Y-76751151D01*
X128697455Y-76751151D01*
X128703206Y-77483402D01*
X128945836Y-78174311D01*
X129399182Y-78749377D01*
X130014360Y-79146593D01*
X130725036Y-79323126D01*
X131454578Y-79259940D01*
X132124321Y-78963850D01*
X132662046Y-78466783D01*
X133009770Y-77822336D01*
X133130000Y-77100000D01*
X133129725Y-77064973D01*
X132998164Y-76344614D01*
X132640360Y-75705709D01*
X132094894Y-75217149D01*
X131420583Y-74931615D01*
X130690138Y-74879897D01*
X129982323Y-75067571D01*
X129373460Y-75474400D01*
X128929203Y-76056517D01*
X128697455Y-76751151D01*
X116104148Y-76751151D01*
X116048164Y-76444614D01*
X115690360Y-75805709D01*
X115144894Y-75317149D01*
X114470583Y-75031615D01*
X113740138Y-74979897D01*
X113032323Y-75167571D01*
X112423460Y-75574400D01*
X111979203Y-76156517D01*
X111910000Y-76363944D01*
X111910000Y-74710000D01*
X133290000Y-74710000D01*
X133290000Y-74930075D01*
X133290000Y-74930075D01*
G37*
X133290000Y-74930075D02*
X133290001Y-96490000D01*
X111910000Y-96490000D01*
X111910000Y-93851151D01*
X111947455Y-93851151D01*
X111953206Y-94583402D01*
X112195836Y-95274311D01*
X112649182Y-95849377D01*
X113264360Y-96246593D01*
X113975036Y-96423126D01*
X114704578Y-96359940D01*
X115374321Y-96063850D01*
X115912046Y-95566783D01*
X116259770Y-94922336D01*
X116380000Y-94200000D01*
X116379725Y-94164973D01*
X116295017Y-93701151D01*
X128697455Y-93701151D01*
X128703206Y-94433402D01*
X128945836Y-95124311D01*
X129399182Y-95699377D01*
X130014360Y-96096593D01*
X130725036Y-96273126D01*
X131454578Y-96209940D01*
X132124321Y-95913850D01*
X132662046Y-95416783D01*
X133009770Y-94772336D01*
X133130000Y-94050000D01*
X133129725Y-94014973D01*
X132998164Y-93294614D01*
X132640360Y-92655709D01*
X132094894Y-92167149D01*
X131420583Y-91881615D01*
X130690138Y-91829897D01*
X129982323Y-92017571D01*
X129373460Y-92424400D01*
X128929203Y-93006517D01*
X128697455Y-93701151D01*
X116295017Y-93701151D01*
X116248164Y-93444614D01*
X115890360Y-92805709D01*
X115344894Y-92317149D01*
X114903430Y-92130213D01*
X116249392Y-92130213D01*
X116318857Y-92372397D01*
X116842302Y-92559144D01*
X117397368Y-92531362D01*
X117781143Y-92372397D01*
X117850608Y-92130213D01*
X117050000Y-91329605D01*
X116249392Y-92130213D01*
X114903430Y-92130213D01*
X114670583Y-92031615D01*
X113940138Y-91979897D01*
X113232323Y-92167571D01*
X112623460Y-92574400D01*
X112179203Y-93156517D01*
X111947455Y-93851151D01*
X111910000Y-93851151D01*
X111910000Y-90942302D01*
X115640856Y-90942302D01*
X115668638Y-91497368D01*
X115827603Y-91881143D01*
X116069787Y-91950608D01*
X116870395Y-91150000D01*
X117229605Y-91150000D01*
X118030213Y-91950608D01*
X118272397Y-91881143D01*
X118304025Y-91792490D01*
X118365680Y-91941337D01*
X118758663Y-92334320D01*
X119272119Y-92547000D01*
X119827881Y-92547000D01*
X120341337Y-92334320D01*
X120734320Y-91941337D01*
X120800000Y-91782771D01*
X120865680Y-91941337D01*
X121258663Y-92334320D01*
X121772119Y-92547000D01*
X122327881Y-92547000D01*
X122841337Y-92334320D01*
X123234320Y-91941337D01*
X123447000Y-91427881D01*
X123447000Y-90872119D01*
X123234320Y-90358663D01*
X122841337Y-89965680D01*
X122327881Y-89753000D01*
X121772119Y-89753000D01*
X121258663Y-89965680D01*
X120865680Y-90358663D01*
X120800000Y-90517229D01*
X120734320Y-90358663D01*
X120341337Y-89965680D01*
X119827881Y-89753000D01*
X119272119Y-89753000D01*
X118758663Y-89965680D01*
X118365680Y-90358663D01*
X118306572Y-90501363D01*
X118272397Y-90418857D01*
X118030213Y-90349392D01*
X117229605Y-91150000D01*
X116870395Y-91150000D01*
X116069787Y-90349392D01*
X115827603Y-90418857D01*
X115640856Y-90942302D01*
X111910000Y-90942302D01*
X111910000Y-90169787D01*
X116249392Y-90169787D01*
X117050000Y-90970395D01*
X117850608Y-90169787D01*
X117781143Y-89927603D01*
X117257698Y-89740856D01*
X116702632Y-89768638D01*
X116318857Y-89927603D01*
X116249392Y-90169787D01*
X111910000Y-90169787D01*
X111910000Y-88094040D01*
X115683097Y-88094040D01*
X115843960Y-88482424D01*
X116219867Y-88897390D01*
X116725960Y-89136915D01*
X116948001Y-89015630D01*
X116948001Y-87872001D01*
X117202001Y-87872001D01*
X117202001Y-89015630D01*
X117424042Y-89136915D01*
X117930135Y-88897390D01*
X118306042Y-88482424D01*
X118466905Y-88094040D01*
X118344916Y-87872001D01*
X117202001Y-87872001D01*
X116948001Y-87872001D01*
X115805086Y-87872001D01*
X115683097Y-88094040D01*
X111910000Y-88094040D01*
X111910000Y-82665001D01*
X115611888Y-82665001D01*
X115723261Y-83224910D01*
X116040424Y-83699578D01*
X116392759Y-83935001D01*
X116040424Y-84170424D01*
X115723261Y-84645092D01*
X115611888Y-85205001D01*
X115723261Y-85764910D01*
X116040424Y-86239578D01*
X116424109Y-86495948D01*
X116219867Y-86592612D01*
X115843960Y-87007578D01*
X115683097Y-87395962D01*
X115805086Y-87618001D01*
X116948001Y-87618001D01*
X116948001Y-87598001D01*
X117202001Y-87598001D01*
X117202001Y-87618001D01*
X118344916Y-87618001D01*
X118466905Y-87395962D01*
X118306042Y-87007578D01*
X117930135Y-86592612D01*
X117725893Y-86495948D01*
X118109578Y-86239578D01*
X118426741Y-85764910D01*
X118538114Y-85205001D01*
X118426741Y-84645092D01*
X118109578Y-84170424D01*
X117757243Y-83935001D01*
X118109578Y-83699578D01*
X118426741Y-83224910D01*
X118538114Y-82665001D01*
X118426741Y-82105092D01*
X118109578Y-81630424D01*
X117988895Y-81549786D01*
X118122766Y-81523158D01*
X118332810Y-81382810D01*
X118473158Y-81172766D01*
X118522441Y-80925001D01*
X118522441Y-80125001D01*
X123231888Y-80125001D01*
X123343261Y-80684910D01*
X123660424Y-81159578D01*
X124012759Y-81395001D01*
X123660424Y-81630424D01*
X123343261Y-82105092D01*
X123231888Y-82665001D01*
X123343261Y-83224910D01*
X123660424Y-83699578D01*
X124012759Y-83935001D01*
X123660424Y-84170424D01*
X123343261Y-84645092D01*
X123231888Y-85205001D01*
X123343261Y-85764910D01*
X123660424Y-86239578D01*
X124012759Y-86475001D01*
X123660424Y-86710424D01*
X123343261Y-87185092D01*
X123231888Y-87745001D01*
X123343261Y-88304910D01*
X123660424Y-88779578D01*
X124135092Y-89096741D01*
X124461303Y-89161629D01*
X124365000Y-89394126D01*
X124365000Y-89805874D01*
X124522569Y-90186280D01*
X124813720Y-90477431D01*
X125194126Y-90635000D01*
X125605874Y-90635000D01*
X125986280Y-90477431D01*
X126277431Y-90186280D01*
X126435000Y-89805874D01*
X126435000Y-89748428D01*
X126497003Y-89706999D01*
X126681554Y-89430799D01*
X126730002Y-89187235D01*
X126730002Y-89187234D01*
X126746360Y-89104998D01*
X126730002Y-89022761D01*
X126730002Y-86487234D01*
X126746359Y-86405001D01*
X126730002Y-86322768D01*
X126730002Y-86322765D01*
X126681554Y-86079201D01*
X126497003Y-85803001D01*
X126427284Y-85756416D01*
X126143588Y-85472720D01*
X126143584Y-85472715D01*
X126111287Y-85440418D01*
X126158114Y-85205001D01*
X126110782Y-84967047D01*
X126677500Y-84967047D01*
X126677500Y-85532953D01*
X126894063Y-86055781D01*
X127294219Y-86455937D01*
X127817047Y-86672500D01*
X128382953Y-86672500D01*
X128905781Y-86455937D01*
X129305937Y-86055781D01*
X129522500Y-85532953D01*
X129522500Y-84967047D01*
X129305937Y-84444219D01*
X128905781Y-84044063D01*
X128382953Y-83827500D01*
X127817047Y-83827500D01*
X127294219Y-84044063D01*
X126894063Y-84444219D01*
X126677500Y-84967047D01*
X126110782Y-84967047D01*
X126046741Y-84645092D01*
X125729578Y-84170424D01*
X125377243Y-83935001D01*
X125729578Y-83699578D01*
X126046741Y-83224910D01*
X126158114Y-82665001D01*
X126046741Y-82105092D01*
X125729578Y-81630424D01*
X125377243Y-81395001D01*
X125729578Y-81159578D01*
X126046741Y-80684910D01*
X126158114Y-80125001D01*
X126118739Y-79927047D01*
X126677500Y-79927047D01*
X126677500Y-80492953D01*
X126894063Y-81015781D01*
X127294219Y-81415937D01*
X127817047Y-81632500D01*
X128382953Y-81632500D01*
X128905781Y-81415937D01*
X129305937Y-81015781D01*
X129522500Y-80492953D01*
X129522500Y-79927047D01*
X129305937Y-79404219D01*
X128905781Y-79004063D01*
X128382953Y-78787500D01*
X127817047Y-78787500D01*
X127294219Y-79004063D01*
X126894063Y-79404219D01*
X126677500Y-79927047D01*
X126118739Y-79927047D01*
X126046741Y-79565092D01*
X125729578Y-79090424D01*
X125254910Y-78773261D01*
X124836334Y-78690001D01*
X124553668Y-78690001D01*
X124135092Y-78773261D01*
X123660424Y-79090424D01*
X123343261Y-79565092D01*
X123231888Y-80125001D01*
X118522441Y-80125001D01*
X118522441Y-79325001D01*
X118473158Y-79077236D01*
X118332810Y-78867192D01*
X118122766Y-78726844D01*
X117875001Y-78677561D01*
X116275001Y-78677561D01*
X116027236Y-78726844D01*
X115817192Y-78867192D01*
X115676844Y-79077236D01*
X115627561Y-79325001D01*
X115627561Y-80925001D01*
X115676844Y-81172766D01*
X115817192Y-81382810D01*
X116027236Y-81523158D01*
X116161107Y-81549786D01*
X116040424Y-81630424D01*
X115723261Y-82105092D01*
X115611888Y-82665001D01*
X111910000Y-82665001D01*
X111910000Y-78029886D01*
X111995836Y-78274311D01*
X112449182Y-78849377D01*
X113064360Y-79246593D01*
X113775036Y-79423126D01*
X114504578Y-79359940D01*
X115174321Y-79063850D01*
X115712046Y-78566783D01*
X116059770Y-77922336D01*
X116180000Y-77200000D01*
X116179725Y-77164973D01*
X116104148Y-76751151D01*
X128697455Y-76751151D01*
X128703206Y-77483402D01*
X128945836Y-78174311D01*
X129399182Y-78749377D01*
X130014360Y-79146593D01*
X130725036Y-79323126D01*
X131454578Y-79259940D01*
X132124321Y-78963850D01*
X132662046Y-78466783D01*
X133009770Y-77822336D01*
X133130000Y-77100000D01*
X133129725Y-77064973D01*
X132998164Y-76344614D01*
X132640360Y-75705709D01*
X132094894Y-75217149D01*
X131420583Y-74931615D01*
X130690138Y-74879897D01*
X129982323Y-75067571D01*
X129373460Y-75474400D01*
X128929203Y-76056517D01*
X128697455Y-76751151D01*
X116104148Y-76751151D01*
X116048164Y-76444614D01*
X115690360Y-75805709D01*
X115144894Y-75317149D01*
X114470583Y-75031615D01*
X113740138Y-74979897D01*
X113032323Y-75167571D01*
X112423460Y-75574400D01*
X111979203Y-76156517D01*
X111910000Y-76363944D01*
X111910000Y-74710000D01*
X133290000Y-74710000D01*
X133290000Y-74930075D01*
G04 #@! TD*
M02*
